<mxfile host="Electron" modified="2024-12-01T09:09:48.516Z" agent="Mozilla/5.0 (Windows NT 10.0; Win64; x64) AppleWebKit/537.36 (KHTML, like Gecko) draw.io/24.6.4 Chrome/124.0.6367.207 Electron/30.0.6 Safari/537.36" etag="3HmsyxPh5DC1iDmRoPj6" version="24.6.4" type="device">
  <diagram name="Страница — 1" id="VIZ05KspEORilz2qmD91">
    <mxGraphModel dx="1402" dy="843" grid="1" gridSize="10" guides="1" tooltips="1" connect="1" arrows="1" fold="1" page="1" pageScale="1" pageWidth="827" pageHeight="1169" math="0" shadow="0">
      <root>
        <mxCell id="0" />
        <mxCell id="1" parent="0" />
        <mxCell id="FofKF9fw0fsyuF1-mD6l-1" value="s0" style="ellipse;whiteSpace=wrap;html=1;aspect=fixed;" parent="1" vertex="1">
          <mxGeometry x="110" y="370" width="30" height="30" as="geometry" />
        </mxCell>
        <mxCell id="FofKF9fw0fsyuF1-mD6l-4" value="&quot;" style="text;html=1;align=center;verticalAlign=middle;whiteSpace=wrap;rounded=0;" parent="1" vertex="1">
          <mxGeometry x="160" y="360" width="30" height="30" as="geometry" />
        </mxCell>
        <mxCell id="FofKF9fw0fsyuF1-mD6l-7" style="edgeStyle=orthogonalEdgeStyle;rounded=0;orthogonalLoop=1;jettySize=auto;html=1;" parent="1" source="FofKF9fw0fsyuF1-mD6l-1" target="FofKF9fw0fsyuF1-mD6l-8" edge="1">
          <mxGeometry relative="1" as="geometry">
            <mxPoint x="240" y="385" as="sourcePoint" />
          </mxGeometry>
        </mxCell>
        <mxCell id="FofKF9fw0fsyuF1-mD6l-37" style="edgeStyle=orthogonalEdgeStyle;rounded=0;orthogonalLoop=1;jettySize=auto;html=1;" parent="1" source="FofKF9fw0fsyuF1-mD6l-8" target="FofKF9fw0fsyuF1-mD6l-33" edge="1">
          <mxGeometry relative="1" as="geometry">
            <Array as="points">
              <mxPoint x="320" y="390" />
              <mxPoint x="320" y="460" />
            </Array>
          </mxGeometry>
        </mxCell>
        <mxCell id="FofKF9fw0fsyuF1-mD6l-8" value="s1" style="ellipse;whiteSpace=wrap;html=1;aspect=fixed;" parent="1" vertex="1">
          <mxGeometry x="210" y="370" width="30" height="30" as="geometry" />
        </mxCell>
        <mxCell id="FofKF9fw0fsyuF1-mD6l-10" value="s2" style="ellipse;whiteSpace=wrap;html=1;aspect=fixed;" parent="1" vertex="1">
          <mxGeometry x="210" y="290" width="30" height="30" as="geometry" />
        </mxCell>
        <mxCell id="FofKF9fw0fsyuF1-mD6l-11" style="edgeStyle=orthogonalEdgeStyle;rounded=0;orthogonalLoop=1;jettySize=auto;html=1;" parent="1" target="FofKF9fw0fsyuF1-mD6l-10" edge="1">
          <mxGeometry relative="1" as="geometry">
            <mxPoint x="225" y="370" as="sourcePoint" />
            <mxPoint x="320" y="395" as="targetPoint" />
          </mxGeometry>
        </mxCell>
        <mxCell id="FofKF9fw0fsyuF1-mD6l-12" value="\" style="text;html=1;align=center;verticalAlign=middle;whiteSpace=wrap;rounded=0;" parent="1" vertex="1">
          <mxGeometry x="200" y="330" width="30" height="30" as="geometry" />
        </mxCell>
        <mxCell id="FofKF9fw0fsyuF1-mD6l-36" style="edgeStyle=orthogonalEdgeStyle;rounded=0;orthogonalLoop=1;jettySize=auto;html=1;" parent="1" target="FofKF9fw0fsyuF1-mD6l-33" edge="1">
          <mxGeometry relative="1" as="geometry">
            <mxPoint x="400" y="390" as="sourcePoint" />
            <Array as="points">
              <mxPoint x="400" y="450" />
            </Array>
          </mxGeometry>
        </mxCell>
        <mxCell id="FofKF9fw0fsyuF1-mD6l-38" style="edgeStyle=orthogonalEdgeStyle;rounded=0;orthogonalLoop=1;jettySize=auto;html=1;endArrow=none;endFill=0;" parent="1" source="FofKF9fw0fsyuF1-mD6l-13" edge="1">
          <mxGeometry relative="1" as="geometry">
            <mxPoint x="400" y="380" as="targetPoint" />
          </mxGeometry>
        </mxCell>
        <mxCell id="nGoUOX4LtskV6R6v_krh-6" style="edgeStyle=orthogonalEdgeStyle;rounded=0;orthogonalLoop=1;jettySize=auto;html=1;" parent="1" source="FofKF9fw0fsyuF1-mD6l-13" target="FofKF9fw0fsyuF1-mD6l-10" edge="1">
          <mxGeometry relative="1" as="geometry">
            <mxPoint x="230" y="270" as="targetPoint" />
            <Array as="points">
              <mxPoint x="325" y="270" />
              <mxPoint x="230" y="270" />
            </Array>
          </mxGeometry>
        </mxCell>
        <mxCell id="FofKF9fw0fsyuF1-mD6l-13" value="s3" style="ellipse;whiteSpace=wrap;html=1;aspect=fixed;" parent="1" vertex="1">
          <mxGeometry x="310" y="290" width="30" height="30" as="geometry" />
        </mxCell>
        <mxCell id="FofKF9fw0fsyuF1-mD6l-14" style="edgeStyle=orthogonalEdgeStyle;rounded=0;orthogonalLoop=1;jettySize=auto;html=1;" parent="1" source="FofKF9fw0fsyuF1-mD6l-10" target="FofKF9fw0fsyuF1-mD6l-13" edge="1">
          <mxGeometry relative="1" as="geometry">
            <mxPoint x="250" y="395" as="sourcePoint" />
            <mxPoint x="320" y="395" as="targetPoint" />
            <Array as="points">
              <mxPoint x="280" y="300" />
              <mxPoint x="280" y="300" />
            </Array>
          </mxGeometry>
        </mxCell>
        <mxCell id="FofKF9fw0fsyuF1-mD6l-15" value="n,t,b,r,f,&#39;,&quot;" style="text;html=1;align=center;verticalAlign=middle;whiteSpace=wrap;rounded=0;" parent="1" vertex="1">
          <mxGeometry x="260" y="273" width="30" height="30" as="geometry" />
        </mxCell>
        <mxCell id="FofKF9fw0fsyuF1-mD6l-16" value="s3_1" style="ellipse;whiteSpace=wrap;html=1;aspect=fixed;" parent="1" vertex="1">
          <mxGeometry x="270" y="220" width="30" height="30" as="geometry" />
        </mxCell>
        <mxCell id="FofKF9fw0fsyuF1-mD6l-17" style="edgeStyle=orthogonalEdgeStyle;rounded=0;orthogonalLoop=1;jettySize=auto;html=1;" parent="1" source="FofKF9fw0fsyuF1-mD6l-10" target="FofKF9fw0fsyuF1-mD6l-16" edge="1">
          <mxGeometry relative="1" as="geometry">
            <mxPoint x="240" y="235" as="sourcePoint" />
            <mxPoint x="320" y="325" as="targetPoint" />
            <Array as="points">
              <mxPoint x="220" y="235" />
            </Array>
          </mxGeometry>
        </mxCell>
        <mxCell id="FofKF9fw0fsyuF1-mD6l-18" value="0-7" style="text;html=1;align=center;verticalAlign=middle;whiteSpace=wrap;rounded=0;" parent="1" vertex="1">
          <mxGeometry x="230" y="210" width="30" height="30" as="geometry" />
        </mxCell>
        <mxCell id="FofKF9fw0fsyuF1-mD6l-28" style="edgeStyle=orthogonalEdgeStyle;rounded=0;orthogonalLoop=1;jettySize=auto;html=1;" parent="1" source="FofKF9fw0fsyuF1-mD6l-24" target="FofKF9fw0fsyuF1-mD6l-26" edge="1">
          <mxGeometry relative="1" as="geometry" />
        </mxCell>
        <mxCell id="FofKF9fw0fsyuF1-mD6l-24" value="s3_2" style="ellipse;whiteSpace=wrap;html=1;aspect=fixed;" parent="1" vertex="1">
          <mxGeometry x="350" y="220" width="30" height="30" as="geometry" />
        </mxCell>
        <mxCell id="FofKF9fw0fsyuF1-mD6l-25" value="0-7" style="text;html=1;align=center;verticalAlign=middle;whiteSpace=wrap;rounded=0;" parent="1" vertex="1">
          <mxGeometry x="310" y="210" width="30" height="30" as="geometry" />
        </mxCell>
        <mxCell id="nGoUOX4LtskV6R6v_krh-4" style="edgeStyle=orthogonalEdgeStyle;rounded=0;orthogonalLoop=1;jettySize=auto;html=1;" parent="1" source="FofKF9fw0fsyuF1-mD6l-26" target="FofKF9fw0fsyuF1-mD6l-10" edge="1">
          <mxGeometry relative="1" as="geometry">
            <mxPoint x="180" y="305" as="targetPoint" />
            <Array as="points">
              <mxPoint x="445" y="210" />
              <mxPoint x="190" y="210" />
              <mxPoint x="190" y="305" />
            </Array>
          </mxGeometry>
        </mxCell>
        <mxCell id="FofKF9fw0fsyuF1-mD6l-26" value="s3_3" style="ellipse;whiteSpace=wrap;html=1;aspect=fixed;" parent="1" vertex="1">
          <mxGeometry x="430" y="220" width="30" height="30" as="geometry" />
        </mxCell>
        <mxCell id="FofKF9fw0fsyuF1-mD6l-27" value="0-7" style="text;html=1;align=center;verticalAlign=middle;whiteSpace=wrap;rounded=0;" parent="1" vertex="1">
          <mxGeometry x="390" y="210" width="30" height="30" as="geometry" />
        </mxCell>
        <mxCell id="FofKF9fw0fsyuF1-mD6l-29" style="edgeStyle=orthogonalEdgeStyle;rounded=0;orthogonalLoop=1;jettySize=auto;html=1;" parent="1" source="FofKF9fw0fsyuF1-mD6l-16" target="FofKF9fw0fsyuF1-mD6l-24" edge="1">
          <mxGeometry relative="1" as="geometry">
            <mxPoint x="390" y="245" as="sourcePoint" />
            <mxPoint x="450" y="245" as="targetPoint" />
          </mxGeometry>
        </mxCell>
        <mxCell id="FofKF9fw0fsyuF1-mD6l-30" style="edgeStyle=orthogonalEdgeStyle;rounded=0;orthogonalLoop=1;jettySize=auto;html=1;" parent="1" source="FofKF9fw0fsyuF1-mD6l-26" target="FofKF9fw0fsyuF1-mD6l-8" edge="1">
          <mxGeometry relative="1" as="geometry">
            <mxPoint x="413" y="390" as="sourcePoint" />
            <mxPoint x="483" y="390" as="targetPoint" />
            <Array as="points">
              <mxPoint x="440" y="385" />
            </Array>
          </mxGeometry>
        </mxCell>
        <mxCell id="FofKF9fw0fsyuF1-mD6l-31" style="edgeStyle=orthogonalEdgeStyle;rounded=0;orthogonalLoop=1;jettySize=auto;html=1;" parent="1" source="FofKF9fw0fsyuF1-mD6l-13" target="FofKF9fw0fsyuF1-mD6l-8" edge="1">
          <mxGeometry relative="1" as="geometry">
            <mxPoint x="260" y="405" as="sourcePoint" />
            <mxPoint x="370" y="390" as="targetPoint" />
            <Array as="points">
              <mxPoint x="320" y="380" />
            </Array>
          </mxGeometry>
        </mxCell>
        <mxCell id="FofKF9fw0fsyuF1-mD6l-32" value="c" style="text;html=1;align=center;verticalAlign=middle;whiteSpace=wrap;rounded=0;" parent="1" vertex="1">
          <mxGeometry x="200" y="410" width="30" height="30" as="geometry" />
        </mxCell>
        <mxCell id="FofKF9fw0fsyuF1-mD6l-33" value="s4" style="ellipse;whiteSpace=wrap;html=1;aspect=fixed;fontStyle=0;strokeWidth=2;" parent="1" vertex="1">
          <mxGeometry x="430" y="440" width="30" height="30" as="geometry" />
        </mxCell>
        <mxCell id="FofKF9fw0fsyuF1-mD6l-34" style="edgeStyle=orthogonalEdgeStyle;rounded=0;orthogonalLoop=1;jettySize=auto;html=1;" parent="1" source="FofKF9fw0fsyuF1-mD6l-26" target="FofKF9fw0fsyuF1-mD6l-33" edge="1">
          <mxGeometry relative="1" as="geometry">
            <mxPoint x="455" y="260" as="sourcePoint" />
            <mxPoint x="350" y="395" as="targetPoint" />
            <Array as="points">
              <mxPoint x="445" y="350" />
              <mxPoint x="445" y="350" />
            </Array>
          </mxGeometry>
        </mxCell>
        <mxCell id="FofKF9fw0fsyuF1-mD6l-39" value="&quot;" style="text;html=1;align=center;verticalAlign=middle;whiteSpace=wrap;rounded=0;" parent="1" vertex="1">
          <mxGeometry x="420" y="400" width="30" height="30" as="geometry" />
        </mxCell>
        <mxCell id="FofKF9fw0fsyuF1-mD6l-40" value="&quot;" style="text;html=1;align=center;verticalAlign=middle;whiteSpace=wrap;rounded=0;" parent="1" vertex="1">
          <mxGeometry x="380" y="410" width="30" height="30" as="geometry" />
        </mxCell>
        <mxCell id="FofKF9fw0fsyuF1-mD6l-41" value="&quot;" style="text;html=1;align=center;verticalAlign=middle;whiteSpace=wrap;rounded=0;" parent="1" vertex="1">
          <mxGeometry x="350" y="440" width="30" height="30" as="geometry" />
        </mxCell>
        <mxCell id="FofKF9fw0fsyuF1-mD6l-42" value="c" style="text;html=1;align=center;verticalAlign=middle;whiteSpace=wrap;rounded=0;" parent="1" vertex="1">
          <mxGeometry x="300" y="330" width="30" height="30" as="geometry" />
        </mxCell>
        <mxCell id="FofKF9fw0fsyuF1-mD6l-45" value="c" style="text;html=1;align=center;verticalAlign=middle;whiteSpace=wrap;rounded=0;" parent="1" vertex="1">
          <mxGeometry x="340" y="360" width="30" height="30" as="geometry" />
        </mxCell>
        <mxCell id="PaOevawptUkugg7WaVCO-1" style="edgeStyle=orthogonalEdgeStyle;rounded=0;orthogonalLoop=1;jettySize=auto;html=1;entryX=0;entryY=1;entryDx=0;entryDy=0;" parent="1" source="FofKF9fw0fsyuF1-mD6l-8" target="FofKF9fw0fsyuF1-mD6l-8" edge="1">
          <mxGeometry relative="1" as="geometry">
            <Array as="points">
              <mxPoint x="230" y="420" />
              <mxPoint x="214" y="420" />
              <mxPoint x="214" y="402" />
              <mxPoint x="214" y="402" />
            </Array>
          </mxGeometry>
        </mxCell>
        <mxCell id="naHqSN1-5s7MIw2LDBiy-1" value="S" style="ellipse;whiteSpace=wrap;html=1;aspect=fixed;" parent="1" vertex="1">
          <mxGeometry x="515" y="355" width="30" height="30" as="geometry" />
        </mxCell>
        <mxCell id="naHqSN1-5s7MIw2LDBiy-2" value="" style="endArrow=classic;html=1;rounded=0;" parent="1" source="naHqSN1-5s7MIw2LDBiy-1" target="naHqSN1-5s7MIw2LDBiy-6" edge="1">
          <mxGeometry width="50" height="50" relative="1" as="geometry">
            <mxPoint x="505" y="490" as="sourcePoint" />
            <mxPoint x="575" y="340" as="targetPoint" />
          </mxGeometry>
        </mxCell>
        <mxCell id="naHqSN1-5s7MIw2LDBiy-3" value="" style="endArrow=classic;html=1;rounded=0;" parent="1" source="naHqSN1-5s7MIw2LDBiy-1" target="naHqSN1-5s7MIw2LDBiy-10" edge="1">
          <mxGeometry width="50" height="50" relative="1" as="geometry">
            <mxPoint x="515" y="500" as="sourcePoint" />
            <mxPoint x="575" y="400" as="targetPoint" />
          </mxGeometry>
        </mxCell>
        <mxCell id="naHqSN1-5s7MIw2LDBiy-5" value="" style="endArrow=classic;html=1;rounded=0;" parent="1" source="naHqSN1-5s7MIw2LDBiy-10" target="naHqSN1-5s7MIw2LDBiy-14" edge="1">
          <mxGeometry width="50" height="50" relative="1" as="geometry">
            <mxPoint x="615" y="460" as="sourcePoint" />
            <mxPoint x="665" y="410" as="targetPoint" />
          </mxGeometry>
        </mxCell>
        <mxCell id="naHqSN1-5s7MIw2LDBiy-6" value="S2" style="ellipse;whiteSpace=wrap;html=1;aspect=fixed;" parent="1" vertex="1">
          <mxGeometry x="575" y="325" width="30" height="30" as="geometry" />
        </mxCell>
        <mxCell id="naHqSN1-5s7MIw2LDBiy-7" value="a" style="text;html=1;align=center;verticalAlign=middle;whiteSpace=wrap;rounded=0;" parent="1" vertex="1">
          <mxGeometry x="595" y="380" width="60" height="30" as="geometry" />
        </mxCell>
        <mxCell id="naHqSN1-5s7MIw2LDBiy-10" value="S1" style="ellipse;whiteSpace=wrap;html=1;aspect=fixed;" parent="1" vertex="1">
          <mxGeometry x="575" y="390" width="30" height="30" as="geometry" />
        </mxCell>
        <mxCell id="naHqSN1-5s7MIw2LDBiy-12" value="b" style="text;html=1;align=center;verticalAlign=middle;whiteSpace=wrap;rounded=0;" parent="1" vertex="1">
          <mxGeometry x="535" y="360" width="60" height="30" as="geometry" />
        </mxCell>
        <mxCell id="naHqSN1-5s7MIw2LDBiy-13" value="" style="endArrow=classic;html=1;rounded=0;" parent="1" source="naHqSN1-5s7MIw2LDBiy-6" target="naHqSN1-5s7MIw2LDBiy-14" edge="1">
          <mxGeometry width="50" height="50" relative="1" as="geometry">
            <mxPoint x="604" y="385" as="sourcePoint" />
            <mxPoint x="635" y="371" as="targetPoint" />
          </mxGeometry>
        </mxCell>
        <mxCell id="naHqSN1-5s7MIw2LDBiy-14" value="A" style="ellipse;whiteSpace=wrap;html=1;aspect=fixed;strokeWidth=2;" parent="1" vertex="1">
          <mxGeometry x="635" y="351" width="30" height="30" as="geometry" />
        </mxCell>
        <mxCell id="naHqSN1-5s7MIw2LDBiy-15" style="edgeStyle=orthogonalEdgeStyle;rounded=0;orthogonalLoop=1;jettySize=auto;html=1;" parent="1" source="naHqSN1-5s7MIw2LDBiy-6" target="naHqSN1-5s7MIw2LDBiy-6" edge="1">
          <mxGeometry relative="1" as="geometry">
            <mxPoint x="578.090339887499" y="300" as="sourcePoint" />
            <mxPoint x="578.090339887499" y="320" as="targetPoint" />
            <Array as="points">
              <mxPoint x="590" y="310" />
            </Array>
          </mxGeometry>
        </mxCell>
        <mxCell id="naHqSN1-5s7MIw2LDBiy-16" value="a" style="text;html=1;align=center;verticalAlign=middle;whiteSpace=wrap;rounded=0;" parent="1" vertex="1">
          <mxGeometry x="560" y="290" width="60" height="30" as="geometry" />
        </mxCell>
        <mxCell id="naHqSN1-5s7MIw2LDBiy-17" value="b" style="text;html=1;align=center;verticalAlign=middle;whiteSpace=wrap;rounded=0;" parent="1" vertex="1">
          <mxGeometry x="590" y="330" width="60" height="30" as="geometry" />
        </mxCell>
        <mxCell id="naHqSN1-5s7MIw2LDBiy-18" style="edgeStyle=orthogonalEdgeStyle;rounded=0;orthogonalLoop=1;jettySize=auto;html=1;entryX=1;entryY=0;entryDx=0;entryDy=0;exitX=0.128;exitY=0.204;exitDx=0;exitDy=0;exitPerimeter=0;" parent="1" source="naHqSN1-5s7MIw2LDBiy-14" target="naHqSN1-5s7MIw2LDBiy-14" edge="1">
          <mxGeometry relative="1" as="geometry">
            <mxPoint x="645" y="339" as="sourcePoint" />
            <mxPoint x="685" y="350" as="targetPoint" />
            <Array as="points">
              <mxPoint x="639" y="330" />
              <mxPoint x="661" y="330" />
            </Array>
          </mxGeometry>
        </mxCell>
        <mxCell id="naHqSN1-5s7MIw2LDBiy-19" value="a" style="text;html=1;align=center;verticalAlign=middle;whiteSpace=wrap;rounded=0;" parent="1" vertex="1">
          <mxGeometry x="620" y="310" width="60" height="30" as="geometry" />
        </mxCell>
        <mxCell id="naHqSN1-5s7MIw2LDBiy-32" value="" style="edgeStyle=orthogonalEdgeStyle;rounded=0;orthogonalLoop=1;jettySize=auto;html=1;" parent="1" source="naHqSN1-5s7MIw2LDBiy-21" target="naHqSN1-5s7MIw2LDBiy-31" edge="1">
          <mxGeometry relative="1" as="geometry" />
        </mxCell>
        <mxCell id="naHqSN1-5s7MIw2LDBiy-39" style="edgeStyle=orthogonalEdgeStyle;rounded=0;orthogonalLoop=1;jettySize=auto;html=1;" parent="1" target="naHqSN1-5s7MIw2LDBiy-21" edge="1">
          <mxGeometry relative="1" as="geometry">
            <mxPoint x="114.99999999999994" y="550" as="targetPoint" />
            <mxPoint x="115" y="551" as="sourcePoint" />
            <Array as="points">
              <mxPoint x="115" y="551" />
            </Array>
          </mxGeometry>
        </mxCell>
        <mxCell id="naHqSN1-5s7MIw2LDBiy-21" value="" style="ellipse;whiteSpace=wrap;html=1;aspect=fixed;" parent="1" vertex="1">
          <mxGeometry x="155" y="535" width="30" height="30" as="geometry" />
        </mxCell>
        <mxCell id="naHqSN1-5s7MIw2LDBiy-22" value="a" style="text;html=1;align=center;verticalAlign=middle;whiteSpace=wrap;rounded=0;" parent="1" vertex="1">
          <mxGeometry x="525" y="330" width="60" height="30" as="geometry" />
        </mxCell>
        <mxCell id="naHqSN1-5s7MIw2LDBiy-37" style="edgeStyle=orthogonalEdgeStyle;rounded=0;orthogonalLoop=1;jettySize=auto;html=1;" parent="1" source="naHqSN1-5s7MIw2LDBiy-31" target="naHqSN1-5s7MIw2LDBiy-36" edge="1">
          <mxGeometry relative="1" as="geometry" />
        </mxCell>
        <mxCell id="naHqSN1-5s7MIw2LDBiy-31" value="&lt;span style=&quot;font-size:14.0pt;mso-bidi-font-size:11.0pt;&lt;br/&gt;font-family:&amp;quot;Times New Roman&amp;quot;,serif;mso-fareast-font-family:&amp;quot;Courier New&amp;quot;;&lt;br/&gt;mso-bidi-font-family:&amp;quot;Courier New&amp;quot;;mso-ansi-language:RU;mso-fareast-language:&lt;br/&gt;EN-US;mso-bidi-language:AR-SA&quot;&gt;b*ab*+ab*&lt;/span&gt;" style="whiteSpace=wrap;html=1;" parent="1" vertex="1">
          <mxGeometry x="220" y="520" width="120" height="60" as="geometry" />
        </mxCell>
        <mxCell id="naHqSN1-5s7MIw2LDBiy-33" value="b" style="text;html=1;align=center;verticalAlign=middle;whiteSpace=wrap;rounded=0;" parent="1" vertex="1">
          <mxGeometry x="170" y="525" width="60" height="30" as="geometry" />
        </mxCell>
        <mxCell id="naHqSN1-5s7MIw2LDBiy-36" value="" style="ellipse;whiteSpace=wrap;html=1;aspect=fixed;strokeWidth=2;" parent="1" vertex="1">
          <mxGeometry x="375" y="535" width="30" height="30" as="geometry" />
        </mxCell>
        <mxCell id="naHqSN1-5s7MIw2LDBiy-38" value="b" style="text;html=1;align=center;verticalAlign=middle;whiteSpace=wrap;rounded=0;" parent="1" vertex="1">
          <mxGeometry x="325" y="525" width="60" height="30" as="geometry" />
        </mxCell>
        <mxCell id="naHqSN1-5s7MIw2LDBiy-40" value="" style="edgeStyle=orthogonalEdgeStyle;rounded=0;orthogonalLoop=1;jettySize=auto;html=1;" parent="1" source="naHqSN1-5s7MIw2LDBiy-42" edge="1">
          <mxGeometry relative="1" as="geometry">
            <mxPoint x="220" y="655.0344827586207" as="targetPoint" />
          </mxGeometry>
        </mxCell>
        <mxCell id="naHqSN1-5s7MIw2LDBiy-41" style="edgeStyle=orthogonalEdgeStyle;rounded=0;orthogonalLoop=1;jettySize=auto;html=1;" parent="1" target="naHqSN1-5s7MIw2LDBiy-42" edge="1">
          <mxGeometry relative="1" as="geometry">
            <mxPoint x="114.99999999999994" y="655" as="targetPoint" />
            <mxPoint x="115" y="656" as="sourcePoint" />
            <Array as="points">
              <mxPoint x="115" y="656" />
            </Array>
          </mxGeometry>
        </mxCell>
        <mxCell id="naHqSN1-5s7MIw2LDBiy-42" value="" style="ellipse;whiteSpace=wrap;html=1;aspect=fixed;" parent="1" vertex="1">
          <mxGeometry x="155" y="640" width="30" height="30" as="geometry" />
        </mxCell>
        <mxCell id="naHqSN1-5s7MIw2LDBiy-43" style="edgeStyle=orthogonalEdgeStyle;rounded=0;orthogonalLoop=1;jettySize=auto;html=1;" parent="1" source="naHqSN1-5s7MIw2LDBiy-63" target="naHqSN1-5s7MIw2LDBiy-46" edge="1">
          <mxGeometry relative="1" as="geometry">
            <mxPoint x="489.0000000000001" y="655.0344827586207" as="sourcePoint" />
          </mxGeometry>
        </mxCell>
        <mxCell id="naHqSN1-5s7MIw2LDBiy-45" value="e" style="text;html=1;align=center;verticalAlign=middle;whiteSpace=wrap;rounded=0;" parent="1" vertex="1">
          <mxGeometry x="355" y="630" width="60" height="30" as="geometry" />
        </mxCell>
        <mxCell id="naHqSN1-5s7MIw2LDBiy-46" value="" style="ellipse;whiteSpace=wrap;html=1;aspect=fixed;strokeWidth=2;" parent="1" vertex="1">
          <mxGeometry x="530" y="640" width="30" height="30" as="geometry" />
        </mxCell>
        <mxCell id="naHqSN1-5s7MIw2LDBiy-47" value="b" style="text;html=1;align=center;verticalAlign=middle;whiteSpace=wrap;rounded=0;" parent="1" vertex="1">
          <mxGeometry x="484" y="630" width="60" height="30" as="geometry" />
        </mxCell>
        <mxCell id="naHqSN1-5s7MIw2LDBiy-64" style="edgeStyle=orthogonalEdgeStyle;rounded=0;orthogonalLoop=1;jettySize=auto;html=1;" parent="1" source="naHqSN1-5s7MIw2LDBiy-48" target="naHqSN1-5s7MIw2LDBiy-61" edge="1">
          <mxGeometry relative="1" as="geometry" />
        </mxCell>
        <mxCell id="naHqSN1-5s7MIw2LDBiy-48" value="&lt;span style=&quot;font-size:14.0pt;mso-bidi-font-size:11.0pt;&lt;br/&gt;font-family:&amp;quot;Times New Roman&amp;quot;,serif;mso-fareast-font-family:&amp;quot;Courier New&amp;quot;;&lt;br/&gt;mso-bidi-font-family:&amp;quot;Courier New&amp;quot;;mso-ansi-language:RU;mso-fareast-language:&lt;br/&gt;EN-US;mso-bidi-language:AR-SA&quot;&gt;ab*+a&lt;/span&gt;" style="whiteSpace=wrap;html=1;" parent="1" vertex="1">
          <mxGeometry x="290" y="625" width="75" height="60" as="geometry" />
        </mxCell>
        <mxCell id="naHqSN1-5s7MIw2LDBiy-54" style="edgeStyle=orthogonalEdgeStyle;rounded=0;orthogonalLoop=1;jettySize=auto;html=1;" parent="1" source="naHqSN1-5s7MIw2LDBiy-49" target="naHqSN1-5s7MIw2LDBiy-48" edge="1">
          <mxGeometry relative="1" as="geometry">
            <mxPoint x="285" y="655" as="targetPoint" />
          </mxGeometry>
        </mxCell>
        <mxCell id="naHqSN1-5s7MIw2LDBiy-49" value="" style="ellipse;whiteSpace=wrap;html=1;aspect=fixed;" parent="1" vertex="1">
          <mxGeometry x="220" y="640" width="30" height="30" as="geometry" />
        </mxCell>
        <mxCell id="naHqSN1-5s7MIw2LDBiy-52" style="edgeStyle=orthogonalEdgeStyle;rounded=0;orthogonalLoop=1;jettySize=auto;html=1;exitX=0;exitY=0;exitDx=0;exitDy=0;entryX=1;entryY=0;entryDx=0;entryDy=0;" parent="1" source="naHqSN1-5s7MIw2LDBiy-49" target="naHqSN1-5s7MIw2LDBiy-49" edge="1">
          <mxGeometry relative="1" as="geometry">
            <mxPoint x="255" y="615" as="targetPoint" />
            <Array as="points">
              <mxPoint x="224" y="644" />
              <mxPoint x="224" y="620" />
              <mxPoint x="246" y="620" />
            </Array>
          </mxGeometry>
        </mxCell>
        <mxCell id="naHqSN1-5s7MIw2LDBiy-53" value="b" style="text;html=1;align=center;verticalAlign=middle;whiteSpace=wrap;rounded=0;" parent="1" vertex="1">
          <mxGeometry x="205" y="595" width="60" height="30" as="geometry" />
        </mxCell>
        <mxCell id="naHqSN1-5s7MIw2LDBiy-59" value="b" style="text;html=1;align=center;verticalAlign=middle;whiteSpace=wrap;rounded=0;" parent="1" vertex="1">
          <mxGeometry x="415" y="630" width="60" height="30" as="geometry" />
        </mxCell>
        <mxCell id="naHqSN1-5s7MIw2LDBiy-60" style="edgeStyle=orthogonalEdgeStyle;rounded=0;orthogonalLoop=1;jettySize=auto;html=1;" parent="1" source="naHqSN1-5s7MIw2LDBiy-61" target="naHqSN1-5s7MIw2LDBiy-63" edge="1">
          <mxGeometry relative="1" as="geometry">
            <mxPoint x="465" y="655" as="targetPoint" />
          </mxGeometry>
        </mxCell>
        <mxCell id="naHqSN1-5s7MIw2LDBiy-61" value="" style="ellipse;whiteSpace=wrap;html=1;aspect=fixed;" parent="1" vertex="1">
          <mxGeometry x="400" y="640" width="30" height="30" as="geometry" />
        </mxCell>
        <mxCell id="naHqSN1-5s7MIw2LDBiy-62" style="edgeStyle=orthogonalEdgeStyle;rounded=0;orthogonalLoop=1;jettySize=auto;html=1;exitX=0;exitY=0;exitDx=0;exitDy=0;entryX=1;entryY=0;entryDx=0;entryDy=0;" parent="1" source="naHqSN1-5s7MIw2LDBiy-61" target="naHqSN1-5s7MIw2LDBiy-61" edge="1">
          <mxGeometry relative="1" as="geometry">
            <mxPoint x="435" y="615" as="targetPoint" />
            <Array as="points">
              <mxPoint x="404" y="644" />
              <mxPoint x="404" y="620" />
              <mxPoint x="426" y="620" />
            </Array>
          </mxGeometry>
        </mxCell>
        <mxCell id="naHqSN1-5s7MIw2LDBiy-63" value="" style="ellipse;whiteSpace=wrap;html=1;aspect=fixed;" parent="1" vertex="1">
          <mxGeometry x="470" y="640" width="30" height="30" as="geometry" />
        </mxCell>
        <mxCell id="naHqSN1-5s7MIw2LDBiy-65" value="b" style="text;html=1;align=center;verticalAlign=middle;whiteSpace=wrap;rounded=0;" parent="1" vertex="1">
          <mxGeometry x="385" y="595" width="60" height="30" as="geometry" />
        </mxCell>
        <mxCell id="naHqSN1-5s7MIw2LDBiy-66" value="" style="edgeStyle=orthogonalEdgeStyle;rounded=0;orthogonalLoop=1;jettySize=auto;html=1;" parent="1" source="naHqSN1-5s7MIw2LDBiy-68" edge="1">
          <mxGeometry relative="1" as="geometry">
            <mxPoint x="220" y="775.0344827586207" as="targetPoint" />
          </mxGeometry>
        </mxCell>
        <mxCell id="naHqSN1-5s7MIw2LDBiy-67" style="edgeStyle=orthogonalEdgeStyle;rounded=0;orthogonalLoop=1;jettySize=auto;html=1;" parent="1" target="naHqSN1-5s7MIw2LDBiy-68" edge="1">
          <mxGeometry relative="1" as="geometry">
            <mxPoint x="114.99999999999994" y="775" as="targetPoint" />
            <mxPoint x="115" y="776" as="sourcePoint" />
            <Array as="points">
              <mxPoint x="115" y="776" />
            </Array>
          </mxGeometry>
        </mxCell>
        <mxCell id="naHqSN1-5s7MIw2LDBiy-68" value="" style="ellipse;whiteSpace=wrap;html=1;aspect=fixed;" parent="1" vertex="1">
          <mxGeometry x="155" y="760" width="30" height="30" as="geometry" />
        </mxCell>
        <mxCell id="naHqSN1-5s7MIw2LDBiy-69" style="edgeStyle=orthogonalEdgeStyle;rounded=0;orthogonalLoop=1;jettySize=auto;html=1;" parent="1" source="naHqSN1-5s7MIw2LDBiy-83" target="naHqSN1-5s7MIw2LDBiy-71" edge="1">
          <mxGeometry relative="1" as="geometry">
            <mxPoint x="543.0000000000001" y="775.0344827586207" as="sourcePoint" />
          </mxGeometry>
        </mxCell>
        <mxCell id="naHqSN1-5s7MIw2LDBiy-71" value="" style="ellipse;whiteSpace=wrap;html=1;aspect=fixed;strokeWidth=2;" parent="1" vertex="1">
          <mxGeometry x="584" y="760" width="30" height="30" as="geometry" />
        </mxCell>
        <mxCell id="naHqSN1-5s7MIw2LDBiy-72" value="b" style="text;html=1;align=center;verticalAlign=middle;whiteSpace=wrap;rounded=0;" parent="1" vertex="1">
          <mxGeometry x="538" y="750" width="60" height="30" as="geometry" />
        </mxCell>
        <mxCell id="naHqSN1-5s7MIw2LDBiy-88" style="edgeStyle=orthogonalEdgeStyle;rounded=0;orthogonalLoop=1;jettySize=auto;html=1;" parent="1" source="naHqSN1-5s7MIw2LDBiy-74" edge="1">
          <mxGeometry relative="1" as="geometry">
            <mxPoint x="454.00011534069733" y="775.0588235294119" as="targetPoint" />
          </mxGeometry>
        </mxCell>
        <mxCell id="naHqSN1-5s7MIw2LDBiy-74" value="&lt;span style=&quot;font-size:14.0pt;mso-bidi-font-size:11.0pt;&lt;br/&gt;font-family:&amp;quot;Times New Roman&amp;quot;,serif;mso-fareast-font-family:&amp;quot;Courier New&amp;quot;;&lt;br/&gt;mso-bidi-font-family:&amp;quot;Courier New&amp;quot;;mso-ansi-language:RU;mso-fareast-language:&lt;br/&gt;EN-US;mso-bidi-language:AR-SA&quot;&gt;b*+&lt;/span&gt;" style="whiteSpace=wrap;html=1;" parent="1" vertex="1">
          <mxGeometry x="345" y="745" width="75" height="60" as="geometry" />
        </mxCell>
        <mxCell id="naHqSN1-5s7MIw2LDBiy-75" style="edgeStyle=orthogonalEdgeStyle;rounded=0;orthogonalLoop=1;jettySize=auto;html=1;" parent="1" source="naHqSN1-5s7MIw2LDBiy-76" target="naHqSN1-5s7MIw2LDBiy-85" edge="1">
          <mxGeometry relative="1" as="geometry">
            <mxPoint x="295" y="775" as="targetPoint" />
          </mxGeometry>
        </mxCell>
        <mxCell id="naHqSN1-5s7MIw2LDBiy-76" value="" style="ellipse;whiteSpace=wrap;html=1;aspect=fixed;" parent="1" vertex="1">
          <mxGeometry x="220" y="760" width="30" height="30" as="geometry" />
        </mxCell>
        <mxCell id="naHqSN1-5s7MIw2LDBiy-77" style="edgeStyle=orthogonalEdgeStyle;rounded=0;orthogonalLoop=1;jettySize=auto;html=1;exitX=0;exitY=0;exitDx=0;exitDy=0;entryX=1;entryY=0;entryDx=0;entryDy=0;" parent="1" source="naHqSN1-5s7MIw2LDBiy-76" target="naHqSN1-5s7MIw2LDBiy-76" edge="1">
          <mxGeometry relative="1" as="geometry">
            <mxPoint x="255" y="735" as="targetPoint" />
            <Array as="points">
              <mxPoint x="224" y="764" />
              <mxPoint x="224" y="740" />
              <mxPoint x="246" y="740" />
            </Array>
          </mxGeometry>
        </mxCell>
        <mxCell id="naHqSN1-5s7MIw2LDBiy-78" value="b" style="text;html=1;align=center;verticalAlign=middle;whiteSpace=wrap;rounded=0;" parent="1" vertex="1">
          <mxGeometry x="205" y="715" width="60" height="30" as="geometry" />
        </mxCell>
        <mxCell id="naHqSN1-5s7MIw2LDBiy-79" value="b" style="text;html=1;align=center;verticalAlign=middle;whiteSpace=wrap;rounded=0;" parent="1" vertex="1">
          <mxGeometry x="469" y="750" width="60" height="30" as="geometry" />
        </mxCell>
        <mxCell id="naHqSN1-5s7MIw2LDBiy-80" style="edgeStyle=orthogonalEdgeStyle;rounded=0;orthogonalLoop=1;jettySize=auto;html=1;" parent="1" source="naHqSN1-5s7MIw2LDBiy-81" target="naHqSN1-5s7MIw2LDBiy-83" edge="1">
          <mxGeometry relative="1" as="geometry">
            <mxPoint x="519" y="775" as="targetPoint" />
          </mxGeometry>
        </mxCell>
        <mxCell id="naHqSN1-5s7MIw2LDBiy-81" value="" style="ellipse;whiteSpace=wrap;html=1;aspect=fixed;" parent="1" vertex="1">
          <mxGeometry x="454" y="760" width="30" height="30" as="geometry" />
        </mxCell>
        <mxCell id="naHqSN1-5s7MIw2LDBiy-82" style="edgeStyle=orthogonalEdgeStyle;rounded=0;orthogonalLoop=1;jettySize=auto;html=1;exitX=0;exitY=0;exitDx=0;exitDy=0;entryX=1;entryY=0;entryDx=0;entryDy=0;" parent="1" source="naHqSN1-5s7MIw2LDBiy-81" target="naHqSN1-5s7MIw2LDBiy-81" edge="1">
          <mxGeometry relative="1" as="geometry">
            <mxPoint x="489" y="735" as="targetPoint" />
            <Array as="points">
              <mxPoint x="458" y="764" />
              <mxPoint x="458" y="740" />
              <mxPoint x="480" y="740" />
            </Array>
          </mxGeometry>
        </mxCell>
        <mxCell id="naHqSN1-5s7MIw2LDBiy-83" value="" style="ellipse;whiteSpace=wrap;html=1;aspect=fixed;" parent="1" vertex="1">
          <mxGeometry x="524" y="760" width="30" height="30" as="geometry" />
        </mxCell>
        <mxCell id="naHqSN1-5s7MIw2LDBiy-84" value="b" style="text;html=1;align=center;verticalAlign=middle;whiteSpace=wrap;rounded=0;" parent="1" vertex="1">
          <mxGeometry x="439" y="715" width="60" height="30" as="geometry" />
        </mxCell>
        <mxCell id="naHqSN1-5s7MIw2LDBiy-86" style="edgeStyle=orthogonalEdgeStyle;rounded=0;orthogonalLoop=1;jettySize=auto;html=1;" parent="1" source="naHqSN1-5s7MIw2LDBiy-85" target="naHqSN1-5s7MIw2LDBiy-74" edge="1">
          <mxGeometry relative="1" as="geometry" />
        </mxCell>
        <mxCell id="naHqSN1-5s7MIw2LDBiy-85" value="" style="ellipse;whiteSpace=wrap;html=1;aspect=fixed;" parent="1" vertex="1">
          <mxGeometry x="285" y="760" width="30" height="30" as="geometry" />
        </mxCell>
        <mxCell id="naHqSN1-5s7MIw2LDBiy-89" value="b" style="text;html=1;align=center;verticalAlign=middle;whiteSpace=wrap;rounded=0;" parent="1" vertex="1">
          <mxGeometry x="175" y="630" width="60" height="30" as="geometry" />
        </mxCell>
        <mxCell id="naHqSN1-5s7MIw2LDBiy-90" value="b" style="text;html=1;align=center;verticalAlign=middle;whiteSpace=wrap;rounded=0;" parent="1" vertex="1">
          <mxGeometry x="170" y="750" width="60" height="30" as="geometry" />
        </mxCell>
        <mxCell id="naHqSN1-5s7MIw2LDBiy-91" value="a" style="text;html=1;align=center;verticalAlign=middle;whiteSpace=wrap;rounded=0;" parent="1" vertex="1">
          <mxGeometry x="405" y="750" width="60" height="30" as="geometry" />
        </mxCell>
        <mxCell id="naHqSN1-5s7MIw2LDBiy-92" value="b" style="text;html=1;align=center;verticalAlign=middle;whiteSpace=wrap;rounded=0;" parent="1" vertex="1">
          <mxGeometry x="235" y="630" width="60" height="30" as="geometry" />
        </mxCell>
        <mxCell id="naHqSN1-5s7MIw2LDBiy-93" value="a" style="text;html=1;align=center;verticalAlign=middle;whiteSpace=wrap;rounded=0;" parent="1" vertex="1">
          <mxGeometry x="297.5" y="750" width="60" height="30" as="geometry" />
        </mxCell>
        <mxCell id="naHqSN1-5s7MIw2LDBiy-94" value="b" style="text;html=1;align=center;verticalAlign=middle;whiteSpace=wrap;rounded=0;" parent="1" vertex="1">
          <mxGeometry x="235" y="750" width="60" height="30" as="geometry" />
        </mxCell>
        <mxCell id="naHqSN1-5s7MIw2LDBiy-149" value="" style="edgeStyle=orthogonalEdgeStyle;rounded=0;orthogonalLoop=1;jettySize=auto;html=1;" parent="1" source="naHqSN1-5s7MIw2LDBiy-151" edge="1">
          <mxGeometry relative="1" as="geometry">
            <mxPoint x="220" y="889.0344827586207" as="targetPoint" />
          </mxGeometry>
        </mxCell>
        <mxCell id="naHqSN1-5s7MIw2LDBiy-150" style="edgeStyle=orthogonalEdgeStyle;rounded=0;orthogonalLoop=1;jettySize=auto;html=1;" parent="1" target="naHqSN1-5s7MIw2LDBiy-151" edge="1">
          <mxGeometry relative="1" as="geometry">
            <mxPoint x="114.99999999999994" y="889" as="targetPoint" />
            <mxPoint x="115" y="890" as="sourcePoint" />
            <Array as="points">
              <mxPoint x="115" y="890" />
            </Array>
          </mxGeometry>
        </mxCell>
        <mxCell id="naHqSN1-5s7MIw2LDBiy-151" value="" style="ellipse;whiteSpace=wrap;html=1;aspect=fixed;" parent="1" vertex="1">
          <mxGeometry x="155" y="874" width="30" height="30" as="geometry" />
        </mxCell>
        <mxCell id="naHqSN1-5s7MIw2LDBiy-157" style="edgeStyle=orthogonalEdgeStyle;rounded=0;orthogonalLoop=1;jettySize=auto;html=1;" parent="1" edge="1">
          <mxGeometry relative="1" as="geometry">
            <mxPoint x="446.2499999999999" y="889.0344827586207" as="sourcePoint" />
            <mxPoint x="480.25" y="889" as="targetPoint" />
          </mxGeometry>
        </mxCell>
        <mxCell id="naHqSN1-5s7MIw2LDBiy-159" style="edgeStyle=orthogonalEdgeStyle;rounded=0;orthogonalLoop=1;jettySize=auto;html=1;" parent="1" source="naHqSN1-5s7MIw2LDBiy-160" target="naHqSN1-5s7MIw2LDBiy-170" edge="1">
          <mxGeometry relative="1" as="geometry">
            <mxPoint x="295" y="889" as="targetPoint" />
          </mxGeometry>
        </mxCell>
        <mxCell id="naHqSN1-5s7MIw2LDBiy-160" value="" style="ellipse;whiteSpace=wrap;html=1;aspect=fixed;" parent="1" vertex="1">
          <mxGeometry x="220" y="874" width="30" height="30" as="geometry" />
        </mxCell>
        <mxCell id="naHqSN1-5s7MIw2LDBiy-161" style="edgeStyle=orthogonalEdgeStyle;rounded=0;orthogonalLoop=1;jettySize=auto;html=1;exitX=0;exitY=0;exitDx=0;exitDy=0;entryX=1;entryY=0;entryDx=0;entryDy=0;" parent="1" source="naHqSN1-5s7MIw2LDBiy-160" target="naHqSN1-5s7MIw2LDBiy-160" edge="1">
          <mxGeometry relative="1" as="geometry">
            <mxPoint x="255" y="849" as="targetPoint" />
            <Array as="points">
              <mxPoint x="224" y="878" />
              <mxPoint x="224" y="854" />
              <mxPoint x="246" y="854" />
            </Array>
          </mxGeometry>
        </mxCell>
        <mxCell id="naHqSN1-5s7MIw2LDBiy-162" value="b" style="text;html=1;align=center;verticalAlign=middle;whiteSpace=wrap;rounded=0;" parent="1" vertex="1">
          <mxGeometry x="205" y="829" width="60" height="30" as="geometry" />
        </mxCell>
        <mxCell id="naHqSN1-5s7MIw2LDBiy-196" value="" style="edgeStyle=orthogonalEdgeStyle;rounded=0;orthogonalLoop=1;jettySize=auto;html=1;" parent="1" source="naHqSN1-5s7MIw2LDBiy-170" target="naHqSN1-5s7MIw2LDBiy-198" edge="1">
          <mxGeometry relative="1" as="geometry">
            <mxPoint x="345.000027210909" y="889.0285714285715" as="targetPoint" />
          </mxGeometry>
        </mxCell>
        <mxCell id="naHqSN1-5s7MIw2LDBiy-170" value="" style="ellipse;whiteSpace=wrap;html=1;aspect=fixed;" parent="1" vertex="1">
          <mxGeometry x="285" y="874" width="30" height="30" as="geometry" />
        </mxCell>
        <mxCell id="naHqSN1-5s7MIw2LDBiy-172" value="b" style="text;html=1;align=center;verticalAlign=middle;whiteSpace=wrap;rounded=0;" parent="1" vertex="1">
          <mxGeometry x="170" y="864" width="60" height="30" as="geometry" />
        </mxCell>
        <mxCell id="naHqSN1-5s7MIw2LDBiy-173" value="a" style="text;html=1;align=center;verticalAlign=middle;whiteSpace=wrap;rounded=0;" parent="1" vertex="1">
          <mxGeometry x="430.75" y="864" width="60" height="30" as="geometry" />
        </mxCell>
        <mxCell id="naHqSN1-5s7MIw2LDBiy-174" value="a" style="text;html=1;align=center;verticalAlign=middle;whiteSpace=wrap;rounded=0;" parent="1" vertex="1">
          <mxGeometry x="299" y="864" width="60" height="30" as="geometry" />
        </mxCell>
        <mxCell id="naHqSN1-5s7MIw2LDBiy-175" value="b" style="text;html=1;align=center;verticalAlign=middle;whiteSpace=wrap;rounded=0;" parent="1" vertex="1">
          <mxGeometry x="235" y="864" width="60" height="30" as="geometry" />
        </mxCell>
        <mxCell id="naHqSN1-5s7MIw2LDBiy-176" style="edgeStyle=orthogonalEdgeStyle;rounded=0;orthogonalLoop=1;jettySize=auto;html=1;" parent="1" source="naHqSN1-5s7MIw2LDBiy-186" target="naHqSN1-5s7MIw2LDBiy-178" edge="1">
          <mxGeometry relative="1" as="geometry">
            <mxPoint x="238.0000000000001" y="969.0344827586207" as="sourcePoint" />
          </mxGeometry>
        </mxCell>
        <mxCell id="naHqSN1-5s7MIw2LDBiy-178" value="" style="ellipse;whiteSpace=wrap;html=1;aspect=fixed;strokeWidth=2;" parent="1" vertex="1">
          <mxGeometry x="279" y="954" width="30" height="30" as="geometry" />
        </mxCell>
        <mxCell id="naHqSN1-5s7MIw2LDBiy-179" value="b" style="text;html=1;align=center;verticalAlign=middle;whiteSpace=wrap;rounded=0;" parent="1" vertex="1">
          <mxGeometry x="233" y="944" width="60" height="30" as="geometry" />
        </mxCell>
        <mxCell id="naHqSN1-5s7MIw2LDBiy-181" style="edgeStyle=orthogonalEdgeStyle;rounded=0;orthogonalLoop=1;jettySize=auto;html=1;" parent="1" edge="1">
          <mxGeometry relative="1" as="geometry">
            <mxPoint x="115" y="969" as="sourcePoint" />
            <mxPoint x="149" y="969" as="targetPoint" />
          </mxGeometry>
        </mxCell>
        <mxCell id="naHqSN1-5s7MIw2LDBiy-182" value="b" style="text;html=1;align=center;verticalAlign=middle;whiteSpace=wrap;rounded=0;" parent="1" vertex="1">
          <mxGeometry x="164" y="944" width="60" height="30" as="geometry" />
        </mxCell>
        <mxCell id="naHqSN1-5s7MIw2LDBiy-183" style="edgeStyle=orthogonalEdgeStyle;rounded=0;orthogonalLoop=1;jettySize=auto;html=1;" parent="1" source="naHqSN1-5s7MIw2LDBiy-184" target="naHqSN1-5s7MIw2LDBiy-186" edge="1">
          <mxGeometry relative="1" as="geometry">
            <mxPoint x="214" y="969" as="targetPoint" />
          </mxGeometry>
        </mxCell>
        <mxCell id="naHqSN1-5s7MIw2LDBiy-184" value="" style="ellipse;whiteSpace=wrap;html=1;aspect=fixed;" parent="1" vertex="1">
          <mxGeometry x="149" y="954" width="30" height="30" as="geometry" />
        </mxCell>
        <mxCell id="naHqSN1-5s7MIw2LDBiy-185" style="edgeStyle=orthogonalEdgeStyle;rounded=0;orthogonalLoop=1;jettySize=auto;html=1;exitX=0;exitY=0;exitDx=0;exitDy=0;entryX=1;entryY=0;entryDx=0;entryDy=0;" parent="1" source="naHqSN1-5s7MIw2LDBiy-184" target="naHqSN1-5s7MIw2LDBiy-184" edge="1">
          <mxGeometry relative="1" as="geometry">
            <mxPoint x="184" y="929" as="targetPoint" />
            <Array as="points">
              <mxPoint x="153" y="958" />
              <mxPoint x="153" y="934" />
              <mxPoint x="175" y="934" />
            </Array>
          </mxGeometry>
        </mxCell>
        <mxCell id="naHqSN1-5s7MIw2LDBiy-186" value="" style="ellipse;whiteSpace=wrap;html=1;aspect=fixed;" parent="1" vertex="1">
          <mxGeometry x="219" y="954" width="30" height="30" as="geometry" />
        </mxCell>
        <mxCell id="naHqSN1-5s7MIw2LDBiy-187" value="b" style="text;html=1;align=center;verticalAlign=middle;whiteSpace=wrap;rounded=0;" parent="1" vertex="1">
          <mxGeometry x="134" y="909" width="60" height="30" as="geometry" />
        </mxCell>
        <mxCell id="naHqSN1-5s7MIw2LDBiy-189" value="a" style="text;html=1;align=center;verticalAlign=middle;whiteSpace=wrap;rounded=0;" parent="1" vertex="1">
          <mxGeometry x="95" y="939" width="60" height="30" as="geometry" />
        </mxCell>
        <mxCell id="naHqSN1-5s7MIw2LDBiy-190" value="..." style="text;html=1;align=center;verticalAlign=middle;whiteSpace=wrap;rounded=0;" parent="1" vertex="1">
          <mxGeometry x="75" y="954" width="60" height="30" as="geometry" />
        </mxCell>
        <mxCell id="naHqSN1-5s7MIw2LDBiy-191" value="..." style="text;html=1;align=center;verticalAlign=middle;whiteSpace=wrap;rounded=0;" parent="1" vertex="1">
          <mxGeometry x="460" y="874" width="60" height="30" as="geometry" />
        </mxCell>
        <mxCell id="naHqSN1-5s7MIw2LDBiy-197" style="edgeStyle=orthogonalEdgeStyle;rounded=0;orthogonalLoop=1;jettySize=auto;html=1;" parent="1" source="naHqSN1-5s7MIw2LDBiy-198" target="naHqSN1-5s7MIw2LDBiy-201" edge="1">
          <mxGeometry relative="1" as="geometry">
            <mxPoint x="413.25" y="889" as="targetPoint" />
          </mxGeometry>
        </mxCell>
        <mxCell id="naHqSN1-5s7MIw2LDBiy-198" value="" style="ellipse;whiteSpace=wrap;html=1;aspect=fixed;" parent="1" vertex="1">
          <mxGeometry x="348.25" y="874" width="30" height="30" as="geometry" />
        </mxCell>
        <mxCell id="naHqSN1-5s7MIw2LDBiy-199" style="edgeStyle=orthogonalEdgeStyle;rounded=0;orthogonalLoop=1;jettySize=auto;html=1;exitX=0;exitY=0;exitDx=0;exitDy=0;entryX=1;entryY=0;entryDx=0;entryDy=0;" parent="1" source="naHqSN1-5s7MIw2LDBiy-198" target="naHqSN1-5s7MIw2LDBiy-198" edge="1">
          <mxGeometry relative="1" as="geometry">
            <mxPoint x="383.25" y="849" as="targetPoint" />
            <Array as="points">
              <mxPoint x="352.25" y="878" />
              <mxPoint x="352.25" y="854" />
              <mxPoint x="374.25" y="854" />
            </Array>
          </mxGeometry>
        </mxCell>
        <mxCell id="naHqSN1-5s7MIw2LDBiy-201" value="" style="ellipse;whiteSpace=wrap;html=1;aspect=fixed;" parent="1" vertex="1">
          <mxGeometry x="415.75" y="874" width="30" height="30" as="geometry" />
        </mxCell>
        <mxCell id="naHqSN1-5s7MIw2LDBiy-202" value="b" style="text;html=1;align=center;verticalAlign=middle;whiteSpace=wrap;rounded=0;" parent="1" vertex="1">
          <mxGeometry x="334.75" y="829" width="60" height="30" as="geometry" />
        </mxCell>
        <mxCell id="naHqSN1-5s7MIw2LDBiy-203" value="b" style="text;html=1;align=center;verticalAlign=middle;whiteSpace=wrap;rounded=0;" parent="1" vertex="1">
          <mxGeometry x="364.75" y="864" width="60" height="30" as="geometry" />
        </mxCell>
        <mxCell id="naHqSN1-5s7MIw2LDBiy-214" value="" style="endArrow=classic;html=1;rounded=0;" parent="1" source="naHqSN1-5s7MIw2LDBiy-204" target="naHqSN1-5s7MIw2LDBiy-211" edge="1">
          <mxGeometry relative="1" as="geometry">
            <mxPoint x="1070" y="150" as="targetPoint" />
            <Array as="points" />
          </mxGeometry>
        </mxCell>
        <mxCell id="naHqSN1-5s7MIw2LDBiy-204" value="S1" style="ellipse;whiteSpace=wrap;html=1;aspect=fixed;" parent="1" vertex="1">
          <mxGeometry x="936" y="180" width="30" height="30" as="geometry" />
        </mxCell>
        <mxCell id="naHqSN1-5s7MIw2LDBiy-220" value="" style="endArrow=classic;html=1;rounded=0;" parent="1" source="naHqSN1-5s7MIw2LDBiy-211" target="naHqSN1-5s7MIw2LDBiy-219" edge="1">
          <mxGeometry relative="1" as="geometry" />
        </mxCell>
        <mxCell id="naHqSN1-5s7MIw2LDBiy-223" value="" style="endArrow=classic;html=1;rounded=0;" parent="1" source="naHqSN1-5s7MIw2LDBiy-211" target="naHqSN1-5s7MIw2LDBiy-222" edge="1">
          <mxGeometry relative="1" as="geometry" />
        </mxCell>
        <mxCell id="naHqSN1-5s7MIw2LDBiy-211" value="S2" style="ellipse;whiteSpace=wrap;html=1;aspect=fixed;" parent="1" vertex="1">
          <mxGeometry x="1080" y="80" width="30" height="30" as="geometry" />
        </mxCell>
        <mxCell id="naHqSN1-5s7MIw2LDBiy-219" value="S4" style="ellipse;whiteSpace=wrap;html=1;aspect=fixed;strokeWidth=2;" parent="1" vertex="1">
          <mxGeometry x="1180" y="140" width="30" height="30" as="geometry" />
        </mxCell>
        <mxCell id="naHqSN1-5s7MIw2LDBiy-244" style="endArrow=classic;html=1;rounded=0;" parent="1" source="naHqSN1-5s7MIw2LDBiy-222" target="naHqSN1-5s7MIw2LDBiy-225" edge="1">
          <mxGeometry relative="1" as="geometry">
            <mxPoint x="1290" y="55" as="targetPoint" />
          </mxGeometry>
        </mxCell>
        <mxCell id="naHqSN1-5s7MIw2LDBiy-222" value="S3" style="ellipse;whiteSpace=wrap;html=1;aspect=fixed;" parent="1" vertex="1">
          <mxGeometry x="1180" y="40" width="30" height="30" as="geometry" />
        </mxCell>
        <mxCell id="naHqSN1-5s7MIw2LDBiy-224" value="" style="endArrow=classic;html=1;rounded=0;" parent="1" source="naHqSN1-5s7MIw2LDBiy-219" target="naHqSN1-5s7MIw2LDBiy-225" edge="1">
          <mxGeometry width="50" height="50" relative="1" as="geometry">
            <mxPoint x="1060" y="410" as="sourcePoint" />
            <mxPoint x="1110" y="360" as="targetPoint" />
          </mxGeometry>
        </mxCell>
        <mxCell id="naHqSN1-5s7MIw2LDBiy-225" value="S5" style="ellipse;whiteSpace=wrap;html=1;aspect=fixed;strokeWidth=2;" parent="1" vertex="1">
          <mxGeometry x="1445" y="160" width="30" height="30" as="geometry" />
        </mxCell>
        <mxCell id="naHqSN1-5s7MIw2LDBiy-227" value="" style="endArrow=classic;html=1;rounded=0;" parent="1" source="naHqSN1-5s7MIw2LDBiy-219" target="naHqSN1-5s7MIw2LDBiy-268" edge="1">
          <mxGeometry width="50" height="50" relative="1" as="geometry">
            <mxPoint x="1219" y="160" as="sourcePoint" />
            <mxPoint x="1290.5285426814226" y="181.05323891311525" as="targetPoint" />
          </mxGeometry>
        </mxCell>
        <mxCell id="naHqSN1-5s7MIw2LDBiy-229" style="edgeStyle=orthogonalEdgeStyle;rounded=0;orthogonalLoop=1;jettySize=auto;html=1;" parent="1" source="naHqSN1-5s7MIw2LDBiy-225" target="naHqSN1-5s7MIw2LDBiy-225" edge="1">
          <mxGeometry relative="1" as="geometry">
            <Array as="points">
              <mxPoint x="1460" y="150" />
            </Array>
          </mxGeometry>
        </mxCell>
        <mxCell id="naHqSN1-5s7MIw2LDBiy-230" value="a" style="text;strokeColor=none;align=center;fillColor=none;html=1;verticalAlign=middle;whiteSpace=wrap;rounded=0;" parent="1" vertex="1">
          <mxGeometry x="1110" y="50" width="60" height="30" as="geometry" />
        </mxCell>
        <mxCell id="naHqSN1-5s7MIw2LDBiy-232" value="a" style="text;strokeColor=none;align=center;fillColor=none;html=1;verticalAlign=middle;whiteSpace=wrap;rounded=0;" parent="1" vertex="1">
          <mxGeometry x="990" y="120" width="60" height="30" as="geometry" />
        </mxCell>
        <mxCell id="naHqSN1-5s7MIw2LDBiy-233" value="a" style="text;strokeColor=none;align=center;fillColor=none;html=1;verticalAlign=middle;whiteSpace=wrap;rounded=0;" parent="1" vertex="1">
          <mxGeometry x="1430" y="130" width="60" height="30" as="geometry" />
        </mxCell>
        <mxCell id="naHqSN1-5s7MIw2LDBiy-234" value="a" style="text;strokeColor=none;align=center;fillColor=none;html=1;verticalAlign=middle;whiteSpace=wrap;rounded=0;" parent="1" vertex="1">
          <mxGeometry x="1323" y="140" width="60" height="30" as="geometry" />
        </mxCell>
        <mxCell id="naHqSN1-5s7MIw2LDBiy-235" value="b" style="text;strokeColor=none;align=center;fillColor=none;html=1;verticalAlign=middle;whiteSpace=wrap;rounded=0;" parent="1" vertex="1">
          <mxGeometry x="1250" y="182" width="60" height="30" as="geometry" />
        </mxCell>
        <mxCell id="naHqSN1-5s7MIw2LDBiy-236" value="b" style="text;strokeColor=none;align=center;fillColor=none;html=1;verticalAlign=middle;whiteSpace=wrap;rounded=0;" parent="1" vertex="1">
          <mxGeometry x="1120" y="100" width="60" height="30" as="geometry" />
        </mxCell>
        <mxCell id="naHqSN1-5s7MIw2LDBiy-237" style="edgeStyle=orthogonalEdgeStyle;rounded=0;orthogonalLoop=1;jettySize=auto;html=1;" parent="1" source="naHqSN1-5s7MIw2LDBiy-222" target="naHqSN1-5s7MIw2LDBiy-222" edge="1">
          <mxGeometry relative="1" as="geometry">
            <Array as="points">
              <mxPoint x="1195" y="30" />
            </Array>
          </mxGeometry>
        </mxCell>
        <mxCell id="naHqSN1-5s7MIw2LDBiy-238" value="a" style="text;strokeColor=none;align=center;fillColor=none;html=1;verticalAlign=middle;whiteSpace=wrap;rounded=0;" parent="1" vertex="1">
          <mxGeometry x="1165" y="10" width="60" height="30" as="geometry" />
        </mxCell>
        <mxCell id="naHqSN1-5s7MIw2LDBiy-245" value="b" style="text;strokeColor=none;align=center;fillColor=none;html=1;verticalAlign=middle;whiteSpace=wrap;rounded=0;" parent="1" vertex="1">
          <mxGeometry x="1338" y="110" width="60" height="30" as="geometry" />
        </mxCell>
        <mxCell id="naHqSN1-5s7MIw2LDBiy-246" value="" style="endArrow=classic;html=1;rounded=0;" parent="1" source="naHqSN1-5s7MIw2LDBiy-204" target="naHqSN1-5s7MIw2LDBiy-249" edge="1">
          <mxGeometry relative="1" as="geometry">
            <mxPoint x="966" y="406" as="sourcePoint" />
            <mxPoint x="1073" y="370" as="targetPoint" />
            <Array as="points" />
          </mxGeometry>
        </mxCell>
        <mxCell id="naHqSN1-5s7MIw2LDBiy-247" value="" style="endArrow=classic;html=1;rounded=0;" parent="1" source="naHqSN1-5s7MIw2LDBiy-249" target="naHqSN1-5s7MIw2LDBiy-250" edge="1">
          <mxGeometry relative="1" as="geometry" />
        </mxCell>
        <mxCell id="naHqSN1-5s7MIw2LDBiy-248" value="" style="endArrow=classic;html=1;rounded=0;" parent="1" source="naHqSN1-5s7MIw2LDBiy-249" target="naHqSN1-5s7MIw2LDBiy-252" edge="1">
          <mxGeometry relative="1" as="geometry" />
        </mxCell>
        <mxCell id="naHqSN1-5s7MIw2LDBiy-249" value="S6" style="ellipse;whiteSpace=wrap;html=1;aspect=fixed;" parent="1" vertex="1">
          <mxGeometry x="1083" y="282" width="30" height="30" as="geometry" />
        </mxCell>
        <mxCell id="naHqSN1-5s7MIw2LDBiy-250" value="S8" style="ellipse;whiteSpace=wrap;html=1;aspect=fixed;strokeWidth=2;" parent="1" vertex="1">
          <mxGeometry x="1278" y="352" width="30" height="30" as="geometry" />
        </mxCell>
        <mxCell id="naHqSN1-5s7MIw2LDBiy-251" style="edgeStyle=orthogonalEdgeStyle;rounded=0;orthogonalLoop=1;jettySize=auto;html=1;" parent="1" source="naHqSN1-5s7MIw2LDBiy-252" target="naHqSN1-5s7MIw2LDBiy-268" edge="1">
          <mxGeometry relative="1" as="geometry" />
        </mxCell>
        <mxCell id="naHqSN1-5s7MIw2LDBiy-252" value="S7" style="ellipse;whiteSpace=wrap;html=1;aspect=fixed;" parent="1" vertex="1">
          <mxGeometry x="1183" y="242" width="30" height="30" as="geometry" />
        </mxCell>
        <mxCell id="naHqSN1-5s7MIw2LDBiy-253" value="" style="endArrow=classic;html=1;rounded=0;" parent="1" source="naHqSN1-5s7MIw2LDBiy-250" target="naHqSN1-5s7MIw2LDBiy-268" edge="1">
          <mxGeometry width="50" height="50" relative="1" as="geometry">
            <mxPoint x="1063" y="612" as="sourcePoint" />
            <mxPoint x="1293.9082811407504" y="322.14037543293375" as="targetPoint" />
          </mxGeometry>
        </mxCell>
        <mxCell id="naHqSN1-5s7MIw2LDBiy-256" value="" style="endArrow=classic;html=1;rounded=0;" parent="1" source="naHqSN1-5s7MIw2LDBiy-250" target="naHqSN1-5s7MIw2LDBiy-225" edge="1">
          <mxGeometry width="50" height="50" relative="1" as="geometry">
            <mxPoint x="1222" y="380" as="sourcePoint" />
            <mxPoint x="1293.5201692190017" y="401.084070920862" as="targetPoint" />
          </mxGeometry>
        </mxCell>
        <mxCell id="naHqSN1-5s7MIw2LDBiy-259" value="b" style="text;strokeColor=none;align=center;fillColor=none;html=1;verticalAlign=middle;whiteSpace=wrap;rounded=0;" parent="1" vertex="1">
          <mxGeometry x="1113" y="252" width="60" height="30" as="geometry" />
        </mxCell>
        <mxCell id="naHqSN1-5s7MIw2LDBiy-261" value="b" style="text;strokeColor=none;align=center;fillColor=none;html=1;verticalAlign=middle;whiteSpace=wrap;rounded=0;" parent="1" vertex="1">
          <mxGeometry x="1010" y="222" width="60" height="30" as="geometry" />
        </mxCell>
        <mxCell id="naHqSN1-5s7MIw2LDBiy-263" value="b" style="text;strokeColor=none;align=center;fillColor=none;html=1;verticalAlign=middle;whiteSpace=wrap;rounded=0;" parent="1" vertex="1">
          <mxGeometry x="1278" y="292" width="60" height="30" as="geometry" />
        </mxCell>
        <mxCell id="naHqSN1-5s7MIw2LDBiy-264" value="a" style="text;strokeColor=none;align=center;fillColor=none;html=1;verticalAlign=middle;whiteSpace=wrap;rounded=0;" parent="1" vertex="1">
          <mxGeometry x="1370" y="222" width="60" height="30" as="geometry" />
        </mxCell>
        <mxCell id="naHqSN1-5s7MIw2LDBiy-265" value="a" style="text;strokeColor=none;align=center;fillColor=none;html=1;verticalAlign=middle;whiteSpace=wrap;rounded=0;" parent="1" vertex="1">
          <mxGeometry x="1158" y="303" width="60" height="30" as="geometry" />
        </mxCell>
        <mxCell id="naHqSN1-5s7MIw2LDBiy-266" style="edgeStyle=orthogonalEdgeStyle;rounded=0;orthogonalLoop=1;jettySize=auto;html=1;" parent="1" source="naHqSN1-5s7MIw2LDBiy-252" target="naHqSN1-5s7MIw2LDBiy-252" edge="1">
          <mxGeometry relative="1" as="geometry">
            <Array as="points">
              <mxPoint x="1198" y="232" />
            </Array>
          </mxGeometry>
        </mxCell>
        <mxCell id="naHqSN1-5s7MIw2LDBiy-267" value="b" style="text;strokeColor=none;align=center;fillColor=none;html=1;verticalAlign=middle;whiteSpace=wrap;rounded=0;" parent="1" vertex="1">
          <mxGeometry x="1168" y="212" width="60" height="30" as="geometry" />
        </mxCell>
        <mxCell id="naHqSN1-5s7MIw2LDBiy-268" value="S9" style="ellipse;whiteSpace=wrap;html=1;aspect=fixed;strokeWidth=2;" parent="1" vertex="1">
          <mxGeometry x="1325" y="242" width="30" height="30" as="geometry" />
        </mxCell>
        <mxCell id="naHqSN1-5s7MIw2LDBiy-269" style="edgeStyle=orthogonalEdgeStyle;rounded=0;orthogonalLoop=1;jettySize=auto;html=1;" parent="1" source="naHqSN1-5s7MIw2LDBiy-268" target="naHqSN1-5s7MIw2LDBiy-268" edge="1">
          <mxGeometry relative="1" as="geometry">
            <Array as="points">
              <mxPoint x="1330" y="232" />
            </Array>
          </mxGeometry>
        </mxCell>
        <mxCell id="naHqSN1-5s7MIw2LDBiy-270" value="b" style="text;strokeColor=none;align=center;fillColor=none;html=1;verticalAlign=middle;whiteSpace=wrap;rounded=0;" parent="1" vertex="1">
          <mxGeometry x="1310" y="212" width="60" height="30" as="geometry" />
        </mxCell>
        <mxCell id="naHqSN1-5s7MIw2LDBiy-271" value="a" style="text;strokeColor=none;align=center;fillColor=none;html=1;verticalAlign=middle;whiteSpace=wrap;rounded=0;" parent="1" vertex="1">
          <mxGeometry x="1218" y="232" width="60" height="30" as="geometry" />
        </mxCell>
        <mxCell id="naHqSN1-5s7MIw2LDBiy-272" value="" style="endArrow=classic;html=1;rounded=0;" parent="1" source="naHqSN1-5s7MIw2LDBiy-273" target="naHqSN1-5s7MIw2LDBiy-276" edge="1">
          <mxGeometry relative="1" as="geometry">
            <mxPoint x="1080" y="570" as="targetPoint" />
            <Array as="points" />
          </mxGeometry>
        </mxCell>
        <mxCell id="naHqSN1-5s7MIw2LDBiy-273" value="S1" style="ellipse;whiteSpace=wrap;html=1;aspect=fixed;" parent="1" vertex="1">
          <mxGeometry x="946" y="600" width="30" height="30" as="geometry" />
        </mxCell>
        <mxCell id="naHqSN1-5s7MIw2LDBiy-274" value="" style="endArrow=classic;html=1;rounded=0;" parent="1" source="naHqSN1-5s7MIw2LDBiy-276" target="naHqSN1-5s7MIw2LDBiy-277" edge="1">
          <mxGeometry relative="1" as="geometry" />
        </mxCell>
        <mxCell id="naHqSN1-5s7MIw2LDBiy-275" value="" style="endArrow=classic;html=1;rounded=0;" parent="1" source="naHqSN1-5s7MIw2LDBiy-276" target="naHqSN1-5s7MIw2LDBiy-279" edge="1">
          <mxGeometry relative="1" as="geometry" />
        </mxCell>
        <mxCell id="naHqSN1-5s7MIw2LDBiy-276" value="S2" style="ellipse;whiteSpace=wrap;html=1;aspect=fixed;" parent="1" vertex="1">
          <mxGeometry x="1090" y="500" width="30" height="30" as="geometry" />
        </mxCell>
        <mxCell id="naHqSN1-5s7MIw2LDBiy-277" value="S4" style="ellipse;whiteSpace=wrap;html=1;aspect=fixed;strokeWidth=2;" parent="1" vertex="1">
          <mxGeometry x="1178" y="595" width="30" height="30" as="geometry" />
        </mxCell>
        <mxCell id="naHqSN1-5s7MIw2LDBiy-278" style="endArrow=classic;html=1;rounded=0;" parent="1" source="naHqSN1-5s7MIw2LDBiy-279" target="naHqSN1-5s7MIw2LDBiy-281" edge="1">
          <mxGeometry relative="1" as="geometry">
            <mxPoint x="1300" y="475" as="targetPoint" />
          </mxGeometry>
        </mxCell>
        <mxCell id="naHqSN1-5s7MIw2LDBiy-279" value="S3" style="ellipse;whiteSpace=wrap;html=1;aspect=fixed;" parent="1" vertex="1">
          <mxGeometry x="1190" y="460" width="30" height="30" as="geometry" />
        </mxCell>
        <mxCell id="naHqSN1-5s7MIw2LDBiy-280" value="" style="endArrow=classic;html=1;rounded=0;" parent="1" source="naHqSN1-5s7MIw2LDBiy-277" target="naHqSN1-5s7MIw2LDBiy-281" edge="1">
          <mxGeometry width="50" height="50" relative="1" as="geometry">
            <mxPoint x="1070" y="830" as="sourcePoint" />
            <mxPoint x="1120" y="780" as="targetPoint" />
          </mxGeometry>
        </mxCell>
        <mxCell id="naHqSN1-5s7MIw2LDBiy-281" value="S5" style="ellipse;whiteSpace=wrap;html=1;aspect=fixed;strokeWidth=2;" parent="1" vertex="1">
          <mxGeometry x="1335" y="565" width="30" height="30" as="geometry" />
        </mxCell>
        <mxCell id="naHqSN1-5s7MIw2LDBiy-282" value="" style="endArrow=classic;html=1;rounded=0;" parent="1" source="naHqSN1-5s7MIw2LDBiy-277" target="naHqSN1-5s7MIw2LDBiy-309" edge="1">
          <mxGeometry width="50" height="50" relative="1" as="geometry">
            <mxPoint x="1229" y="580" as="sourcePoint" />
            <mxPoint x="1300.5285426814226" y="601.0532389131153" as="targetPoint" />
          </mxGeometry>
        </mxCell>
        <mxCell id="naHqSN1-5s7MIw2LDBiy-283" style="edgeStyle=orthogonalEdgeStyle;rounded=0;orthogonalLoop=1;jettySize=auto;html=1;" parent="1" source="naHqSN1-5s7MIw2LDBiy-281" target="naHqSN1-5s7MIw2LDBiy-281" edge="1">
          <mxGeometry relative="1" as="geometry">
            <Array as="points">
              <mxPoint x="1340" y="550" />
            </Array>
          </mxGeometry>
        </mxCell>
        <mxCell id="naHqSN1-5s7MIw2LDBiy-284" value="a" style="text;strokeColor=none;align=center;fillColor=none;html=1;verticalAlign=middle;whiteSpace=wrap;rounded=0;" parent="1" vertex="1">
          <mxGeometry x="1120" y="470" width="60" height="30" as="geometry" />
        </mxCell>
        <mxCell id="naHqSN1-5s7MIw2LDBiy-285" value="a" style="text;strokeColor=none;align=center;fillColor=none;html=1;verticalAlign=middle;whiteSpace=wrap;rounded=0;" parent="1" vertex="1">
          <mxGeometry x="1000" y="540" width="60" height="30" as="geometry" />
        </mxCell>
        <mxCell id="naHqSN1-5s7MIw2LDBiy-286" value="a" style="text;strokeColor=none;align=center;fillColor=none;html=1;verticalAlign=middle;whiteSpace=wrap;rounded=0;" parent="1" vertex="1">
          <mxGeometry x="1320" y="530" width="60" height="30" as="geometry" />
        </mxCell>
        <mxCell id="naHqSN1-5s7MIw2LDBiy-287" value="a" style="text;strokeColor=none;align=center;fillColor=none;html=1;verticalAlign=middle;whiteSpace=wrap;rounded=0;" parent="1" vertex="1">
          <mxGeometry x="1220" y="569" width="60" height="30" as="geometry" />
        </mxCell>
        <mxCell id="naHqSN1-5s7MIw2LDBiy-288" value="b" style="text;strokeColor=none;align=center;fillColor=none;html=1;verticalAlign=middle;whiteSpace=wrap;rounded=0;" parent="1" vertex="1">
          <mxGeometry x="1250" y="622" width="60" height="30" as="geometry" />
        </mxCell>
        <mxCell id="naHqSN1-5s7MIw2LDBiy-289" value="b" style="text;strokeColor=none;align=center;fillColor=none;html=1;verticalAlign=middle;whiteSpace=wrap;rounded=0;" parent="1" vertex="1">
          <mxGeometry x="1130" y="540" width="60" height="30" as="geometry" />
        </mxCell>
        <mxCell id="naHqSN1-5s7MIw2LDBiy-290" style="edgeStyle=orthogonalEdgeStyle;rounded=0;orthogonalLoop=1;jettySize=auto;html=1;" parent="1" source="naHqSN1-5s7MIw2LDBiy-279" target="naHqSN1-5s7MIw2LDBiy-279" edge="1">
          <mxGeometry relative="1" as="geometry">
            <Array as="points">
              <mxPoint x="1205" y="450" />
            </Array>
          </mxGeometry>
        </mxCell>
        <mxCell id="naHqSN1-5s7MIw2LDBiy-291" value="a" style="text;strokeColor=none;align=center;fillColor=none;html=1;verticalAlign=middle;whiteSpace=wrap;rounded=0;" parent="1" vertex="1">
          <mxGeometry x="1175" y="430" width="60" height="30" as="geometry" />
        </mxCell>
        <mxCell id="naHqSN1-5s7MIw2LDBiy-292" value="b" style="text;strokeColor=none;align=center;fillColor=none;html=1;verticalAlign=middle;whiteSpace=wrap;rounded=0;" parent="1" vertex="1">
          <mxGeometry x="1241" y="495" width="60" height="30" as="geometry" />
        </mxCell>
        <mxCell id="naHqSN1-5s7MIw2LDBiy-293" value="" style="endArrow=classic;html=1;rounded=0;" parent="1" source="naHqSN1-5s7MIw2LDBiy-273" target="naHqSN1-5s7MIw2LDBiy-296" edge="1">
          <mxGeometry relative="1" as="geometry">
            <mxPoint x="976" y="826" as="sourcePoint" />
            <mxPoint x="1083" y="790" as="targetPoint" />
            <Array as="points" />
          </mxGeometry>
        </mxCell>
        <mxCell id="naHqSN1-5s7MIw2LDBiy-294" value="" style="endArrow=classic;html=1;rounded=0;" parent="1" source="naHqSN1-5s7MIw2LDBiy-296" target="naHqSN1-5s7MIw2LDBiy-277" edge="1">
          <mxGeometry relative="1" as="geometry">
            <mxPoint x="1288.8820799385715" y="781.9320286958973" as="targetPoint" />
          </mxGeometry>
        </mxCell>
        <mxCell id="naHqSN1-5s7MIw2LDBiy-295" value="" style="endArrow=classic;html=1;rounded=0;" parent="1" source="naHqSN1-5s7MIw2LDBiy-296" target="naHqSN1-5s7MIw2LDBiy-299" edge="1">
          <mxGeometry relative="1" as="geometry" />
        </mxCell>
        <mxCell id="naHqSN1-5s7MIw2LDBiy-296" value="S6" style="ellipse;whiteSpace=wrap;html=1;aspect=fixed;" parent="1" vertex="1">
          <mxGeometry x="1093" y="702" width="30" height="30" as="geometry" />
        </mxCell>
        <mxCell id="naHqSN1-5s7MIw2LDBiy-298" style="endArrow=classic;html=1;rounded=0;" parent="1" source="naHqSN1-5s7MIw2LDBiy-299" target="naHqSN1-5s7MIw2LDBiy-309" edge="1">
          <mxGeometry relative="1" as="geometry" />
        </mxCell>
        <mxCell id="naHqSN1-5s7MIw2LDBiy-299" value="S7" style="ellipse;whiteSpace=wrap;html=1;aspect=fixed;" parent="1" vertex="1">
          <mxGeometry x="1205" y="702" width="30" height="30" as="geometry" />
        </mxCell>
        <mxCell id="naHqSN1-5s7MIw2LDBiy-302" value="b" style="text;strokeColor=none;align=center;fillColor=none;html=1;verticalAlign=middle;whiteSpace=wrap;rounded=0;" parent="1" vertex="1">
          <mxGeometry x="1130" y="692" width="60" height="30" as="geometry" />
        </mxCell>
        <mxCell id="naHqSN1-5s7MIw2LDBiy-303" value="b" style="text;strokeColor=none;align=center;fillColor=none;html=1;verticalAlign=middle;whiteSpace=wrap;rounded=0;" parent="1" vertex="1">
          <mxGeometry x="1020" y="642" width="60" height="30" as="geometry" />
        </mxCell>
        <mxCell id="naHqSN1-5s7MIw2LDBiy-306" value="a" style="text;strokeColor=none;align=center;fillColor=none;html=1;verticalAlign=middle;whiteSpace=wrap;rounded=0;" parent="1" vertex="1">
          <mxGeometry x="1118" y="632" width="60" height="30" as="geometry" />
        </mxCell>
        <mxCell id="naHqSN1-5s7MIw2LDBiy-307" style="edgeStyle=orthogonalEdgeStyle;rounded=0;orthogonalLoop=1;jettySize=auto;html=1;" parent="1" source="naHqSN1-5s7MIw2LDBiy-299" target="naHqSN1-5s7MIw2LDBiy-299" edge="1">
          <mxGeometry relative="1" as="geometry">
            <Array as="points">
              <mxPoint x="1220" y="692" />
            </Array>
          </mxGeometry>
        </mxCell>
        <mxCell id="naHqSN1-5s7MIw2LDBiy-308" value="b" style="text;strokeColor=none;align=center;fillColor=none;html=1;verticalAlign=middle;whiteSpace=wrap;rounded=0;" parent="1" vertex="1">
          <mxGeometry x="1190" y="672" width="60" height="30" as="geometry" />
        </mxCell>
        <mxCell id="naHqSN1-5s7MIw2LDBiy-309" value="S9" style="ellipse;whiteSpace=wrap;html=1;aspect=fixed;strokeWidth=2;" parent="1" vertex="1">
          <mxGeometry x="1335" y="662" width="30" height="30" as="geometry" />
        </mxCell>
        <mxCell id="naHqSN1-5s7MIw2LDBiy-310" style="edgeStyle=orthogonalEdgeStyle;rounded=0;orthogonalLoop=1;jettySize=auto;html=1;" parent="1" source="naHqSN1-5s7MIw2LDBiy-309" target="naHqSN1-5s7MIw2LDBiy-309" edge="1">
          <mxGeometry relative="1" as="geometry">
            <Array as="points">
              <mxPoint x="1340" y="652" />
            </Array>
          </mxGeometry>
        </mxCell>
        <mxCell id="naHqSN1-5s7MIw2LDBiy-311" value="b" style="text;strokeColor=none;align=center;fillColor=none;html=1;verticalAlign=middle;whiteSpace=wrap;rounded=0;" parent="1" vertex="1">
          <mxGeometry x="1320" y="632" width="60" height="30" as="geometry" />
        </mxCell>
        <mxCell id="naHqSN1-5s7MIw2LDBiy-312" value="a" style="text;strokeColor=none;align=center;fillColor=none;html=1;verticalAlign=middle;whiteSpace=wrap;rounded=0;" parent="1" vertex="1">
          <mxGeometry x="1240" y="672" width="60" height="30" as="geometry" />
        </mxCell>
        <mxCell id="i6e55tSJwh2KD1R19L4l-4" value="" style="edgeStyle=orthogonalEdgeStyle;rounded=0;orthogonalLoop=1;jettySize=auto;html=1;" parent="1" source="i6e55tSJwh2KD1R19L4l-1" target="i6e55tSJwh2KD1R19L4l-3" edge="1">
          <mxGeometry relative="1" as="geometry" />
        </mxCell>
        <mxCell id="i6e55tSJwh2KD1R19L4l-1" value="" style="ellipse;whiteSpace=wrap;html=1;aspect=fixed;" parent="1" vertex="1">
          <mxGeometry x="125" y="1220" width="30" height="30" as="geometry" />
        </mxCell>
        <mxCell id="i6e55tSJwh2KD1R19L4l-2" style="edgeStyle=orthogonalEdgeStyle;rounded=0;orthogonalLoop=1;jettySize=auto;html=1;" parent="1" target="i6e55tSJwh2KD1R19L4l-1" edge="1">
          <mxGeometry relative="1" as="geometry">
            <mxPoint x="134" y="1233.7600000000002" as="targetPoint" />
            <mxPoint x="95" y="1235.76" as="sourcePoint" />
            <Array as="points">
              <mxPoint x="116" y="1235" />
              <mxPoint x="116" y="1235" />
            </Array>
          </mxGeometry>
        </mxCell>
        <mxCell id="i6e55tSJwh2KD1R19L4l-5" style="edgeStyle=orthogonalEdgeStyle;rounded=0;orthogonalLoop=1;jettySize=auto;html=1;" parent="1" source="i6e55tSJwh2KD1R19L4l-3" target="i6e55tSJwh2KD1R19L4l-6" edge="1">
          <mxGeometry relative="1" as="geometry">
            <mxPoint x="350" y="1235" as="targetPoint" />
          </mxGeometry>
        </mxCell>
        <mxCell id="i6e55tSJwh2KD1R19L4l-3" value="&lt;p class=&quot;MsoNormal&quot;&gt;&lt;span style=&quot;font-size:14.0pt;mso-bidi-font-size:11.0pt;&lt;br/&gt;font-family:&amp;quot;Times New Roman&amp;quot;,serif;mso-bidi-font-family:&amp;quot;Courier New&amp;quot;&quot;&gt;bb*ab*+ab*b&lt;/span&gt;&lt;/p&gt;" style="whiteSpace=wrap;html=1;" parent="1" vertex="1">
          <mxGeometry x="190" y="1205" width="120" height="60" as="geometry" />
        </mxCell>
        <mxCell id="i6e55tSJwh2KD1R19L4l-6" value="" style="ellipse;whiteSpace=wrap;html=1;aspect=fixed;strokeWidth=2;" parent="1" vertex="1">
          <mxGeometry x="355" y="1220" width="30" height="30" as="geometry" />
        </mxCell>
        <mxCell id="i6e55tSJwh2KD1R19L4l-7" value="&lt;div&gt;&lt;br&gt;&lt;/div&gt;" style="endArrow=classic;html=1;rounded=0;" parent="1" source="i6e55tSJwh2KD1R19L4l-8" target="i6e55tSJwh2KD1R19L4l-11" edge="1">
          <mxGeometry x="-0.3128" y="6" relative="1" as="geometry">
            <mxPoint as="offset" />
          </mxGeometry>
        </mxCell>
        <mxCell id="i6e55tSJwh2KD1R19L4l-14" style="endArrow=classic;html=1;rounded=0;" parent="1" source="i6e55tSJwh2KD1R19L4l-8" target="i6e55tSJwh2KD1R19L4l-13" edge="1">
          <mxGeometry relative="1" as="geometry" />
        </mxCell>
        <mxCell id="i6e55tSJwh2KD1R19L4l-8" value="" style="ellipse;whiteSpace=wrap;html=1;aspect=fixed;" parent="1" vertex="1">
          <mxGeometry x="119" y="1385" width="30" height="30" as="geometry" />
        </mxCell>
        <mxCell id="i6e55tSJwh2KD1R19L4l-9" style="edgeStyle=orthogonalEdgeStyle;rounded=0;orthogonalLoop=1;jettySize=auto;html=1;" parent="1" target="i6e55tSJwh2KD1R19L4l-8" edge="1">
          <mxGeometry relative="1" as="geometry">
            <mxPoint x="134" y="1398.7600000000002" as="targetPoint" />
            <mxPoint x="95" y="1400.76" as="sourcePoint" />
            <Array as="points">
              <mxPoint x="116" y="1400" />
              <mxPoint x="116" y="1400" />
            </Array>
          </mxGeometry>
        </mxCell>
        <mxCell id="i6e55tSJwh2KD1R19L4l-10" style="endArrow=classic;html=1;rounded=0;" parent="1" source="i6e55tSJwh2KD1R19L4l-11" target="i6e55tSJwh2KD1R19L4l-12" edge="1">
          <mxGeometry relative="1" as="geometry">
            <mxPoint x="350" y="1400" as="targetPoint" />
          </mxGeometry>
        </mxCell>
        <mxCell id="i6e55tSJwh2KD1R19L4l-11" value="&lt;p class=&quot;MsoNormal&quot;&gt;&lt;span style=&quot;font-size:14.0pt;mso-bidi-font-size:11.0pt;&lt;br/&gt;font-family:&amp;quot;Times New Roman&amp;quot;,serif;mso-bidi-font-family:&amp;quot;Courier New&amp;quot;&quot;&gt;bb*ab*&amp;nbsp;&lt;/span&gt;&lt;/p&gt;" style="whiteSpace=wrap;html=1;" parent="1" vertex="1">
          <mxGeometry x="190" y="1310" width="120" height="60" as="geometry" />
        </mxCell>
        <mxCell id="i6e55tSJwh2KD1R19L4l-12" value="" style="ellipse;whiteSpace=wrap;html=1;aspect=fixed;strokeWidth=2;" parent="1" vertex="1">
          <mxGeometry x="355" y="1385" width="30" height="30" as="geometry" />
        </mxCell>
        <mxCell id="i6e55tSJwh2KD1R19L4l-15" style="endArrow=classic;html=1;rounded=0;" parent="1" source="i6e55tSJwh2KD1R19L4l-13" target="i6e55tSJwh2KD1R19L4l-12" edge="1">
          <mxGeometry relative="1" as="geometry" />
        </mxCell>
        <mxCell id="i6e55tSJwh2KD1R19L4l-13" value="&lt;p class=&quot;MsoNormal&quot;&gt;&lt;span style=&quot;font-size:14.0pt;mso-bidi-font-size:11.0pt;&lt;br/&gt;font-family:&amp;quot;Times New Roman&amp;quot;,serif;mso-bidi-font-family:&amp;quot;Courier New&amp;quot;&quot;&gt;ab*b&amp;nbsp;&lt;/span&gt;&lt;/p&gt;" style="whiteSpace=wrap;html=1;" parent="1" vertex="1">
          <mxGeometry x="190" y="1420" width="120" height="60" as="geometry" />
        </mxCell>
        <mxCell id="i6e55tSJwh2KD1R19L4l-16" value="&lt;div&gt;&lt;br&gt;&lt;/div&gt;" style="endArrow=classic;html=1;rounded=0;" parent="1" source="i6e55tSJwh2KD1R19L4l-18" target="i6e55tSJwh2KD1R19L4l-25" edge="1">
          <mxGeometry x="-0.3128" y="6" relative="1" as="geometry">
            <mxPoint as="offset" />
            <mxPoint x="192" y="1590" as="targetPoint" />
          </mxGeometry>
        </mxCell>
        <mxCell id="i6e55tSJwh2KD1R19L4l-17" style="endArrow=classic;html=1;rounded=0;" parent="1" source="i6e55tSJwh2KD1R19L4l-18" target="i6e55tSJwh2KD1R19L4l-51" edge="1">
          <mxGeometry relative="1" as="geometry">
            <mxPoint x="190" y="1644.1379310344828" as="targetPoint" />
          </mxGeometry>
        </mxCell>
        <mxCell id="i6e55tSJwh2KD1R19L4l-18" value="" style="ellipse;whiteSpace=wrap;html=1;aspect=fixed;" parent="1" vertex="1">
          <mxGeometry x="119" y="1635" width="30" height="30" as="geometry" />
        </mxCell>
        <mxCell id="i6e55tSJwh2KD1R19L4l-19" style="edgeStyle=orthogonalEdgeStyle;rounded=0;orthogonalLoop=1;jettySize=auto;html=1;" parent="1" target="i6e55tSJwh2KD1R19L4l-18" edge="1">
          <mxGeometry relative="1" as="geometry">
            <mxPoint x="134" y="1618.7600000000002" as="targetPoint" />
            <mxPoint x="80" y="1650" as="sourcePoint" />
            <Array as="points">
              <mxPoint x="95" y="1650" />
            </Array>
          </mxGeometry>
        </mxCell>
        <mxCell id="i6e55tSJwh2KD1R19L4l-22" value="" style="ellipse;whiteSpace=wrap;html=1;aspect=fixed;strokeWidth=2;" parent="1" vertex="1">
          <mxGeometry x="614" y="1690" width="30" height="30" as="geometry" />
        </mxCell>
        <mxCell id="i6e55tSJwh2KD1R19L4l-30" style="edgeStyle=orthogonalEdgeStyle;rounded=0;orthogonalLoop=1;jettySize=auto;html=1;" parent="1" source="i6e55tSJwh2KD1R19L4l-25" target="i6e55tSJwh2KD1R19L4l-29" edge="1">
          <mxGeometry relative="1" as="geometry" />
        </mxCell>
        <mxCell id="i6e55tSJwh2KD1R19L4l-25" value="b" style="rounded=0;whiteSpace=wrap;html=1;" parent="1" vertex="1">
          <mxGeometry x="183" y="1575" width="37" height="30" as="geometry" />
        </mxCell>
        <mxCell id="i6e55tSJwh2KD1R19L4l-32" value="" style="edgeStyle=orthogonalEdgeStyle;rounded=0;orthogonalLoop=1;jettySize=auto;html=1;" parent="1" source="i6e55tSJwh2KD1R19L4l-29" target="i6e55tSJwh2KD1R19L4l-31" edge="1">
          <mxGeometry relative="1" as="geometry" />
        </mxCell>
        <mxCell id="i6e55tSJwh2KD1R19L4l-29" value="" style="ellipse;whiteSpace=wrap;html=1;aspect=fixed;" parent="1" vertex="1">
          <mxGeometry x="248" y="1575" width="30" height="30" as="geometry" />
        </mxCell>
        <mxCell id="i6e55tSJwh2KD1R19L4l-35" style="edgeStyle=orthogonalEdgeStyle;rounded=0;orthogonalLoop=1;jettySize=auto;html=1;" parent="1" source="i6e55tSJwh2KD1R19L4l-31" target="i6e55tSJwh2KD1R19L4l-33" edge="1">
          <mxGeometry relative="1" as="geometry">
            <Array as="points">
              <mxPoint x="330" y="1570" />
              <mxPoint x="330" y="1570" />
            </Array>
          </mxGeometry>
        </mxCell>
        <mxCell id="i6e55tSJwh2KD1R19L4l-37" value="" style="edgeStyle=orthogonalEdgeStyle;rounded=0;orthogonalLoop=1;jettySize=auto;html=1;" parent="1" source="i6e55tSJwh2KD1R19L4l-31" target="i6e55tSJwh2KD1R19L4l-36" edge="1">
          <mxGeometry relative="1" as="geometry" />
        </mxCell>
        <mxCell id="i6e55tSJwh2KD1R19L4l-31" value="" style="ellipse;whiteSpace=wrap;html=1;aspect=fixed;" parent="1" vertex="1">
          <mxGeometry x="310" y="1575" width="30" height="30" as="geometry" />
        </mxCell>
        <mxCell id="i6e55tSJwh2KD1R19L4l-34" style="edgeStyle=orthogonalEdgeStyle;rounded=0;orthogonalLoop=1;jettySize=auto;html=1;" parent="1" source="i6e55tSJwh2KD1R19L4l-33" target="i6e55tSJwh2KD1R19L4l-31" edge="1">
          <mxGeometry relative="1" as="geometry">
            <Array as="points">
              <mxPoint x="320" y="1570" />
              <mxPoint x="320" y="1570" />
            </Array>
          </mxGeometry>
        </mxCell>
        <mxCell id="i6e55tSJwh2KD1R19L4l-33" value="b" style="rounded=0;whiteSpace=wrap;html=1;" parent="1" vertex="1">
          <mxGeometry x="306.5" y="1520" width="37" height="30" as="geometry" />
        </mxCell>
        <mxCell id="i6e55tSJwh2KD1R19L4l-39" style="edgeStyle=orthogonalEdgeStyle;rounded=0;orthogonalLoop=1;jettySize=auto;html=1;" parent="1" source="i6e55tSJwh2KD1R19L4l-36" target="i6e55tSJwh2KD1R19L4l-38" edge="1">
          <mxGeometry relative="1" as="geometry" />
        </mxCell>
        <mxCell id="i6e55tSJwh2KD1R19L4l-36" value="" style="ellipse;whiteSpace=wrap;html=1;aspect=fixed;" parent="1" vertex="1">
          <mxGeometry x="370" y="1575" width="30" height="30" as="geometry" />
        </mxCell>
        <mxCell id="i6e55tSJwh2KD1R19L4l-38" value="a" style="rounded=0;whiteSpace=wrap;html=1;" parent="1" vertex="1">
          <mxGeometry x="428" y="1575" width="37" height="30" as="geometry" />
        </mxCell>
        <mxCell id="i6e55tSJwh2KD1R19L4l-40" style="edgeStyle=orthogonalEdgeStyle;rounded=0;orthogonalLoop=1;jettySize=auto;html=1;" parent="1" source="i6e55tSJwh2KD1R19L4l-38" target="i6e55tSJwh2KD1R19L4l-42" edge="1">
          <mxGeometry relative="1" as="geometry">
            <mxPoint x="465" y="1590" as="sourcePoint" />
          </mxGeometry>
        </mxCell>
        <mxCell id="i6e55tSJwh2KD1R19L4l-41" value="" style="edgeStyle=orthogonalEdgeStyle;rounded=0;orthogonalLoop=1;jettySize=auto;html=1;" parent="1" source="i6e55tSJwh2KD1R19L4l-42" target="i6e55tSJwh2KD1R19L4l-45" edge="1">
          <mxGeometry relative="1" as="geometry" />
        </mxCell>
        <mxCell id="i6e55tSJwh2KD1R19L4l-42" value="" style="ellipse;whiteSpace=wrap;html=1;aspect=fixed;" parent="1" vertex="1">
          <mxGeometry x="493" y="1575" width="30" height="30" as="geometry" />
        </mxCell>
        <mxCell id="i6e55tSJwh2KD1R19L4l-43" style="edgeStyle=orthogonalEdgeStyle;rounded=0;orthogonalLoop=1;jettySize=auto;html=1;" parent="1" source="i6e55tSJwh2KD1R19L4l-45" target="i6e55tSJwh2KD1R19L4l-47" edge="1">
          <mxGeometry relative="1" as="geometry">
            <Array as="points">
              <mxPoint x="575" y="1570" />
              <mxPoint x="575" y="1570" />
            </Array>
          </mxGeometry>
        </mxCell>
        <mxCell id="i6e55tSJwh2KD1R19L4l-45" value="" style="ellipse;whiteSpace=wrap;html=1;aspect=fixed;" parent="1" vertex="1">
          <mxGeometry x="555" y="1575" width="30" height="30" as="geometry" />
        </mxCell>
        <mxCell id="i6e55tSJwh2KD1R19L4l-46" style="edgeStyle=orthogonalEdgeStyle;rounded=0;orthogonalLoop=1;jettySize=auto;html=1;" parent="1" source="i6e55tSJwh2KD1R19L4l-47" target="i6e55tSJwh2KD1R19L4l-45" edge="1">
          <mxGeometry relative="1" as="geometry">
            <Array as="points">
              <mxPoint x="565" y="1570" />
              <mxPoint x="565" y="1570" />
            </Array>
          </mxGeometry>
        </mxCell>
        <mxCell id="i6e55tSJwh2KD1R19L4l-47" value="b" style="rounded=0;whiteSpace=wrap;html=1;" parent="1" vertex="1">
          <mxGeometry x="551.5" y="1520" width="37" height="30" as="geometry" />
        </mxCell>
        <mxCell id="i6e55tSJwh2KD1R19L4l-48" value="" style="endArrow=classic;html=1;rounded=0;" parent="1" source="i6e55tSJwh2KD1R19L4l-45" target="i6e55tSJwh2KD1R19L4l-22" edge="1">
          <mxGeometry width="50" height="50" relative="1" as="geometry">
            <mxPoint x="520" y="1590" as="sourcePoint" />
            <mxPoint x="570" y="1540" as="targetPoint" />
          </mxGeometry>
        </mxCell>
        <mxCell id="i6e55tSJwh2KD1R19L4l-50" style="edgeStyle=orthogonalEdgeStyle;rounded=0;orthogonalLoop=1;jettySize=auto;html=1;" parent="1" source="i6e55tSJwh2KD1R19L4l-51" target="i6e55tSJwh2KD1R19L4l-53" edge="1">
          <mxGeometry relative="1" as="geometry" />
        </mxCell>
        <mxCell id="i6e55tSJwh2KD1R19L4l-51" value="a" style="rounded=0;whiteSpace=wrap;html=1;" parent="1" vertex="1">
          <mxGeometry x="183" y="1690" width="37" height="30" as="geometry" />
        </mxCell>
        <mxCell id="i6e55tSJwh2KD1R19L4l-52" value="" style="edgeStyle=orthogonalEdgeStyle;rounded=0;orthogonalLoop=1;jettySize=auto;html=1;" parent="1" source="i6e55tSJwh2KD1R19L4l-53" target="i6e55tSJwh2KD1R19L4l-56" edge="1">
          <mxGeometry relative="1" as="geometry" />
        </mxCell>
        <mxCell id="i6e55tSJwh2KD1R19L4l-53" value="" style="ellipse;whiteSpace=wrap;html=1;aspect=fixed;" parent="1" vertex="1">
          <mxGeometry x="248" y="1690" width="30" height="30" as="geometry" />
        </mxCell>
        <mxCell id="i6e55tSJwh2KD1R19L4l-54" style="edgeStyle=orthogonalEdgeStyle;rounded=0;orthogonalLoop=1;jettySize=auto;html=1;" parent="1" source="i6e55tSJwh2KD1R19L4l-56" target="i6e55tSJwh2KD1R19L4l-58" edge="1">
          <mxGeometry relative="1" as="geometry">
            <Array as="points">
              <mxPoint x="330" y="1685" />
              <mxPoint x="330" y="1685" />
            </Array>
          </mxGeometry>
        </mxCell>
        <mxCell id="i6e55tSJwh2KD1R19L4l-55" value="" style="edgeStyle=orthogonalEdgeStyle;rounded=0;orthogonalLoop=1;jettySize=auto;html=1;" parent="1" source="i6e55tSJwh2KD1R19L4l-56" target="i6e55tSJwh2KD1R19L4l-60" edge="1">
          <mxGeometry relative="1" as="geometry" />
        </mxCell>
        <mxCell id="i6e55tSJwh2KD1R19L4l-56" value="" style="ellipse;whiteSpace=wrap;html=1;aspect=fixed;" parent="1" vertex="1">
          <mxGeometry x="310" y="1690" width="30" height="30" as="geometry" />
        </mxCell>
        <mxCell id="i6e55tSJwh2KD1R19L4l-57" style="edgeStyle=orthogonalEdgeStyle;rounded=0;orthogonalLoop=1;jettySize=auto;html=1;" parent="1" source="i6e55tSJwh2KD1R19L4l-58" target="i6e55tSJwh2KD1R19L4l-56" edge="1">
          <mxGeometry relative="1" as="geometry">
            <Array as="points">
              <mxPoint x="320" y="1685" />
              <mxPoint x="320" y="1685" />
            </Array>
          </mxGeometry>
        </mxCell>
        <mxCell id="i6e55tSJwh2KD1R19L4l-58" value="b" style="rounded=0;whiteSpace=wrap;html=1;" parent="1" vertex="1">
          <mxGeometry x="306.5" y="1635" width="37" height="30" as="geometry" />
        </mxCell>
        <mxCell id="i6e55tSJwh2KD1R19L4l-59" style="edgeStyle=orthogonalEdgeStyle;rounded=0;orthogonalLoop=1;jettySize=auto;html=1;" parent="1" source="i6e55tSJwh2KD1R19L4l-60" target="i6e55tSJwh2KD1R19L4l-61" edge="1">
          <mxGeometry relative="1" as="geometry" />
        </mxCell>
        <mxCell id="i6e55tSJwh2KD1R19L4l-60" value="" style="ellipse;whiteSpace=wrap;html=1;aspect=fixed;" parent="1" vertex="1">
          <mxGeometry x="370" y="1690" width="30" height="30" as="geometry" />
        </mxCell>
        <mxCell id="i6e55tSJwh2KD1R19L4l-62" style="edgeStyle=orthogonalEdgeStyle;rounded=0;orthogonalLoop=1;jettySize=auto;html=1;" parent="1" source="i6e55tSJwh2KD1R19L4l-61" target="i6e55tSJwh2KD1R19L4l-22" edge="1">
          <mxGeometry relative="1" as="geometry" />
        </mxCell>
        <mxCell id="i6e55tSJwh2KD1R19L4l-61" value="b" style="rounded=0;whiteSpace=wrap;html=1;" parent="1" vertex="1">
          <mxGeometry x="428" y="1690" width="37" height="30" as="geometry" />
        </mxCell>
        <mxCell id="i6e55tSJwh2KD1R19L4l-63" value="&lt;div&gt;&lt;br&gt;&lt;/div&gt;" style="endArrow=classic;html=1;rounded=0;" parent="1" source="i6e55tSJwh2KD1R19L4l-65" target="i6e55tSJwh2KD1R19L4l-71" edge="1">
          <mxGeometry x="-0.3128" y="6" relative="1" as="geometry">
            <mxPoint as="offset" />
            <mxPoint x="184.625" y="1845" as="targetPoint" />
          </mxGeometry>
        </mxCell>
        <mxCell id="i6e55tSJwh2KD1R19L4l-64" style="endArrow=classic;html=1;rounded=0;" parent="1" source="i6e55tSJwh2KD1R19L4l-65" target="i6e55tSJwh2KD1R19L4l-91" edge="1">
          <mxGeometry relative="1" as="geometry">
            <mxPoint x="183.09090909090907" y="1930" as="targetPoint" />
          </mxGeometry>
        </mxCell>
        <mxCell id="i6e55tSJwh2KD1R19L4l-65" value="0" style="ellipse;whiteSpace=wrap;html=1;aspect=fixed;" parent="1" vertex="1">
          <mxGeometry x="119" y="1875" width="30" height="30" as="geometry" />
        </mxCell>
        <mxCell id="i6e55tSJwh2KD1R19L4l-66" style="edgeStyle=orthogonalEdgeStyle;rounded=0;orthogonalLoop=1;jettySize=auto;html=1;" parent="1" target="i6e55tSJwh2KD1R19L4l-65" edge="1">
          <mxGeometry relative="1" as="geometry">
            <mxPoint x="134" y="1858.7600000000002" as="targetPoint" />
            <mxPoint x="80" y="1890" as="sourcePoint" />
            <Array as="points">
              <mxPoint x="95" y="1890" />
            </Array>
          </mxGeometry>
        </mxCell>
        <mxCell id="i6e55tSJwh2KD1R19L4l-67" value="9" style="ellipse;whiteSpace=wrap;html=1;aspect=fixed;strokeWidth=2;" parent="1" vertex="1">
          <mxGeometry x="554" y="1930" width="30" height="30" as="geometry" />
        </mxCell>
        <mxCell id="i6e55tSJwh2KD1R19L4l-70" value="" style="edgeStyle=orthogonalEdgeStyle;rounded=0;orthogonalLoop=1;jettySize=auto;html=1;" parent="1" source="i6e55tSJwh2KD1R19L4l-71" target="i6e55tSJwh2KD1R19L4l-74" edge="1">
          <mxGeometry relative="1" as="geometry" />
        </mxCell>
        <mxCell id="i6e55tSJwh2KD1R19L4l-71" value="1" style="ellipse;whiteSpace=wrap;html=1;aspect=fixed;" parent="1" vertex="1">
          <mxGeometry x="188" y="1815" width="30" height="30" as="geometry" />
        </mxCell>
        <mxCell id="i6e55tSJwh2KD1R19L4l-73" value="" style="edgeStyle=orthogonalEdgeStyle;rounded=0;orthogonalLoop=1;jettySize=auto;html=1;" parent="1" source="i6e55tSJwh2KD1R19L4l-74" target="i6e55tSJwh2KD1R19L4l-78" edge="1">
          <mxGeometry relative="1" as="geometry" />
        </mxCell>
        <mxCell id="i6e55tSJwh2KD1R19L4l-74" value="2" style="ellipse;whiteSpace=wrap;html=1;aspect=fixed;" parent="1" vertex="1">
          <mxGeometry x="250" y="1815" width="30" height="30" as="geometry" />
        </mxCell>
        <mxCell id="i6e55tSJwh2KD1R19L4l-77" style="edgeStyle=orthogonalEdgeStyle;rounded=0;orthogonalLoop=1;jettySize=auto;html=1;" parent="1" source="i6e55tSJwh2KD1R19L4l-78" target="i6e55tSJwh2KD1R19L4l-82" edge="1">
          <mxGeometry relative="1" as="geometry">
            <mxPoint x="368" y="1830.034482758621" as="targetPoint" />
          </mxGeometry>
        </mxCell>
        <mxCell id="i6e55tSJwh2KD1R19L4l-78" value="3" style="ellipse;whiteSpace=wrap;html=1;aspect=fixed;" parent="1" vertex="1">
          <mxGeometry x="310" y="1815" width="30" height="30" as="geometry" />
        </mxCell>
        <mxCell id="i6e55tSJwh2KD1R19L4l-81" value="" style="edgeStyle=orthogonalEdgeStyle;rounded=0;orthogonalLoop=1;jettySize=auto;html=1;" parent="1" source="i6e55tSJwh2KD1R19L4l-82" target="i6e55tSJwh2KD1R19L4l-112" edge="1">
          <mxGeometry relative="1" as="geometry">
            <mxPoint x="440.00003963540723" y="1830.034482758621" as="targetPoint" />
          </mxGeometry>
        </mxCell>
        <mxCell id="i6e55tSJwh2KD1R19L4l-82" value="4" style="ellipse;whiteSpace=wrap;html=1;aspect=fixed;" parent="1" vertex="1">
          <mxGeometry x="378" y="1815" width="30" height="30" as="geometry" />
        </mxCell>
        <mxCell id="i6e55tSJwh2KD1R19L4l-87" value="" style="endArrow=classic;html=1;rounded=0;" parent="1" source="i6e55tSJwh2KD1R19L4l-112" target="i6e55tSJwh2KD1R19L4l-67" edge="1">
          <mxGeometry width="50" height="50" relative="1" as="geometry">
            <mxPoint x="516.8170551253163" y="1843.36142804562" as="sourcePoint" />
            <mxPoint x="510" y="1780" as="targetPoint" />
          </mxGeometry>
        </mxCell>
        <mxCell id="i6e55tSJwh2KD1R19L4l-90" value="" style="edgeStyle=orthogonalEdgeStyle;rounded=0;orthogonalLoop=1;jettySize=auto;html=1;" parent="1" source="i6e55tSJwh2KD1R19L4l-91" target="i6e55tSJwh2KD1R19L4l-94" edge="1">
          <mxGeometry relative="1" as="geometry" />
        </mxCell>
        <mxCell id="i6e55tSJwh2KD1R19L4l-91" value="6" style="ellipse;whiteSpace=wrap;html=1;aspect=fixed;" parent="1" vertex="1">
          <mxGeometry x="188" y="1930" width="30" height="30" as="geometry" />
        </mxCell>
        <mxCell id="i6e55tSJwh2KD1R19L4l-93" value="" style="edgeStyle=orthogonalEdgeStyle;rounded=0;orthogonalLoop=1;jettySize=auto;html=1;" parent="1" source="i6e55tSJwh2KD1R19L4l-94" target="i6e55tSJwh2KD1R19L4l-98" edge="1">
          <mxGeometry relative="1" as="geometry" />
        </mxCell>
        <mxCell id="i6e55tSJwh2KD1R19L4l-94" value="7" style="ellipse;whiteSpace=wrap;html=1;aspect=fixed;" parent="1" vertex="1">
          <mxGeometry x="250" y="1930" width="30" height="30" as="geometry" />
        </mxCell>
        <mxCell id="i6e55tSJwh2KD1R19L4l-98" value="8" style="ellipse;whiteSpace=wrap;html=1;aspect=fixed;" parent="1" vertex="1">
          <mxGeometry x="310" y="1930" width="30" height="30" as="geometry" />
        </mxCell>
        <mxCell id="i6e55tSJwh2KD1R19L4l-99" style="edgeStyle=orthogonalEdgeStyle;rounded=0;orthogonalLoop=1;jettySize=auto;html=1;" parent="1" source="i6e55tSJwh2KD1R19L4l-98" target="i6e55tSJwh2KD1R19L4l-67" edge="1">
          <mxGeometry relative="1" as="geometry">
            <mxPoint x="405" y="1945" as="sourcePoint" />
          </mxGeometry>
        </mxCell>
        <mxCell id="i6e55tSJwh2KD1R19L4l-101" value="b" style="text;html=1;align=center;verticalAlign=middle;whiteSpace=wrap;rounded=0;" parent="1" vertex="1">
          <mxGeometry x="139" y="1845" width="31" height="30" as="geometry" />
        </mxCell>
        <mxCell id="i6e55tSJwh2KD1R19L4l-102" value="a" style="text;html=1;align=center;verticalAlign=middle;whiteSpace=wrap;rounded=0;" parent="1" vertex="1">
          <mxGeometry x="140" y="1900" width="31" height="30" as="geometry" />
        </mxCell>
        <mxCell id="i6e55tSJwh2KD1R19L4l-104" value="e&lt;div&gt;&lt;br&gt;&lt;/div&gt;" style="text;html=1;align=center;verticalAlign=middle;whiteSpace=wrap;rounded=0;" parent="1" vertex="1">
          <mxGeometry x="217" y="1810" width="31" height="30" as="geometry" />
        </mxCell>
        <mxCell id="i6e55tSJwh2KD1R19L4l-105" value="e&lt;div&gt;&lt;br&gt;&lt;/div&gt;" style="text;html=1;align=center;verticalAlign=middle;whiteSpace=wrap;rounded=0;" parent="1" vertex="1">
          <mxGeometry x="215.5" y="1930" width="31" height="30" as="geometry" />
        </mxCell>
        <mxCell id="i6e55tSJwh2KD1R19L4l-106" value="e&lt;div&gt;&lt;br&gt;&lt;/div&gt;" style="text;html=1;align=center;verticalAlign=middle;whiteSpace=wrap;rounded=0;" parent="1" vertex="1">
          <mxGeometry x="280" y="1810" width="31" height="30" as="geometry" />
        </mxCell>
        <mxCell id="i6e55tSJwh2KD1R19L4l-107" value="e&lt;div&gt;&lt;br&gt;&lt;/div&gt;" style="text;html=1;align=center;verticalAlign=middle;whiteSpace=wrap;rounded=0;" parent="1" vertex="1">
          <mxGeometry x="275.5" y="1930" width="31" height="30" as="geometry" />
        </mxCell>
        <mxCell id="i6e55tSJwh2KD1R19L4l-108" style="edgeStyle=orthogonalEdgeStyle;rounded=0;orthogonalLoop=1;jettySize=auto;html=1;" parent="1" source="i6e55tSJwh2KD1R19L4l-74" target="i6e55tSJwh2KD1R19L4l-74" edge="1">
          <mxGeometry relative="1" as="geometry">
            <Array as="points">
              <mxPoint x="270" y="1800" />
            </Array>
          </mxGeometry>
        </mxCell>
        <mxCell id="i6e55tSJwh2KD1R19L4l-109" value="b" style="text;html=1;align=center;verticalAlign=middle;whiteSpace=wrap;rounded=0;" parent="1" vertex="1">
          <mxGeometry x="249" y="1780" width="31" height="30" as="geometry" />
        </mxCell>
        <mxCell id="i6e55tSJwh2KD1R19L4l-110" style="edgeStyle=orthogonalEdgeStyle;rounded=0;orthogonalLoop=1;jettySize=auto;html=1;" parent="1" source="i6e55tSJwh2KD1R19L4l-94" target="i6e55tSJwh2KD1R19L4l-94" edge="1">
          <mxGeometry relative="1" as="geometry">
            <Array as="points">
              <mxPoint x="260" y="1910" />
            </Array>
          </mxGeometry>
        </mxCell>
        <mxCell id="i6e55tSJwh2KD1R19L4l-111" value="&lt;div&gt;&lt;br&gt;&lt;/div&gt;b" style="text;html=1;align=center;verticalAlign=middle;whiteSpace=wrap;rounded=0;" parent="1" vertex="1">
          <mxGeometry x="250" y="1880" width="31" height="30" as="geometry" />
        </mxCell>
        <mxCell id="i6e55tSJwh2KD1R19L4l-112" value="5" style="ellipse;whiteSpace=wrap;html=1;aspect=fixed;" parent="1" vertex="1">
          <mxGeometry x="440" y="1815" width="30" height="30" as="geometry" />
        </mxCell>
        <mxCell id="i6e55tSJwh2KD1R19L4l-113" style="edgeStyle=orthogonalEdgeStyle;rounded=0;orthogonalLoop=1;jettySize=auto;html=1;" parent="1" source="i6e55tSJwh2KD1R19L4l-112" target="i6e55tSJwh2KD1R19L4l-112" edge="1">
          <mxGeometry relative="1" as="geometry">
            <Array as="points">
              <mxPoint x="460" y="1800" />
            </Array>
          </mxGeometry>
        </mxCell>
        <mxCell id="i6e55tSJwh2KD1R19L4l-114" value="b" style="text;html=1;align=center;verticalAlign=middle;whiteSpace=wrap;rounded=0;" parent="1" vertex="1">
          <mxGeometry x="439" y="1780" width="31" height="30" as="geometry" />
        </mxCell>
        <mxCell id="i6e55tSJwh2KD1R19L4l-115" value="a&lt;div&gt;&lt;br&gt;&lt;/div&gt;" style="text;html=1;align=center;verticalAlign=middle;whiteSpace=wrap;rounded=0;" parent="1" vertex="1">
          <mxGeometry x="340" y="1810" width="31" height="30" as="geometry" />
        </mxCell>
        <mxCell id="i6e55tSJwh2KD1R19L4l-116" value="e&lt;div&gt;&lt;br&gt;&lt;/div&gt;" style="text;html=1;align=center;verticalAlign=middle;whiteSpace=wrap;rounded=0;" parent="1" vertex="1">
          <mxGeometry x="408.76" y="1810" width="31" height="30" as="geometry" />
        </mxCell>
        <mxCell id="i6e55tSJwh2KD1R19L4l-117" value="e&lt;div&gt;&lt;br&gt;&lt;/div&gt;" style="text;html=1;align=center;verticalAlign=middle;whiteSpace=wrap;rounded=0;" parent="1" vertex="1">
          <mxGeometry x="484" y="1850" width="31" height="30" as="geometry" />
        </mxCell>
        <mxCell id="i6e55tSJwh2KD1R19L4l-118" value="b" style="text;html=1;align=center;verticalAlign=middle;whiteSpace=wrap;rounded=0;" parent="1" vertex="1">
          <mxGeometry x="339" y="1920" width="31" height="30" as="geometry" />
        </mxCell>
        <mxCell id="i6e55tSJwh2KD1R19L4l-119" value="&lt;div&gt;&lt;br&gt;&lt;/div&gt;" style="endArrow=classic;html=1;rounded=0;" parent="1" source="i6e55tSJwh2KD1R19L4l-121" target="i6e55tSJwh2KD1R19L4l-126" edge="1">
          <mxGeometry x="-0.3128" y="6" relative="1" as="geometry">
            <mxPoint as="offset" />
            <mxPoint x="201.70455887454676" y="2089.869802925153" as="targetPoint" />
          </mxGeometry>
        </mxCell>
        <mxCell id="i6e55tSJwh2KD1R19L4l-120" style="endArrow=classic;html=1;rounded=0;" parent="1" source="i6e55tSJwh2KD1R19L4l-121" target="i6e55tSJwh2KD1R19L4l-130" edge="1">
          <mxGeometry relative="1" as="geometry">
            <mxPoint x="201.26476974462406" y="2185.6573895054285" as="targetPoint" />
          </mxGeometry>
        </mxCell>
        <mxCell id="i6e55tSJwh2KD1R19L4l-121" value="" style="ellipse;whiteSpace=wrap;html=1;aspect=fixed;" parent="1" vertex="1">
          <mxGeometry x="129" y="2125" width="30" height="30" as="geometry" />
        </mxCell>
        <mxCell id="i6e55tSJwh2KD1R19L4l-122" style="edgeStyle=orthogonalEdgeStyle;rounded=0;orthogonalLoop=1;jettySize=auto;html=1;" parent="1" target="i6e55tSJwh2KD1R19L4l-121" edge="1">
          <mxGeometry relative="1" as="geometry">
            <mxPoint x="144" y="2108.76" as="targetPoint" />
            <mxPoint x="90" y="2140" as="sourcePoint" />
            <Array as="points">
              <mxPoint x="105" y="2140" />
            </Array>
          </mxGeometry>
        </mxCell>
        <mxCell id="i6e55tSJwh2KD1R19L4l-126" value="" style="ellipse;whiteSpace=wrap;html=1;aspect=fixed;" parent="1" vertex="1">
          <mxGeometry x="199" y="2065" width="30" height="30" as="geometry" />
        </mxCell>
        <mxCell id="i6e55tSJwh2KD1R19L4l-150" value="" style="edgeStyle=orthogonalEdgeStyle;rounded=0;orthogonalLoop=1;jettySize=auto;html=1;" parent="1" source="i6e55tSJwh2KD1R19L4l-130" target="i6e55tSJwh2KD1R19L4l-149" edge="1">
          <mxGeometry relative="1" as="geometry" />
        </mxCell>
        <mxCell id="i6e55tSJwh2KD1R19L4l-130" value="" style="ellipse;whiteSpace=wrap;html=1;aspect=fixed;" parent="1" vertex="1">
          <mxGeometry x="200" y="2180" width="30" height="30" as="geometry" />
        </mxCell>
        <mxCell id="i6e55tSJwh2KD1R19L4l-131" value="b" style="text;html=1;align=center;verticalAlign=middle;whiteSpace=wrap;rounded=0;" parent="1" vertex="1">
          <mxGeometry x="149" y="2095" width="31" height="30" as="geometry" />
        </mxCell>
        <mxCell id="i6e55tSJwh2KD1R19L4l-132" value="a" style="text;html=1;align=center;verticalAlign=middle;whiteSpace=wrap;rounded=0;" parent="1" vertex="1">
          <mxGeometry x="150" y="2150" width="31" height="30" as="geometry" />
        </mxCell>
        <mxCell id="i6e55tSJwh2KD1R19L4l-135" value="&lt;div&gt;a&lt;/div&gt;" style="text;html=1;align=center;verticalAlign=middle;whiteSpace=wrap;rounded=0;" parent="1" vertex="1">
          <mxGeometry x="247" y="2050" width="31" height="30" as="geometry" />
        </mxCell>
        <mxCell id="i6e55tSJwh2KD1R19L4l-136" value="&lt;div&gt;b&lt;/div&gt;&lt;div&gt;&lt;br&gt;&lt;/div&gt;" style="text;html=1;align=center;verticalAlign=middle;whiteSpace=wrap;rounded=0;" parent="1" vertex="1">
          <mxGeometry x="249" y="2180" width="31" height="30" as="geometry" />
        </mxCell>
        <mxCell id="i6e55tSJwh2KD1R19L4l-137" style="edgeStyle=orthogonalEdgeStyle;rounded=0;orthogonalLoop=1;jettySize=auto;html=1;" parent="1" source="i6e55tSJwh2KD1R19L4l-126" target="i6e55tSJwh2KD1R19L4l-126" edge="1">
          <mxGeometry relative="1" as="geometry">
            <Array as="points">
              <mxPoint x="219" y="2050" />
            </Array>
          </mxGeometry>
        </mxCell>
        <mxCell id="i6e55tSJwh2KD1R19L4l-138" value="b" style="text;html=1;align=center;verticalAlign=middle;whiteSpace=wrap;rounded=0;" parent="1" vertex="1">
          <mxGeometry x="198" y="2030" width="31" height="30" as="geometry" />
        </mxCell>
        <mxCell id="i6e55tSJwh2KD1R19L4l-139" style="edgeStyle=orthogonalEdgeStyle;rounded=0;orthogonalLoop=1;jettySize=auto;html=1;" parent="1" source="i6e55tSJwh2KD1R19L4l-130" target="i6e55tSJwh2KD1R19L4l-130" edge="1">
          <mxGeometry relative="1" as="geometry">
            <Array as="points">
              <mxPoint x="210" y="2160" />
            </Array>
          </mxGeometry>
        </mxCell>
        <mxCell id="i6e55tSJwh2KD1R19L4l-140" value="&lt;div&gt;&lt;br&gt;&lt;/div&gt;b" style="text;html=1;align=center;verticalAlign=middle;whiteSpace=wrap;rounded=0;" parent="1" vertex="1">
          <mxGeometry x="200" y="2130" width="31" height="30" as="geometry" />
        </mxCell>
        <mxCell id="i6e55tSJwh2KD1R19L4l-142" value="" style="ellipse;whiteSpace=wrap;html=1;aspect=fixed;strokeWidth=2;" parent="1" vertex="1">
          <mxGeometry x="304.75" y="2065" width="30" height="30" as="geometry" />
        </mxCell>
        <mxCell id="i6e55tSJwh2KD1R19L4l-143" value="" style="endArrow=classic;html=1;rounded=0;" parent="1" source="i6e55tSJwh2KD1R19L4l-126" target="i6e55tSJwh2KD1R19L4l-142" edge="1">
          <mxGeometry width="50" height="50" relative="1" as="geometry">
            <mxPoint x="330" y="2160" as="sourcePoint" />
            <mxPoint x="380" y="2110" as="targetPoint" />
          </mxGeometry>
        </mxCell>
        <mxCell id="i6e55tSJwh2KD1R19L4l-145" style="edgeStyle=orthogonalEdgeStyle;rounded=0;orthogonalLoop=1;jettySize=auto;html=1;" parent="1" source="i6e55tSJwh2KD1R19L4l-142" target="i6e55tSJwh2KD1R19L4l-142" edge="1">
          <mxGeometry relative="1" as="geometry">
            <Array as="points">
              <mxPoint x="320" y="2050" />
            </Array>
          </mxGeometry>
        </mxCell>
        <mxCell id="i6e55tSJwh2KD1R19L4l-146" value="b" style="text;html=1;align=center;verticalAlign=middle;whiteSpace=wrap;rounded=0;" parent="1" vertex="1">
          <mxGeometry x="303.75" y="2030" width="31" height="30" as="geometry" />
        </mxCell>
        <mxCell id="i6e55tSJwh2KD1R19L4l-149" value="" style="ellipse;whiteSpace=wrap;html=1;aspect=fixed;strokeWidth=2;" parent="1" vertex="1">
          <mxGeometry x="303.75" y="2180" width="30" height="30" as="geometry" />
        </mxCell>
        <mxCell id="nGoUOX4LtskV6R6v_krh-1" style="edgeStyle=orthogonalEdgeStyle;rounded=0;orthogonalLoop=1;jettySize=auto;html=1;" parent="1" source="FofKF9fw0fsyuF1-mD6l-10" target="FofKF9fw0fsyuF1-mD6l-13" edge="1">
          <mxGeometry relative="1" as="geometry">
            <mxPoint x="249" y="310" as="sourcePoint" />
            <mxPoint x="321" y="310" as="targetPoint" />
            <Array as="points">
              <mxPoint x="280" y="310" />
              <mxPoint x="280" y="310" />
            </Array>
          </mxGeometry>
        </mxCell>
        <mxCell id="nGoUOX4LtskV6R6v_krh-2" value="\" style="text;html=1;align=center;verticalAlign=middle;whiteSpace=wrap;rounded=0;" parent="1" vertex="1">
          <mxGeometry x="255" y="303" width="30" height="30" as="geometry" />
        </mxCell>
        <mxCell id="nGoUOX4LtskV6R6v_krh-5" value="\" style="text;html=1;align=center;verticalAlign=middle;whiteSpace=wrap;rounded=0;" parent="1" vertex="1">
          <mxGeometry x="293" y="182" width="30" height="30" as="geometry" />
        </mxCell>
        <mxCell id="nGoUOX4LtskV6R6v_krh-7" value="\" style="text;html=1;align=center;verticalAlign=middle;whiteSpace=wrap;rounded=0;" parent="1" vertex="1">
          <mxGeometry x="293" y="243" width="30" height="30" as="geometry" />
        </mxCell>
        <mxCell id="nGoUOX4LtskV6R6v_krh-8" value="&lt;div&gt;&lt;br&gt;&lt;/div&gt;" style="endArrow=classic;html=1;rounded=0;" parent="1" source="nGoUOX4LtskV6R6v_krh-10" target="nGoUOX4LtskV6R6v_krh-16" edge="1">
          <mxGeometry x="-0.3128" y="6" relative="1" as="geometry">
            <mxPoint as="offset" />
            <mxPoint x="991.7009089723908" y="1849.8656242554498" as="targetPoint" />
          </mxGeometry>
        </mxCell>
        <mxCell id="nGoUOX4LtskV6R6v_krh-9" style="endArrow=classic;html=1;rounded=0;" parent="1" source="nGoUOX4LtskV6R6v_krh-10" target="nGoUOX4LtskV6R6v_krh-25" edge="1">
          <mxGeometry relative="1" as="geometry">
            <mxPoint x="991.2784386342757" y="1945.6402457751306" as="targetPoint" />
          </mxGeometry>
        </mxCell>
        <mxCell id="nGoUOX4LtskV6R6v_krh-10" value="" style="ellipse;whiteSpace=wrap;html=1;aspect=fixed;" parent="1" vertex="1">
          <mxGeometry x="919" y="1885" width="30" height="30" as="geometry" />
        </mxCell>
        <mxCell id="nGoUOX4LtskV6R6v_krh-11" style="edgeStyle=orthogonalEdgeStyle;rounded=0;orthogonalLoop=1;jettySize=auto;html=1;" parent="1" target="nGoUOX4LtskV6R6v_krh-10" edge="1">
          <mxGeometry relative="1" as="geometry">
            <mxPoint x="934" y="1868.7600000000002" as="targetPoint" />
            <mxPoint x="880" y="1900" as="sourcePoint" />
            <Array as="points">
              <mxPoint x="895" y="1900" />
            </Array>
          </mxGeometry>
        </mxCell>
        <mxCell id="nGoUOX4LtskV6R6v_krh-12" value="" style="ellipse;whiteSpace=wrap;html=1;aspect=fixed;strokeWidth=2;" parent="1" vertex="1">
          <mxGeometry x="1150" y="1940" width="30" height="30" as="geometry" />
        </mxCell>
        <mxCell id="nGoUOX4LtskV6R6v_krh-15" value="" style="edgeStyle=orthogonalEdgeStyle;rounded=0;orthogonalLoop=1;jettySize=auto;html=1;" parent="1" source="nGoUOX4LtskV6R6v_krh-16" edge="1">
          <mxGeometry relative="1" as="geometry">
            <mxPoint x="1050" y="1840" as="targetPoint" />
          </mxGeometry>
        </mxCell>
        <mxCell id="nGoUOX4LtskV6R6v_krh-16" value="" style="ellipse;whiteSpace=wrap;html=1;aspect=fixed;" parent="1" vertex="1">
          <mxGeometry x="990" y="1825" width="30" height="30" as="geometry" />
        </mxCell>
        <mxCell id="nGoUOX4LtskV6R6v_krh-21" value="" style="endArrow=classic;html=1;rounded=0;" parent="1" source="nGoUOX4LtskV6R6v_krh-38" target="nGoUOX4LtskV6R6v_krh-12" edge="1">
          <mxGeometry width="50" height="50" relative="1" as="geometry">
            <mxPoint x="1256.8170551253163" y="1853.36142804562" as="sourcePoint" />
            <mxPoint x="1250" y="1790" as="targetPoint" />
          </mxGeometry>
        </mxCell>
        <mxCell id="nGoUOX4LtskV6R6v_krh-24" value="" style="edgeStyle=orthogonalEdgeStyle;rounded=0;orthogonalLoop=1;jettySize=auto;html=1;" parent="1" source="nGoUOX4LtskV6R6v_krh-25" target="nGoUOX4LtskV6R6v_krh-26" edge="1">
          <mxGeometry relative="1" as="geometry" />
        </mxCell>
        <mxCell id="nGoUOX4LtskV6R6v_krh-25" value="" style="ellipse;whiteSpace=wrap;html=1;aspect=fixed;" parent="1" vertex="1">
          <mxGeometry x="990" y="1940" width="30" height="30" as="geometry" />
        </mxCell>
        <mxCell id="nGoUOX4LtskV6R6v_krh-26" value="" style="ellipse;whiteSpace=wrap;html=1;aspect=fixed;" parent="1" vertex="1">
          <mxGeometry x="1050" y="1940" width="30" height="30" as="geometry" />
        </mxCell>
        <mxCell id="nGoUOX4LtskV6R6v_krh-27" style="edgeStyle=orthogonalEdgeStyle;rounded=0;orthogonalLoop=1;jettySize=auto;html=1;" parent="1" source="nGoUOX4LtskV6R6v_krh-26" target="nGoUOX4LtskV6R6v_krh-12" edge="1">
          <mxGeometry relative="1" as="geometry">
            <mxPoint x="1145" y="1955" as="sourcePoint" />
          </mxGeometry>
        </mxCell>
        <mxCell id="nGoUOX4LtskV6R6v_krh-28" value="b" style="text;html=1;align=center;verticalAlign=middle;whiteSpace=wrap;rounded=0;" parent="1" vertex="1">
          <mxGeometry x="939" y="1855" width="31" height="30" as="geometry" />
        </mxCell>
        <mxCell id="nGoUOX4LtskV6R6v_krh-29" value="a" style="text;html=1;align=center;verticalAlign=middle;whiteSpace=wrap;rounded=0;" parent="1" vertex="1">
          <mxGeometry x="940" y="1910" width="31" height="30" as="geometry" />
        </mxCell>
        <mxCell id="nGoUOX4LtskV6R6v_krh-33" value="e&lt;div&gt;&lt;br&gt;&lt;/div&gt;" style="text;html=1;align=center;verticalAlign=middle;whiteSpace=wrap;rounded=0;" parent="1" vertex="1">
          <mxGeometry x="1015.5" y="1940" width="31" height="30" as="geometry" />
        </mxCell>
        <mxCell id="nGoUOX4LtskV6R6v_krh-34" style="edgeStyle=orthogonalEdgeStyle;rounded=0;orthogonalLoop=1;jettySize=auto;html=1;" parent="1" source="nGoUOX4LtskV6R6v_krh-16" target="nGoUOX4LtskV6R6v_krh-16" edge="1">
          <mxGeometry relative="1" as="geometry">
            <Array as="points">
              <mxPoint x="1010" y="1810" />
            </Array>
          </mxGeometry>
        </mxCell>
        <mxCell id="nGoUOX4LtskV6R6v_krh-35" value="b" style="text;html=1;align=center;verticalAlign=middle;whiteSpace=wrap;rounded=0;" parent="1" vertex="1">
          <mxGeometry x="989" y="1790" width="31" height="30" as="geometry" />
        </mxCell>
        <mxCell id="nGoUOX4LtskV6R6v_krh-36" style="edgeStyle=orthogonalEdgeStyle;rounded=0;orthogonalLoop=1;jettySize=auto;html=1;" parent="1" source="nGoUOX4LtskV6R6v_krh-25" target="nGoUOX4LtskV6R6v_krh-25" edge="1">
          <mxGeometry relative="1" as="geometry">
            <Array as="points">
              <mxPoint x="1000" y="1920" />
            </Array>
          </mxGeometry>
        </mxCell>
        <mxCell id="nGoUOX4LtskV6R6v_krh-37" value="&lt;div&gt;&lt;br&gt;&lt;/div&gt;b" style="text;html=1;align=center;verticalAlign=middle;whiteSpace=wrap;rounded=0;" parent="1" vertex="1">
          <mxGeometry x="990" y="1890" width="31" height="30" as="geometry" />
        </mxCell>
        <mxCell id="nGoUOX4LtskV6R6v_krh-38" value="" style="ellipse;whiteSpace=wrap;html=1;aspect=fixed;" parent="1" vertex="1">
          <mxGeometry x="1051" y="1825" width="30" height="30" as="geometry" />
        </mxCell>
        <mxCell id="nGoUOX4LtskV6R6v_krh-39" style="edgeStyle=orthogonalEdgeStyle;rounded=0;orthogonalLoop=1;jettySize=auto;html=1;" parent="1" source="nGoUOX4LtskV6R6v_krh-38" target="nGoUOX4LtskV6R6v_krh-38" edge="1">
          <mxGeometry relative="1" as="geometry">
            <Array as="points">
              <mxPoint x="1071" y="1810" />
            </Array>
          </mxGeometry>
        </mxCell>
        <mxCell id="nGoUOX4LtskV6R6v_krh-40" value="b" style="text;html=1;align=center;verticalAlign=middle;whiteSpace=wrap;rounded=0;" parent="1" vertex="1">
          <mxGeometry x="1050" y="1790" width="31" height="30" as="geometry" />
        </mxCell>
        <mxCell id="nGoUOX4LtskV6R6v_krh-41" value="a&lt;div&gt;&lt;br&gt;&lt;/div&gt;" style="text;html=1;align=center;verticalAlign=middle;whiteSpace=wrap;rounded=0;" parent="1" vertex="1">
          <mxGeometry x="1015.5" y="1820" width="31" height="30" as="geometry" />
        </mxCell>
        <mxCell id="nGoUOX4LtskV6R6v_krh-43" value="e&lt;div&gt;&lt;br&gt;&lt;/div&gt;" style="text;html=1;align=center;verticalAlign=middle;whiteSpace=wrap;rounded=0;" parent="1" vertex="1">
          <mxGeometry x="1099" y="1870" width="31" height="30" as="geometry" />
        </mxCell>
        <mxCell id="nGoUOX4LtskV6R6v_krh-44" value="b" style="text;html=1;align=center;verticalAlign=middle;whiteSpace=wrap;rounded=0;" parent="1" vertex="1">
          <mxGeometry x="1079" y="1930" width="31" height="30" as="geometry" />
        </mxCell>
        <mxCell id="nGoUOX4LtskV6R6v_krh-45" value="&lt;div&gt;&lt;br&gt;&lt;/div&gt;" style="endArrow=classic;html=1;rounded=0;" parent="1" source="nGoUOX4LtskV6R6v_krh-47" target="nGoUOX4LtskV6R6v_krh-51" edge="1">
          <mxGeometry x="-0.3128" y="6" relative="1" as="geometry">
            <mxPoint as="offset" />
            <mxPoint x="991.7009089723908" y="2049.86562425545" as="targetPoint" />
          </mxGeometry>
        </mxCell>
        <mxCell id="nGoUOX4LtskV6R6v_krh-46" style="endArrow=classic;html=1;rounded=0;" parent="1" source="nGoUOX4LtskV6R6v_krh-47" target="nGoUOX4LtskV6R6v_krh-54" edge="1">
          <mxGeometry relative="1" as="geometry">
            <mxPoint x="991.2784386342757" y="2145.6402457751306" as="targetPoint" />
          </mxGeometry>
        </mxCell>
        <mxCell id="nGoUOX4LtskV6R6v_krh-47" value="0" style="ellipse;whiteSpace=wrap;html=1;aspect=fixed;" parent="1" vertex="1">
          <mxGeometry x="919" y="2085" width="30" height="30" as="geometry" />
        </mxCell>
        <mxCell id="nGoUOX4LtskV6R6v_krh-48" style="edgeStyle=orthogonalEdgeStyle;rounded=0;orthogonalLoop=1;jettySize=auto;html=1;" parent="1" target="nGoUOX4LtskV6R6v_krh-47" edge="1">
          <mxGeometry relative="1" as="geometry">
            <mxPoint x="934" y="2068.76" as="targetPoint" />
            <mxPoint x="880" y="2100" as="sourcePoint" />
            <Array as="points">
              <mxPoint x="895" y="2100" />
            </Array>
          </mxGeometry>
        </mxCell>
        <mxCell id="nGoUOX4LtskV6R6v_krh-49" value="9" style="ellipse;whiteSpace=wrap;html=1;aspect=fixed;strokeWidth=2;" parent="1" vertex="1">
          <mxGeometry x="1053" y="2140" width="30" height="30" as="geometry" />
        </mxCell>
        <mxCell id="nGoUOX4LtskV6R6v_krh-50" value="" style="edgeStyle=orthogonalEdgeStyle;rounded=0;orthogonalLoop=1;jettySize=auto;html=1;" parent="1" source="nGoUOX4LtskV6R6v_krh-51" edge="1">
          <mxGeometry relative="1" as="geometry">
            <mxPoint x="1050" y="2040" as="targetPoint" />
          </mxGeometry>
        </mxCell>
        <mxCell id="nGoUOX4LtskV6R6v_krh-51" value="1" style="ellipse;whiteSpace=wrap;html=1;aspect=fixed;" parent="1" vertex="1">
          <mxGeometry x="990" y="2025" width="30" height="30" as="geometry" />
        </mxCell>
        <mxCell id="nGoUOX4LtskV6R6v_krh-53" value="" style="edgeStyle=orthogonalEdgeStyle;rounded=0;orthogonalLoop=1;jettySize=auto;html=1;" parent="1" source="nGoUOX4LtskV6R6v_krh-54" target="nGoUOX4LtskV6R6v_krh-49" edge="1">
          <mxGeometry relative="1" as="geometry">
            <mxPoint x="1050" y="2155" as="targetPoint" />
          </mxGeometry>
        </mxCell>
        <mxCell id="nGoUOX4LtskV6R6v_krh-54" value="6" style="ellipse;whiteSpace=wrap;html=1;aspect=fixed;" parent="1" vertex="1">
          <mxGeometry x="990" y="2140" width="30" height="30" as="geometry" />
        </mxCell>
        <mxCell id="nGoUOX4LtskV6R6v_krh-57" value="b" style="text;html=1;align=center;verticalAlign=middle;whiteSpace=wrap;rounded=0;" parent="1" vertex="1">
          <mxGeometry x="939" y="2055" width="31" height="30" as="geometry" />
        </mxCell>
        <mxCell id="nGoUOX4LtskV6R6v_krh-58" value="a" style="text;html=1;align=center;verticalAlign=middle;whiteSpace=wrap;rounded=0;" parent="1" vertex="1">
          <mxGeometry x="940" y="2110" width="31" height="30" as="geometry" />
        </mxCell>
        <mxCell id="nGoUOX4LtskV6R6v_krh-60" style="edgeStyle=orthogonalEdgeStyle;rounded=0;orthogonalLoop=1;jettySize=auto;html=1;" parent="1" source="nGoUOX4LtskV6R6v_krh-51" target="nGoUOX4LtskV6R6v_krh-51" edge="1">
          <mxGeometry relative="1" as="geometry">
            <Array as="points">
              <mxPoint x="1010" y="2010" />
            </Array>
          </mxGeometry>
        </mxCell>
        <mxCell id="nGoUOX4LtskV6R6v_krh-61" value="b" style="text;html=1;align=center;verticalAlign=middle;whiteSpace=wrap;rounded=0;" parent="1" vertex="1">
          <mxGeometry x="989" y="1990" width="31" height="30" as="geometry" />
        </mxCell>
        <mxCell id="nGoUOX4LtskV6R6v_krh-62" style="edgeStyle=orthogonalEdgeStyle;rounded=0;orthogonalLoop=1;jettySize=auto;html=1;" parent="1" source="nGoUOX4LtskV6R6v_krh-54" target="nGoUOX4LtskV6R6v_krh-54" edge="1">
          <mxGeometry relative="1" as="geometry">
            <Array as="points">
              <mxPoint x="1000" y="2120" />
            </Array>
          </mxGeometry>
        </mxCell>
        <mxCell id="nGoUOX4LtskV6R6v_krh-63" value="&lt;div&gt;&lt;br&gt;&lt;/div&gt;b" style="text;html=1;align=center;verticalAlign=middle;whiteSpace=wrap;rounded=0;" parent="1" vertex="1">
          <mxGeometry x="990" y="2090" width="31" height="30" as="geometry" />
        </mxCell>
        <mxCell id="nGoUOX4LtskV6R6v_krh-64" value="4" style="ellipse;whiteSpace=wrap;html=1;aspect=fixed;strokeWidth=2;" parent="1" vertex="1">
          <mxGeometry x="1051" y="2025" width="30" height="30" as="geometry" />
        </mxCell>
        <mxCell id="nGoUOX4LtskV6R6v_krh-65" style="edgeStyle=orthogonalEdgeStyle;rounded=0;orthogonalLoop=1;jettySize=auto;html=1;" parent="1" source="nGoUOX4LtskV6R6v_krh-64" target="nGoUOX4LtskV6R6v_krh-64" edge="1">
          <mxGeometry relative="1" as="geometry">
            <Array as="points">
              <mxPoint x="1071" y="2010" />
            </Array>
          </mxGeometry>
        </mxCell>
        <mxCell id="nGoUOX4LtskV6R6v_krh-66" value="b" style="text;html=1;align=center;verticalAlign=middle;whiteSpace=wrap;rounded=0;" parent="1" vertex="1">
          <mxGeometry x="1050" y="1990" width="31" height="30" as="geometry" />
        </mxCell>
        <mxCell id="nGoUOX4LtskV6R6v_krh-67" value="a&lt;div&gt;&lt;br&gt;&lt;/div&gt;" style="text;html=1;align=center;verticalAlign=middle;whiteSpace=wrap;rounded=0;" parent="1" vertex="1">
          <mxGeometry x="1015.5" y="2020" width="31" height="30" as="geometry" />
        </mxCell>
        <mxCell id="nGoUOX4LtskV6R6v_krh-69" value="b" style="text;html=1;align=center;verticalAlign=middle;whiteSpace=wrap;rounded=0;" parent="1" vertex="1">
          <mxGeometry x="1015.5" y="2130" width="31" height="30" as="geometry" />
        </mxCell>
        <mxCell id="nGoUOX4LtskV6R6v_krh-70" value="&lt;div&gt;&lt;br&gt;&lt;/div&gt;" style="endArrow=classic;html=1;rounded=0;" parent="1" source="nGoUOX4LtskV6R6v_krh-72" target="nGoUOX4LtskV6R6v_krh-76" edge="1">
          <mxGeometry x="-0.3128" y="6" relative="1" as="geometry">
            <mxPoint as="offset" />
            <mxPoint x="1241.7009089723908" y="2059.86562425545" as="targetPoint" />
          </mxGeometry>
        </mxCell>
        <mxCell id="nGoUOX4LtskV6R6v_krh-71" style="endArrow=classic;html=1;rounded=0;" parent="1" source="nGoUOX4LtskV6R6v_krh-72" target="nGoUOX4LtskV6R6v_krh-90" edge="1">
          <mxGeometry relative="1" as="geometry">
            <mxPoint x="1260" y="2100" as="targetPoint" />
          </mxGeometry>
        </mxCell>
        <mxCell id="nGoUOX4LtskV6R6v_krh-72" value="0" style="ellipse;whiteSpace=wrap;html=1;aspect=fixed;" parent="1" vertex="1">
          <mxGeometry x="1169" y="2095" width="30" height="30" as="geometry" />
        </mxCell>
        <mxCell id="nGoUOX4LtskV6R6v_krh-73" style="edgeStyle=orthogonalEdgeStyle;rounded=0;orthogonalLoop=1;jettySize=auto;html=1;" parent="1" target="nGoUOX4LtskV6R6v_krh-72" edge="1">
          <mxGeometry relative="1" as="geometry">
            <mxPoint x="1184" y="2078.76" as="targetPoint" />
            <mxPoint x="1130" y="2110" as="sourcePoint" />
            <Array as="points">
              <mxPoint x="1145" y="2110" />
            </Array>
          </mxGeometry>
        </mxCell>
        <mxCell id="nGoUOX4LtskV6R6v_krh-75" value="" style="edgeStyle=orthogonalEdgeStyle;rounded=0;orthogonalLoop=1;jettySize=auto;html=1;" parent="1" source="nGoUOX4LtskV6R6v_krh-76" edge="1">
          <mxGeometry relative="1" as="geometry">
            <mxPoint x="1300" y="2050" as="targetPoint" />
          </mxGeometry>
        </mxCell>
        <mxCell id="nGoUOX4LtskV6R6v_krh-76" value="1" style="ellipse;whiteSpace=wrap;html=1;aspect=fixed;" parent="1" vertex="1">
          <mxGeometry x="1240" y="2035" width="30" height="30" as="geometry" />
        </mxCell>
        <mxCell id="nGoUOX4LtskV6R6v_krh-78" value="6" style="ellipse;whiteSpace=wrap;html=1;aspect=fixed;strokeWidth=2;" parent="1" vertex="1">
          <mxGeometry x="1300" y="2150" width="30" height="30" as="geometry" />
        </mxCell>
        <mxCell id="nGoUOX4LtskV6R6v_krh-79" value="b" style="text;html=1;align=center;verticalAlign=middle;whiteSpace=wrap;rounded=0;" parent="1" vertex="1">
          <mxGeometry x="1189" y="2065" width="31" height="30" as="geometry" />
        </mxCell>
        <mxCell id="nGoUOX4LtskV6R6v_krh-80" value="a" style="text;html=1;align=center;verticalAlign=middle;whiteSpace=wrap;rounded=0;" parent="1" vertex="1">
          <mxGeometry x="1190" y="2120" width="31" height="30" as="geometry" />
        </mxCell>
        <mxCell id="nGoUOX4LtskV6R6v_krh-81" style="edgeStyle=orthogonalEdgeStyle;rounded=0;orthogonalLoop=1;jettySize=auto;html=1;" parent="1" source="nGoUOX4LtskV6R6v_krh-76" target="nGoUOX4LtskV6R6v_krh-76" edge="1">
          <mxGeometry relative="1" as="geometry">
            <Array as="points">
              <mxPoint x="1260" y="2020" />
            </Array>
          </mxGeometry>
        </mxCell>
        <mxCell id="nGoUOX4LtskV6R6v_krh-82" value="b" style="text;html=1;align=center;verticalAlign=middle;whiteSpace=wrap;rounded=0;" parent="1" vertex="1">
          <mxGeometry x="1239" y="2000" width="31" height="30" as="geometry" />
        </mxCell>
        <mxCell id="nGoUOX4LtskV6R6v_krh-83" style="edgeStyle=orthogonalEdgeStyle;rounded=0;orthogonalLoop=1;jettySize=auto;html=1;" parent="1" source="nGoUOX4LtskV6R6v_krh-78" target="nGoUOX4LtskV6R6v_krh-78" edge="1">
          <mxGeometry relative="1" as="geometry">
            <Array as="points">
              <mxPoint x="1310" y="2130" />
            </Array>
          </mxGeometry>
        </mxCell>
        <mxCell id="nGoUOX4LtskV6R6v_krh-84" value="&lt;div&gt;&lt;br&gt;&lt;/div&gt;b" style="text;html=1;align=center;verticalAlign=middle;whiteSpace=wrap;rounded=0;" parent="1" vertex="1">
          <mxGeometry x="1300" y="2100" width="31" height="30" as="geometry" />
        </mxCell>
        <mxCell id="nGoUOX4LtskV6R6v_krh-85" value="4" style="ellipse;whiteSpace=wrap;html=1;aspect=fixed;strokeWidth=2;" parent="1" vertex="1">
          <mxGeometry x="1301" y="2035" width="30" height="30" as="geometry" />
        </mxCell>
        <mxCell id="nGoUOX4LtskV6R6v_krh-86" style="edgeStyle=orthogonalEdgeStyle;rounded=0;orthogonalLoop=1;jettySize=auto;html=1;" parent="1" source="nGoUOX4LtskV6R6v_krh-85" target="nGoUOX4LtskV6R6v_krh-85" edge="1">
          <mxGeometry relative="1" as="geometry">
            <Array as="points">
              <mxPoint x="1321" y="2020" />
            </Array>
          </mxGeometry>
        </mxCell>
        <mxCell id="nGoUOX4LtskV6R6v_krh-87" value="b" style="text;html=1;align=center;verticalAlign=middle;whiteSpace=wrap;rounded=0;" parent="1" vertex="1">
          <mxGeometry x="1300" y="2000" width="31" height="30" as="geometry" />
        </mxCell>
        <mxCell id="nGoUOX4LtskV6R6v_krh-88" value="a&lt;div&gt;&lt;br&gt;&lt;/div&gt;" style="text;html=1;align=center;verticalAlign=middle;whiteSpace=wrap;rounded=0;" parent="1" vertex="1">
          <mxGeometry x="1265.5" y="2030" width="31" height="30" as="geometry" />
        </mxCell>
        <mxCell id="nGoUOX4LtskV6R6v_krh-91" style="edgeStyle=orthogonalEdgeStyle;rounded=0;orthogonalLoop=1;jettySize=auto;html=1;" parent="1" source="nGoUOX4LtskV6R6v_krh-90" target="nGoUOX4LtskV6R6v_krh-78" edge="1">
          <mxGeometry relative="1" as="geometry" />
        </mxCell>
        <mxCell id="nGoUOX4LtskV6R6v_krh-90" value="6_1" style="ellipse;whiteSpace=wrap;html=1;aspect=fixed;" parent="1" vertex="1">
          <mxGeometry x="1239" y="2150" width="30" height="30" as="geometry" />
        </mxCell>
        <mxCell id="nGoUOX4LtskV6R6v_krh-92" value="b" style="text;html=1;align=center;verticalAlign=middle;whiteSpace=wrap;rounded=0;" parent="1" vertex="1">
          <mxGeometry x="1265.5" y="2140" width="31" height="30" as="geometry" />
        </mxCell>
        <mxCell id="nGoUOX4LtskV6R6v_krh-93" value="&lt;div&gt;&lt;br&gt;&lt;/div&gt;" style="endArrow=classic;html=1;rounded=0;" parent="1" source="nGoUOX4LtskV6R6v_krh-95" target="nGoUOX4LtskV6R6v_krh-98" edge="1">
          <mxGeometry x="-0.3128" y="6" relative="1" as="geometry">
            <mxPoint as="offset" />
            <mxPoint x="1251.7009089723908" y="1269.8656242554498" as="targetPoint" />
          </mxGeometry>
        </mxCell>
        <mxCell id="nGoUOX4LtskV6R6v_krh-94" style="endArrow=classic;html=1;rounded=0;" parent="1" source="nGoUOX4LtskV6R6v_krh-95" target="nGoUOX4LtskV6R6v_krh-111" edge="1">
          <mxGeometry relative="1" as="geometry">
            <mxPoint x="1270" y="1310" as="targetPoint" />
          </mxGeometry>
        </mxCell>
        <mxCell id="nGoUOX4LtskV6R6v_krh-95" value="6" style="ellipse;whiteSpace=wrap;html=1;aspect=fixed;" parent="1" vertex="1">
          <mxGeometry x="1179" y="1305" width="30" height="30" as="geometry" />
        </mxCell>
        <mxCell id="nGoUOX4LtskV6R6v_krh-98" value="7" style="ellipse;whiteSpace=wrap;html=1;aspect=fixed;" parent="1" vertex="1">
          <mxGeometry x="1250" y="1245" width="30" height="30" as="geometry" />
        </mxCell>
        <mxCell id="nGoUOX4LtskV6R6v_krh-99" value="9" style="ellipse;whiteSpace=wrap;html=1;aspect=fixed;strokeWidth=2;" parent="1" vertex="1">
          <mxGeometry x="1414" y="1380" width="30" height="30" as="geometry" />
        </mxCell>
        <mxCell id="nGoUOX4LtskV6R6v_krh-100" value="b" style="text;html=1;align=center;verticalAlign=middle;whiteSpace=wrap;rounded=0;" parent="1" vertex="1">
          <mxGeometry x="1199" y="1275" width="31" height="30" as="geometry" />
        </mxCell>
        <mxCell id="nGoUOX4LtskV6R6v_krh-101" value="a" style="text;html=1;align=center;verticalAlign=middle;whiteSpace=wrap;rounded=0;" parent="1" vertex="1">
          <mxGeometry x="1200" y="1330" width="31" height="30" as="geometry" />
        </mxCell>
        <mxCell id="nGoUOX4LtskV6R6v_krh-102" style="edgeStyle=orthogonalEdgeStyle;rounded=0;orthogonalLoop=1;jettySize=auto;html=1;" parent="1" source="nGoUOX4LtskV6R6v_krh-98" target="nGoUOX4LtskV6R6v_krh-98" edge="1">
          <mxGeometry relative="1" as="geometry">
            <Array as="points">
              <mxPoint x="1270" y="1230" />
            </Array>
          </mxGeometry>
        </mxCell>
        <mxCell id="nGoUOX4LtskV6R6v_krh-103" value="b" style="text;html=1;align=center;verticalAlign=middle;whiteSpace=wrap;rounded=0;" parent="1" vertex="1">
          <mxGeometry x="1249" y="1210" width="31" height="30" as="geometry" />
        </mxCell>
        <mxCell id="nGoUOX4LtskV6R6v_krh-104" style="edgeStyle=orthogonalEdgeStyle;rounded=0;orthogonalLoop=1;jettySize=auto;html=1;" parent="1" source="nGoUOX4LtskV6R6v_krh-99" target="nGoUOX4LtskV6R6v_krh-99" edge="1">
          <mxGeometry relative="1" as="geometry">
            <Array as="points">
              <mxPoint x="1424" y="1360" />
            </Array>
          </mxGeometry>
        </mxCell>
        <mxCell id="nGoUOX4LtskV6R6v_krh-105" value="&lt;div&gt;&lt;br&gt;&lt;/div&gt;b" style="text;html=1;align=center;verticalAlign=middle;whiteSpace=wrap;rounded=0;" parent="1" vertex="1">
          <mxGeometry x="1414" y="1330" width="31" height="30" as="geometry" />
        </mxCell>
        <mxCell id="nGoUOX4LtskV6R6v_krh-109" value="a&lt;div&gt;&lt;br&gt;&lt;/div&gt;" style="text;html=1;align=center;verticalAlign=middle;whiteSpace=wrap;rounded=0;" parent="1" vertex="1">
          <mxGeometry x="1280" y="1265" width="31" height="30" as="geometry" />
        </mxCell>
        <mxCell id="nGoUOX4LtskV6R6v_krh-111" value="8" style="ellipse;whiteSpace=wrap;html=1;aspect=fixed;" parent="1" vertex="1">
          <mxGeometry x="1249" y="1360" width="30" height="30" as="geometry" />
        </mxCell>
        <mxCell id="nGoUOX4LtskV6R6v_krh-112" value="b" style="text;html=1;align=center;verticalAlign=middle;whiteSpace=wrap;rounded=0;" parent="1" vertex="1">
          <mxGeometry x="1280" y="1355" width="31" height="30" as="geometry" />
        </mxCell>
        <mxCell id="nGoUOX4LtskV6R6v_krh-113" value="&lt;div&gt;&lt;br&gt;&lt;/div&gt;" style="endArrow=classic;html=1;rounded=0;" parent="1" source="nGoUOX4LtskV6R6v_krh-115" target="nGoUOX4LtskV6R6v_krh-118" edge="1">
          <mxGeometry x="-0.3128" y="6" relative="1" as="geometry">
            <mxPoint as="offset" />
            <mxPoint x="1251.7009089723908" y="1459.8656242554498" as="targetPoint" />
          </mxGeometry>
        </mxCell>
        <mxCell id="nGoUOX4LtskV6R6v_krh-114" style="endArrow=classic;html=1;rounded=0;" parent="1" source="nGoUOX4LtskV6R6v_krh-115" target="nGoUOX4LtskV6R6v_krh-131" edge="1">
          <mxGeometry relative="1" as="geometry">
            <mxPoint x="1270" y="1500" as="targetPoint" />
          </mxGeometry>
        </mxCell>
        <mxCell id="nGoUOX4LtskV6R6v_krh-115" value="2" style="ellipse;whiteSpace=wrap;html=1;aspect=fixed;" parent="1" vertex="1">
          <mxGeometry x="1179" y="1495" width="30" height="30" as="geometry" />
        </mxCell>
        <mxCell id="nGoUOX4LtskV6R6v_krh-117" value="" style="edgeStyle=orthogonalEdgeStyle;rounded=0;orthogonalLoop=1;jettySize=auto;html=1;" parent="1" source="nGoUOX4LtskV6R6v_krh-118" edge="1">
          <mxGeometry relative="1" as="geometry">
            <mxPoint x="1310" y="1450" as="targetPoint" />
          </mxGeometry>
        </mxCell>
        <mxCell id="nGoUOX4LtskV6R6v_krh-118" value="3" style="ellipse;whiteSpace=wrap;html=1;aspect=fixed;" parent="1" vertex="1">
          <mxGeometry x="1250" y="1435" width="30" height="30" as="geometry" />
        </mxCell>
        <mxCell id="nGoUOX4LtskV6R6v_krh-120" value="a" style="text;html=1;align=center;verticalAlign=middle;whiteSpace=wrap;rounded=0;" parent="1" vertex="1">
          <mxGeometry x="1199" y="1465" width="31" height="30" as="geometry" />
        </mxCell>
        <mxCell id="nGoUOX4LtskV6R6v_krh-121" value="b" style="text;html=1;align=center;verticalAlign=middle;whiteSpace=wrap;rounded=0;" parent="1" vertex="1">
          <mxGeometry x="1200" y="1520" width="31" height="30" as="geometry" />
        </mxCell>
        <mxCell id="nGoUOX4LtskV6R6v_krh-122" style="edgeStyle=orthogonalEdgeStyle;rounded=0;orthogonalLoop=1;jettySize=auto;html=1;" parent="1" source="nGoUOX4LtskV6R6v_krh-118" target="nGoUOX4LtskV6R6v_krh-118" edge="1">
          <mxGeometry relative="1" as="geometry">
            <Array as="points">
              <mxPoint x="1270" y="1420" />
            </Array>
          </mxGeometry>
        </mxCell>
        <mxCell id="nGoUOX4LtskV6R6v_krh-123" value="a" style="text;html=1;align=center;verticalAlign=middle;whiteSpace=wrap;rounded=0;" parent="1" vertex="1">
          <mxGeometry x="1249" y="1400" width="31" height="30" as="geometry" />
        </mxCell>
        <mxCell id="nGoUOX4LtskV6R6v_krh-126" value="5" style="ellipse;whiteSpace=wrap;html=1;aspect=fixed;strokeWidth=2;" parent="1" vertex="1">
          <mxGeometry x="1311" y="1435" width="30" height="30" as="geometry" />
        </mxCell>
        <mxCell id="nGoUOX4LtskV6R6v_krh-127" style="edgeStyle=orthogonalEdgeStyle;rounded=0;orthogonalLoop=1;jettySize=auto;html=1;" parent="1" source="nGoUOX4LtskV6R6v_krh-126" target="nGoUOX4LtskV6R6v_krh-126" edge="1">
          <mxGeometry relative="1" as="geometry">
            <Array as="points">
              <mxPoint x="1331" y="1420" />
            </Array>
          </mxGeometry>
        </mxCell>
        <mxCell id="nGoUOX4LtskV6R6v_krh-128" value="a" style="text;html=1;align=center;verticalAlign=middle;whiteSpace=wrap;rounded=0;" parent="1" vertex="1">
          <mxGeometry x="1310" y="1400" width="31" height="30" as="geometry" />
        </mxCell>
        <mxCell id="nGoUOX4LtskV6R6v_krh-129" value="&lt;div&gt;b&lt;/div&gt;&lt;div&gt;&lt;br&gt;&lt;/div&gt;" style="text;html=1;align=center;verticalAlign=middle;whiteSpace=wrap;rounded=0;" parent="1" vertex="1">
          <mxGeometry x="1275.5" y="1430" width="31" height="30" as="geometry" />
        </mxCell>
        <mxCell id="nGoUOX4LtskV6R6v_krh-131" value="4" style="ellipse;whiteSpace=wrap;html=1;aspect=fixed;" parent="1" vertex="1">
          <mxGeometry x="1250" y="1530" width="30" height="30" as="geometry" />
        </mxCell>
        <mxCell id="nGoUOX4LtskV6R6v_krh-132" value="a" style="text;html=1;align=center;verticalAlign=middle;whiteSpace=wrap;rounded=0;" parent="1" vertex="1">
          <mxGeometry x="1265.5" y="1480" width="31" height="30" as="geometry" />
        </mxCell>
        <mxCell id="nGoUOX4LtskV6R6v_krh-133" value="1" style="ellipse;whiteSpace=wrap;html=1;aspect=fixed;" parent="1" vertex="1">
          <mxGeometry x="1060" y="1405" width="30" height="30" as="geometry" />
        </mxCell>
        <mxCell id="nGoUOX4LtskV6R6v_krh-134" value="" style="endArrow=classic;html=1;rounded=0;" parent="1" source="nGoUOX4LtskV6R6v_krh-133" target="nGoUOX4LtskV6R6v_krh-115" edge="1">
          <mxGeometry width="50" height="50" relative="1" as="geometry">
            <mxPoint x="1150" y="1440" as="sourcePoint" />
            <mxPoint x="1200" y="1390" as="targetPoint" />
          </mxGeometry>
        </mxCell>
        <mxCell id="nGoUOX4LtskV6R6v_krh-135" value="" style="endArrow=classic;html=1;rounded=0;" parent="1" source="nGoUOX4LtskV6R6v_krh-133" target="nGoUOX4LtskV6R6v_krh-95" edge="1">
          <mxGeometry width="50" height="50" relative="1" as="geometry">
            <mxPoint x="1150" y="1440" as="sourcePoint" />
            <mxPoint x="1200" y="1390" as="targetPoint" />
          </mxGeometry>
        </mxCell>
        <mxCell id="nGoUOX4LtskV6R6v_krh-136" value="b" style="text;html=1;align=center;verticalAlign=middle;whiteSpace=wrap;rounded=0;" parent="1" vertex="1">
          <mxGeometry x="1110" y="1350" width="31" height="30" as="geometry" />
        </mxCell>
        <mxCell id="nGoUOX4LtskV6R6v_krh-137" value="a" style="text;html=1;align=center;verticalAlign=middle;whiteSpace=wrap;rounded=0;" parent="1" vertex="1">
          <mxGeometry x="1110" y="1460" width="31" height="30" as="geometry" />
        </mxCell>
        <mxCell id="nGoUOX4LtskV6R6v_krh-138" style="endArrow=classic;html=1;rounded=0;" parent="1" source="nGoUOX4LtskV6R6v_krh-111" target="nGoUOX4LtskV6R6v_krh-126" edge="1">
          <mxGeometry relative="1" as="geometry">
            <mxPoint x="1262" y="1376" as="targetPoint" />
            <mxPoint x="1216" y="1339" as="sourcePoint" />
          </mxGeometry>
        </mxCell>
        <mxCell id="nGoUOX4LtskV6R6v_krh-139" value="a" style="text;html=1;align=center;verticalAlign=middle;whiteSpace=wrap;rounded=0;" parent="1" vertex="1">
          <mxGeometry x="1280" y="1385" width="31" height="30" as="geometry" />
        </mxCell>
        <mxCell id="nGoUOX4LtskV6R6v_krh-140" value="" style="endArrow=classic;html=1;rounded=0;" parent="1" source="nGoUOX4LtskV6R6v_krh-131" target="nGoUOX4LtskV6R6v_krh-99" edge="1">
          <mxGeometry width="50" height="50" relative="1" as="geometry">
            <mxPoint x="1220" y="1450" as="sourcePoint" />
            <mxPoint x="1270" y="1400" as="targetPoint" />
          </mxGeometry>
        </mxCell>
        <mxCell id="nGoUOX4LtskV6R6v_krh-141" value="b" style="text;html=1;align=center;verticalAlign=middle;whiteSpace=wrap;rounded=0;" parent="1" vertex="1">
          <mxGeometry x="1323" y="1480" width="31" height="30" as="geometry" />
        </mxCell>
        <mxCell id="nGoUOX4LtskV6R6v_krh-142" value="" style="endArrow=classic;html=1;rounded=0;" parent="1" source="nGoUOX4LtskV6R6v_krh-98" target="nGoUOX4LtskV6R6v_krh-99" edge="1">
          <mxGeometry width="50" height="50" relative="1" as="geometry">
            <mxPoint x="1283" y="1563" as="sourcePoint" />
            <mxPoint x="1416" y="1397" as="targetPoint" />
          </mxGeometry>
        </mxCell>
        <mxCell id="nGoUOX4LtskV6R6v_krh-143" value="" style="endArrow=classic;html=1;rounded=0;" parent="1" source="nGoUOX4LtskV6R6v_krh-131" target="nGoUOX4LtskV6R6v_krh-126" edge="1">
          <mxGeometry width="50" height="50" relative="1" as="geometry">
            <mxPoint x="1283" y="1563" as="sourcePoint" />
            <mxPoint x="1416" y="1397" as="targetPoint" />
          </mxGeometry>
        </mxCell>
        <mxCell id="nGoUOX4LtskV6R6v_krh-144" value="" style="endArrow=classic;html=1;rounded=0;" parent="1" source="nGoUOX4LtskV6R6v_krh-111" target="nGoUOX4LtskV6R6v_krh-99" edge="1">
          <mxGeometry width="50" height="50" relative="1" as="geometry">
            <mxPoint x="1287" y="1280" as="sourcePoint" />
            <mxPoint x="1427" y="1395" as="targetPoint" />
          </mxGeometry>
        </mxCell>
        <mxCell id="nGoUOX4LtskV6R6v_krh-145" value="6" style="ellipse;whiteSpace=wrap;html=1;aspect=fixed;" parent="1" vertex="1">
          <mxGeometry x="2035" y="1405" width="30" height="30" as="geometry" />
        </mxCell>
        <mxCell id="nGoUOX4LtskV6R6v_krh-146" value="" style="endArrow=classic;html=1;rounded=0;" parent="1" source="nGoUOX4LtskV6R6v_krh-145" target="nGoUOX4LtskV6R6v_krh-149" edge="1">
          <mxGeometry width="50" height="50" relative="1" as="geometry">
            <mxPoint x="2025" y="1540" as="sourcePoint" />
            <mxPoint x="2095" y="1390" as="targetPoint" />
          </mxGeometry>
        </mxCell>
        <mxCell id="nGoUOX4LtskV6R6v_krh-147" value="" style="endArrow=classic;html=1;rounded=0;" parent="1" source="nGoUOX4LtskV6R6v_krh-145" target="nGoUOX4LtskV6R6v_krh-151" edge="1">
          <mxGeometry width="50" height="50" relative="1" as="geometry">
            <mxPoint x="2035" y="1550" as="sourcePoint" />
            <mxPoint x="2095" y="1450" as="targetPoint" />
          </mxGeometry>
        </mxCell>
        <mxCell id="nGoUOX4LtskV6R6v_krh-148" value="" style="endArrow=classic;html=1;rounded=0;" parent="1" source="nGoUOX4LtskV6R6v_krh-151" target="nGoUOX4LtskV6R6v_krh-154" edge="1">
          <mxGeometry width="50" height="50" relative="1" as="geometry">
            <mxPoint x="2135" y="1510" as="sourcePoint" />
            <mxPoint x="2185" y="1460" as="targetPoint" />
          </mxGeometry>
        </mxCell>
        <mxCell id="nGoUOX4LtskV6R6v_krh-149" value="7" style="ellipse;whiteSpace=wrap;html=1;aspect=fixed;" parent="1" vertex="1">
          <mxGeometry x="2095" y="1375" width="30" height="30" as="geometry" />
        </mxCell>
        <mxCell id="nGoUOX4LtskV6R6v_krh-150" value="b" style="text;html=1;align=center;verticalAlign=middle;whiteSpace=wrap;rounded=0;" parent="1" vertex="1">
          <mxGeometry x="2115" y="1430" width="60" height="30" as="geometry" />
        </mxCell>
        <mxCell id="nGoUOX4LtskV6R6v_krh-151" value="8" style="ellipse;whiteSpace=wrap;html=1;aspect=fixed;strokeWidth=2;" parent="1" vertex="1">
          <mxGeometry x="2095" y="1440" width="30" height="30" as="geometry" />
        </mxCell>
        <mxCell id="nGoUOX4LtskV6R6v_krh-152" value="a" style="text;html=1;align=center;verticalAlign=middle;whiteSpace=wrap;rounded=0;" parent="1" vertex="1">
          <mxGeometry x="2055" y="1410" width="60" height="30" as="geometry" />
        </mxCell>
        <mxCell id="nGoUOX4LtskV6R6v_krh-153" value="" style="endArrow=classic;html=1;rounded=0;" parent="1" source="nGoUOX4LtskV6R6v_krh-149" target="nGoUOX4LtskV6R6v_krh-154" edge="1">
          <mxGeometry width="50" height="50" relative="1" as="geometry">
            <mxPoint x="2124" y="1435" as="sourcePoint" />
            <mxPoint x="2155" y="1421" as="targetPoint" />
          </mxGeometry>
        </mxCell>
        <mxCell id="nGoUOX4LtskV6R6v_krh-154" value="9" style="ellipse;whiteSpace=wrap;html=1;aspect=fixed;strokeWidth=2;" parent="1" vertex="1">
          <mxGeometry x="2155" y="1410" width="30" height="30" as="geometry" />
        </mxCell>
        <mxCell id="nGoUOX4LtskV6R6v_krh-155" style="edgeStyle=orthogonalEdgeStyle;rounded=0;orthogonalLoop=1;jettySize=auto;html=1;" parent="1" source="nGoUOX4LtskV6R6v_krh-149" target="nGoUOX4LtskV6R6v_krh-149" edge="1">
          <mxGeometry relative="1" as="geometry">
            <mxPoint x="2098.090339887499" y="1350" as="sourcePoint" />
            <mxPoint x="2098.090339887499" y="1370" as="targetPoint" />
            <Array as="points">
              <mxPoint x="2110" y="1360" />
            </Array>
          </mxGeometry>
        </mxCell>
        <mxCell id="nGoUOX4LtskV6R6v_krh-156" value="b" style="text;html=1;align=center;verticalAlign=middle;whiteSpace=wrap;rounded=0;" parent="1" vertex="1">
          <mxGeometry x="2080" y="1340" width="60" height="30" as="geometry" />
        </mxCell>
        <mxCell id="nGoUOX4LtskV6R6v_krh-157" value="a" style="text;html=1;align=center;verticalAlign=middle;whiteSpace=wrap;rounded=0;" parent="1" vertex="1">
          <mxGeometry x="2110" y="1380" width="60" height="30" as="geometry" />
        </mxCell>
        <mxCell id="nGoUOX4LtskV6R6v_krh-158" style="edgeStyle=orthogonalEdgeStyle;rounded=0;orthogonalLoop=1;jettySize=auto;html=1;entryX=1;entryY=0;entryDx=0;entryDy=0;exitX=0.128;exitY=0.204;exitDx=0;exitDy=0;exitPerimeter=0;" parent="1" source="nGoUOX4LtskV6R6v_krh-154" target="nGoUOX4LtskV6R6v_krh-154" edge="1">
          <mxGeometry relative="1" as="geometry">
            <mxPoint x="2165" y="1389" as="sourcePoint" />
            <mxPoint x="2205" y="1400" as="targetPoint" />
            <Array as="points">
              <mxPoint x="2159" y="1390" />
              <mxPoint x="2181" y="1390" />
            </Array>
          </mxGeometry>
        </mxCell>
        <mxCell id="nGoUOX4LtskV6R6v_krh-159" value="b" style="text;html=1;align=center;verticalAlign=middle;whiteSpace=wrap;rounded=0;" parent="1" vertex="1">
          <mxGeometry x="2140" y="1365" width="60" height="30" as="geometry" />
        </mxCell>
        <mxCell id="nGoUOX4LtskV6R6v_krh-160" value="b" style="text;html=1;align=center;verticalAlign=middle;whiteSpace=wrap;rounded=0;" parent="1" vertex="1">
          <mxGeometry x="2045" y="1380" width="60" height="30" as="geometry" />
        </mxCell>
        <mxCell id="nGoUOX4LtskV6R6v_krh-161" value="2" style="ellipse;whiteSpace=wrap;html=1;aspect=fixed;" parent="1" vertex="1">
          <mxGeometry x="2035" y="1265" width="30" height="30" as="geometry" />
        </mxCell>
        <mxCell id="nGoUOX4LtskV6R6v_krh-162" value="" style="endArrow=classic;html=1;rounded=0;" parent="1" source="nGoUOX4LtskV6R6v_krh-161" target="nGoUOX4LtskV6R6v_krh-165" edge="1">
          <mxGeometry width="50" height="50" relative="1" as="geometry">
            <mxPoint x="2025" y="1400" as="sourcePoint" />
            <mxPoint x="2095" y="1250" as="targetPoint" />
          </mxGeometry>
        </mxCell>
        <mxCell id="nGoUOX4LtskV6R6v_krh-163" value="" style="endArrow=classic;html=1;rounded=0;" parent="1" source="nGoUOX4LtskV6R6v_krh-161" target="nGoUOX4LtskV6R6v_krh-167" edge="1">
          <mxGeometry width="50" height="50" relative="1" as="geometry">
            <mxPoint x="2035" y="1410" as="sourcePoint" />
            <mxPoint x="2095" y="1310" as="targetPoint" />
          </mxGeometry>
        </mxCell>
        <mxCell id="nGoUOX4LtskV6R6v_krh-164" value="" style="endArrow=classic;html=1;rounded=0;" parent="1" source="nGoUOX4LtskV6R6v_krh-167" target="nGoUOX4LtskV6R6v_krh-170" edge="1">
          <mxGeometry width="50" height="50" relative="1" as="geometry">
            <mxPoint x="2135" y="1370" as="sourcePoint" />
            <mxPoint x="2185" y="1320" as="targetPoint" />
          </mxGeometry>
        </mxCell>
        <mxCell id="nGoUOX4LtskV6R6v_krh-165" value="3" style="ellipse;whiteSpace=wrap;html=1;aspect=fixed;" parent="1" vertex="1">
          <mxGeometry x="2095" y="1235" width="30" height="30" as="geometry" />
        </mxCell>
        <mxCell id="nGoUOX4LtskV6R6v_krh-166" value="a" style="text;html=1;align=center;verticalAlign=middle;whiteSpace=wrap;rounded=0;" parent="1" vertex="1">
          <mxGeometry x="2115" y="1290" width="60" height="30" as="geometry" />
        </mxCell>
        <mxCell id="nGoUOX4LtskV6R6v_krh-167" value="4" style="ellipse;whiteSpace=wrap;html=1;aspect=fixed;strokeWidth=2;" parent="1" vertex="1">
          <mxGeometry x="2095" y="1300" width="30" height="30" as="geometry" />
        </mxCell>
        <mxCell id="nGoUOX4LtskV6R6v_krh-168" value="b" style="text;html=1;align=center;verticalAlign=middle;whiteSpace=wrap;rounded=0;" parent="1" vertex="1">
          <mxGeometry x="2055" y="1270" width="60" height="30" as="geometry" />
        </mxCell>
        <mxCell id="nGoUOX4LtskV6R6v_krh-169" value="" style="endArrow=classic;html=1;rounded=0;" parent="1" source="nGoUOX4LtskV6R6v_krh-165" target="nGoUOX4LtskV6R6v_krh-170" edge="1">
          <mxGeometry width="50" height="50" relative="1" as="geometry">
            <mxPoint x="2124" y="1295" as="sourcePoint" />
            <mxPoint x="2155" y="1281" as="targetPoint" />
          </mxGeometry>
        </mxCell>
        <mxCell id="nGoUOX4LtskV6R6v_krh-170" value="5" style="ellipse;whiteSpace=wrap;html=1;aspect=fixed;strokeWidth=2;" parent="1" vertex="1">
          <mxGeometry x="2155" y="1261" width="30" height="30" as="geometry" />
        </mxCell>
        <mxCell id="nGoUOX4LtskV6R6v_krh-171" style="edgeStyle=orthogonalEdgeStyle;rounded=0;orthogonalLoop=1;jettySize=auto;html=1;" parent="1" source="nGoUOX4LtskV6R6v_krh-165" target="nGoUOX4LtskV6R6v_krh-165" edge="1">
          <mxGeometry relative="1" as="geometry">
            <mxPoint x="2098.090339887499" y="1210" as="sourcePoint" />
            <mxPoint x="2098.090339887499" y="1230" as="targetPoint" />
            <Array as="points">
              <mxPoint x="2110" y="1220" />
            </Array>
          </mxGeometry>
        </mxCell>
        <mxCell id="nGoUOX4LtskV6R6v_krh-172" value="a" style="text;html=1;align=center;verticalAlign=middle;whiteSpace=wrap;rounded=0;" parent="1" vertex="1">
          <mxGeometry x="2080" y="1200" width="60" height="30" as="geometry" />
        </mxCell>
        <mxCell id="nGoUOX4LtskV6R6v_krh-173" value="b" style="text;html=1;align=center;verticalAlign=middle;whiteSpace=wrap;rounded=0;" parent="1" vertex="1">
          <mxGeometry x="2110" y="1240" width="60" height="30" as="geometry" />
        </mxCell>
        <mxCell id="nGoUOX4LtskV6R6v_krh-174" style="edgeStyle=orthogonalEdgeStyle;rounded=0;orthogonalLoop=1;jettySize=auto;html=1;entryX=1;entryY=0;entryDx=0;entryDy=0;exitX=0.128;exitY=0.204;exitDx=0;exitDy=0;exitPerimeter=0;" parent="1" source="nGoUOX4LtskV6R6v_krh-170" target="nGoUOX4LtskV6R6v_krh-170" edge="1">
          <mxGeometry relative="1" as="geometry">
            <mxPoint x="2165" y="1249" as="sourcePoint" />
            <mxPoint x="2205" y="1260" as="targetPoint" />
            <Array as="points">
              <mxPoint x="2159" y="1240" />
              <mxPoint x="2181" y="1240" />
            </Array>
          </mxGeometry>
        </mxCell>
        <mxCell id="nGoUOX4LtskV6R6v_krh-175" value="a" style="text;html=1;align=center;verticalAlign=middle;whiteSpace=wrap;rounded=0;" parent="1" vertex="1">
          <mxGeometry x="2140" y="1220" width="60" height="30" as="geometry" />
        </mxCell>
        <mxCell id="nGoUOX4LtskV6R6v_krh-176" value="a" style="text;html=1;align=center;verticalAlign=middle;whiteSpace=wrap;rounded=0;" parent="1" vertex="1">
          <mxGeometry x="2045" y="1240" width="60" height="30" as="geometry" />
        </mxCell>
        <mxCell id="nGoUOX4LtskV6R6v_krh-177" value="1" style="ellipse;whiteSpace=wrap;html=1;aspect=fixed;" parent="1" vertex="1">
          <mxGeometry x="1975" y="1335" width="30" height="30" as="geometry" />
        </mxCell>
        <mxCell id="nGoUOX4LtskV6R6v_krh-178" value="" style="endArrow=classic;html=1;rounded=0;" parent="1" source="nGoUOX4LtskV6R6v_krh-177" edge="1">
          <mxGeometry width="50" height="50" relative="1" as="geometry">
            <mxPoint x="2030" y="1530" as="sourcePoint" />
            <mxPoint x="2040" y="1409" as="targetPoint" />
          </mxGeometry>
        </mxCell>
        <mxCell id="nGoUOX4LtskV6R6v_krh-179" value="" style="endArrow=classic;html=1;rounded=0;" parent="1" source="nGoUOX4LtskV6R6v_krh-177" target="nGoUOX4LtskV6R6v_krh-161" edge="1">
          <mxGeometry width="50" height="50" relative="1" as="geometry">
            <mxPoint x="2006" y="1484" as="sourcePoint" />
            <mxPoint x="2049" y="1441" as="targetPoint" />
          </mxGeometry>
        </mxCell>
        <mxCell id="nGoUOX4LtskV6R6v_krh-180" value="b" style="text;html=1;align=center;verticalAlign=middle;whiteSpace=wrap;rounded=0;" parent="1" vertex="1">
          <mxGeometry x="1975" y="1371" width="60" height="30" as="geometry" />
        </mxCell>
        <mxCell id="nGoUOX4LtskV6R6v_krh-181" value="a" style="text;html=1;align=center;verticalAlign=middle;whiteSpace=wrap;rounded=0;" parent="1" vertex="1">
          <mxGeometry x="1975" y="1295" width="60" height="30" as="geometry" />
        </mxCell>
        <mxCell id="nGoUOX4LtskV6R6v_krh-182" value="" style="endArrow=classic;html=1;rounded=0;" parent="1" source="nGoUOX4LtskV6R6v_krh-187" target="nGoUOX4LtskV6R6v_krh-170" edge="1">
          <mxGeometry width="50" height="50" relative="1" as="geometry">
            <mxPoint x="2010" y="1371" as="sourcePoint" />
            <mxPoint x="2050" y="1419" as="targetPoint" />
          </mxGeometry>
        </mxCell>
        <mxCell id="nGoUOX4LtskV6R6v_krh-183" value="" style="endArrow=classic;html=1;rounded=0;" parent="1" source="nGoUOX4LtskV6R6v_krh-167" target="nGoUOX4LtskV6R6v_krh-154" edge="1">
          <mxGeometry width="50" height="50" relative="1" as="geometry">
            <mxPoint x="2020" y="1381" as="sourcePoint" />
            <mxPoint x="2060" y="1429" as="targetPoint" />
          </mxGeometry>
        </mxCell>
        <mxCell id="nGoUOX4LtskV6R6v_krh-186" value="" style="endArrow=none;html=1;rounded=0;endFill=0;" parent="1" source="nGoUOX4LtskV6R6v_krh-151" target="nGoUOX4LtskV6R6v_krh-184" edge="1">
          <mxGeometry width="50" height="50" relative="1" as="geometry">
            <mxPoint x="2115" y="1441" as="sourcePoint" />
            <mxPoint x="2165" y="1290" as="targetPoint" />
          </mxGeometry>
        </mxCell>
        <mxCell id="nGoUOX4LtskV6R6v_krh-184" value="&amp;nbsp;&amp;nbsp;" style="text;html=1;align=center;verticalAlign=middle;whiteSpace=wrap;rounded=0;" parent="1" vertex="1">
          <mxGeometry x="2125" y="1395" width="5" height="10" as="geometry" />
        </mxCell>
        <mxCell id="nGoUOX4LtskV6R6v_krh-188" value="" style="endArrow=none;html=1;rounded=0;endFill=0;" parent="1" source="nGoUOX4LtskV6R6v_krh-184" target="nGoUOX4LtskV6R6v_krh-187" edge="1">
          <mxGeometry width="50" height="50" relative="1" as="geometry">
            <mxPoint x="2129" y="1395" as="sourcePoint" />
            <mxPoint x="2165" y="1290" as="targetPoint" />
          </mxGeometry>
        </mxCell>
        <mxCell id="nGoUOX4LtskV6R6v_krh-187" value="&amp;nbsp;&amp;nbsp;" style="text;html=1;align=center;verticalAlign=middle;whiteSpace=wrap;rounded=0;" parent="1" vertex="1">
          <mxGeometry x="2135" y="1361" width="5" height="10" as="geometry" />
        </mxCell>
        <mxCell id="nGoUOX4LtskV6R6v_krh-189" value="a" style="text;html=1;align=center;verticalAlign=middle;whiteSpace=wrap;rounded=0;" parent="1" vertex="1">
          <mxGeometry x="2080" y="1410" width="60" height="30" as="geometry" />
        </mxCell>
        <mxCell id="nGoUOX4LtskV6R6v_krh-190" value="b" style="text;html=1;align=center;verticalAlign=middle;whiteSpace=wrap;rounded=0;" parent="1" vertex="1">
          <mxGeometry x="2097.5" y="1320" width="60" height="30" as="geometry" />
        </mxCell>
        <mxCell id="nGoUOX4LtskV6R6v_krh-191" value="6" style="ellipse;whiteSpace=wrap;html=1;aspect=fixed;" parent="1" vertex="1">
          <mxGeometry x="2295" y="1405" width="30" height="30" as="geometry" />
        </mxCell>
        <mxCell id="nGoUOX4LtskV6R6v_krh-192" value="" style="endArrow=classic;html=1;rounded=0;" parent="1" source="nGoUOX4LtskV6R6v_krh-191" target="nGoUOX4LtskV6R6v_krh-195" edge="1">
          <mxGeometry width="50" height="50" relative="1" as="geometry">
            <mxPoint x="2285" y="1540" as="sourcePoint" />
            <mxPoint x="2355" y="1390" as="targetPoint" />
          </mxGeometry>
        </mxCell>
        <mxCell id="nGoUOX4LtskV6R6v_krh-195" value="7" style="ellipse;whiteSpace=wrap;html=1;aspect=fixed;" parent="1" vertex="1">
          <mxGeometry x="2355" y="1375" width="30" height="30" as="geometry" />
        </mxCell>
        <mxCell id="nGoUOX4LtskV6R6v_krh-199" value="" style="endArrow=classic;html=1;rounded=0;" parent="1" source="nGoUOX4LtskV6R6v_krh-195" target="nGoUOX4LtskV6R6v_krh-200" edge="1">
          <mxGeometry width="50" height="50" relative="1" as="geometry">
            <mxPoint x="2384" y="1435" as="sourcePoint" />
            <mxPoint x="2415" y="1421" as="targetPoint" />
          </mxGeometry>
        </mxCell>
        <mxCell id="nGoUOX4LtskV6R6v_krh-200" value="9" style="ellipse;whiteSpace=wrap;html=1;aspect=fixed;strokeWidth=2;" parent="1" vertex="1">
          <mxGeometry x="2415" y="1410" width="30" height="30" as="geometry" />
        </mxCell>
        <mxCell id="nGoUOX4LtskV6R6v_krh-201" style="edgeStyle=orthogonalEdgeStyle;rounded=0;orthogonalLoop=1;jettySize=auto;html=1;" parent="1" source="nGoUOX4LtskV6R6v_krh-195" target="nGoUOX4LtskV6R6v_krh-195" edge="1">
          <mxGeometry relative="1" as="geometry">
            <mxPoint x="2358.090339887499" y="1350" as="sourcePoint" />
            <mxPoint x="2358.090339887499" y="1370" as="targetPoint" />
            <Array as="points">
              <mxPoint x="2370" y="1360" />
            </Array>
          </mxGeometry>
        </mxCell>
        <mxCell id="nGoUOX4LtskV6R6v_krh-202" value="b" style="text;html=1;align=center;verticalAlign=middle;whiteSpace=wrap;rounded=0;" parent="1" vertex="1">
          <mxGeometry x="2340" y="1340" width="60" height="30" as="geometry" />
        </mxCell>
        <mxCell id="nGoUOX4LtskV6R6v_krh-203" value="a" style="text;html=1;align=center;verticalAlign=middle;whiteSpace=wrap;rounded=0;" parent="1" vertex="1">
          <mxGeometry x="2370" y="1380" width="60" height="30" as="geometry" />
        </mxCell>
        <mxCell id="nGoUOX4LtskV6R6v_krh-204" style="edgeStyle=orthogonalEdgeStyle;rounded=0;orthogonalLoop=1;jettySize=auto;html=1;entryX=1;entryY=0;entryDx=0;entryDy=0;exitX=0.128;exitY=0.204;exitDx=0;exitDy=0;exitPerimeter=0;" parent="1" source="nGoUOX4LtskV6R6v_krh-200" target="nGoUOX4LtskV6R6v_krh-200" edge="1">
          <mxGeometry relative="1" as="geometry">
            <mxPoint x="2425" y="1389" as="sourcePoint" />
            <mxPoint x="2465" y="1400" as="targetPoint" />
            <Array as="points">
              <mxPoint x="2419" y="1390" />
              <mxPoint x="2441" y="1390" />
            </Array>
          </mxGeometry>
        </mxCell>
        <mxCell id="nGoUOX4LtskV6R6v_krh-205" value="b" style="text;html=1;align=center;verticalAlign=middle;whiteSpace=wrap;rounded=0;" parent="1" vertex="1">
          <mxGeometry x="2400" y="1365" width="60" height="30" as="geometry" />
        </mxCell>
        <mxCell id="nGoUOX4LtskV6R6v_krh-206" value="b" style="text;html=1;align=center;verticalAlign=middle;whiteSpace=wrap;rounded=0;" parent="1" vertex="1">
          <mxGeometry x="2305" y="1380" width="60" height="30" as="geometry" />
        </mxCell>
        <mxCell id="nGoUOX4LtskV6R6v_krh-207" value="2" style="ellipse;whiteSpace=wrap;html=1;aspect=fixed;" parent="1" vertex="1">
          <mxGeometry x="2295" y="1265" width="30" height="30" as="geometry" />
        </mxCell>
        <mxCell id="nGoUOX4LtskV6R6v_krh-208" value="" style="endArrow=classic;html=1;rounded=0;" parent="1" source="nGoUOX4LtskV6R6v_krh-207" target="nGoUOX4LtskV6R6v_krh-211" edge="1">
          <mxGeometry width="50" height="50" relative="1" as="geometry">
            <mxPoint x="2285" y="1400" as="sourcePoint" />
            <mxPoint x="2355" y="1250" as="targetPoint" />
          </mxGeometry>
        </mxCell>
        <mxCell id="nGoUOX4LtskV6R6v_krh-209" value="" style="endArrow=classic;html=1;rounded=0;" parent="1" source="nGoUOX4LtskV6R6v_krh-207" target="nGoUOX4LtskV6R6v_krh-213" edge="1">
          <mxGeometry width="50" height="50" relative="1" as="geometry">
            <mxPoint x="2295" y="1410" as="sourcePoint" />
            <mxPoint x="2355" y="1310" as="targetPoint" />
          </mxGeometry>
        </mxCell>
        <mxCell id="nGoUOX4LtskV6R6v_krh-210" value="" style="endArrow=classic;html=1;rounded=0;" parent="1" source="nGoUOX4LtskV6R6v_krh-213" target="nGoUOX4LtskV6R6v_krh-216" edge="1">
          <mxGeometry width="50" height="50" relative="1" as="geometry">
            <mxPoint x="2395" y="1370" as="sourcePoint" />
            <mxPoint x="2445" y="1320" as="targetPoint" />
          </mxGeometry>
        </mxCell>
        <mxCell id="nGoUOX4LtskV6R6v_krh-211" value="3" style="ellipse;whiteSpace=wrap;html=1;aspect=fixed;" parent="1" vertex="1">
          <mxGeometry x="2355" y="1235" width="30" height="30" as="geometry" />
        </mxCell>
        <mxCell id="nGoUOX4LtskV6R6v_krh-212" value="a" style="text;html=1;align=center;verticalAlign=middle;whiteSpace=wrap;rounded=0;" parent="1" vertex="1">
          <mxGeometry x="2375" y="1290" width="60" height="30" as="geometry" />
        </mxCell>
        <mxCell id="nGoUOX4LtskV6R6v_krh-213" value="4" style="ellipse;whiteSpace=wrap;html=1;aspect=fixed;strokeWidth=2;" parent="1" vertex="1">
          <mxGeometry x="2355" y="1300" width="30" height="30" as="geometry" />
        </mxCell>
        <mxCell id="nGoUOX4LtskV6R6v_krh-214" value="b" style="text;html=1;align=center;verticalAlign=middle;whiteSpace=wrap;rounded=0;" parent="1" vertex="1">
          <mxGeometry x="2315" y="1270" width="60" height="30" as="geometry" />
        </mxCell>
        <mxCell id="nGoUOX4LtskV6R6v_krh-215" value="" style="endArrow=classic;html=1;rounded=0;" parent="1" source="nGoUOX4LtskV6R6v_krh-211" target="nGoUOX4LtskV6R6v_krh-216" edge="1">
          <mxGeometry width="50" height="50" relative="1" as="geometry">
            <mxPoint x="2384" y="1295" as="sourcePoint" />
            <mxPoint x="2415" y="1281" as="targetPoint" />
          </mxGeometry>
        </mxCell>
        <mxCell id="nGoUOX4LtskV6R6v_krh-216" value="5" style="ellipse;whiteSpace=wrap;html=1;aspect=fixed;strokeWidth=2;" parent="1" vertex="1">
          <mxGeometry x="2415" y="1261" width="30" height="30" as="geometry" />
        </mxCell>
        <mxCell id="nGoUOX4LtskV6R6v_krh-217" style="edgeStyle=orthogonalEdgeStyle;rounded=0;orthogonalLoop=1;jettySize=auto;html=1;" parent="1" source="nGoUOX4LtskV6R6v_krh-211" target="nGoUOX4LtskV6R6v_krh-211" edge="1">
          <mxGeometry relative="1" as="geometry">
            <mxPoint x="2358.090339887499" y="1210" as="sourcePoint" />
            <mxPoint x="2358.090339887499" y="1230" as="targetPoint" />
            <Array as="points">
              <mxPoint x="2370" y="1220" />
            </Array>
          </mxGeometry>
        </mxCell>
        <mxCell id="nGoUOX4LtskV6R6v_krh-218" value="a" style="text;html=1;align=center;verticalAlign=middle;whiteSpace=wrap;rounded=0;" parent="1" vertex="1">
          <mxGeometry x="2340" y="1200" width="60" height="30" as="geometry" />
        </mxCell>
        <mxCell id="nGoUOX4LtskV6R6v_krh-219" value="b" style="text;html=1;align=center;verticalAlign=middle;whiteSpace=wrap;rounded=0;" parent="1" vertex="1">
          <mxGeometry x="2370" y="1240" width="60" height="30" as="geometry" />
        </mxCell>
        <mxCell id="nGoUOX4LtskV6R6v_krh-220" style="edgeStyle=orthogonalEdgeStyle;rounded=0;orthogonalLoop=1;jettySize=auto;html=1;entryX=1;entryY=0;entryDx=0;entryDy=0;exitX=0.128;exitY=0.204;exitDx=0;exitDy=0;exitPerimeter=0;" parent="1" source="nGoUOX4LtskV6R6v_krh-216" target="nGoUOX4LtskV6R6v_krh-216" edge="1">
          <mxGeometry relative="1" as="geometry">
            <mxPoint x="2425" y="1249" as="sourcePoint" />
            <mxPoint x="2465" y="1260" as="targetPoint" />
            <Array as="points">
              <mxPoint x="2419" y="1240" />
              <mxPoint x="2441" y="1240" />
            </Array>
          </mxGeometry>
        </mxCell>
        <mxCell id="nGoUOX4LtskV6R6v_krh-221" value="a" style="text;html=1;align=center;verticalAlign=middle;whiteSpace=wrap;rounded=0;" parent="1" vertex="1">
          <mxGeometry x="2400" y="1220" width="60" height="30" as="geometry" />
        </mxCell>
        <mxCell id="nGoUOX4LtskV6R6v_krh-222" value="a" style="text;html=1;align=center;verticalAlign=middle;whiteSpace=wrap;rounded=0;" parent="1" vertex="1">
          <mxGeometry x="2305" y="1240" width="60" height="30" as="geometry" />
        </mxCell>
        <mxCell id="nGoUOX4LtskV6R6v_krh-223" value="1" style="ellipse;whiteSpace=wrap;html=1;aspect=fixed;" parent="1" vertex="1">
          <mxGeometry x="2235" y="1335" width="30" height="30" as="geometry" />
        </mxCell>
        <mxCell id="nGoUOX4LtskV6R6v_krh-224" value="" style="endArrow=classic;html=1;rounded=0;" parent="1" source="nGoUOX4LtskV6R6v_krh-223" edge="1">
          <mxGeometry width="50" height="50" relative="1" as="geometry">
            <mxPoint x="2290" y="1530" as="sourcePoint" />
            <mxPoint x="2300" y="1409" as="targetPoint" />
          </mxGeometry>
        </mxCell>
        <mxCell id="nGoUOX4LtskV6R6v_krh-225" value="" style="endArrow=classic;html=1;rounded=0;" parent="1" source="nGoUOX4LtskV6R6v_krh-223" target="nGoUOX4LtskV6R6v_krh-207" edge="1">
          <mxGeometry width="50" height="50" relative="1" as="geometry">
            <mxPoint x="2266" y="1484" as="sourcePoint" />
            <mxPoint x="2309" y="1441" as="targetPoint" />
          </mxGeometry>
        </mxCell>
        <mxCell id="nGoUOX4LtskV6R6v_krh-226" value="b" style="text;html=1;align=center;verticalAlign=middle;whiteSpace=wrap;rounded=0;" parent="1" vertex="1">
          <mxGeometry x="2235" y="1371" width="60" height="30" as="geometry" />
        </mxCell>
        <mxCell id="nGoUOX4LtskV6R6v_krh-227" value="a" style="text;html=1;align=center;verticalAlign=middle;whiteSpace=wrap;rounded=0;" parent="1" vertex="1">
          <mxGeometry x="2235" y="1295" width="60" height="30" as="geometry" />
        </mxCell>
        <mxCell id="nGoUOX4LtskV6R6v_krh-229" value="" style="endArrow=classic;html=1;rounded=0;" parent="1" source="nGoUOX4LtskV6R6v_krh-213" target="nGoUOX4LtskV6R6v_krh-200" edge="1">
          <mxGeometry width="50" height="50" relative="1" as="geometry">
            <mxPoint x="2280" y="1381" as="sourcePoint" />
            <mxPoint x="2320" y="1429" as="targetPoint" />
          </mxGeometry>
        </mxCell>
        <mxCell id="nGoUOX4LtskV6R6v_krh-231" value="&amp;nbsp;&amp;nbsp;" style="text;html=1;align=center;verticalAlign=middle;whiteSpace=wrap;rounded=0;" parent="1" vertex="1">
          <mxGeometry x="2385" y="1395" width="5" height="10" as="geometry" />
        </mxCell>
        <mxCell id="nGoUOX4LtskV6R6v_krh-233" value="&amp;nbsp;&amp;nbsp;" style="text;html=1;align=center;verticalAlign=middle;whiteSpace=wrap;rounded=0;" parent="1" vertex="1">
          <mxGeometry x="2395" y="1361" width="5" height="10" as="geometry" />
        </mxCell>
        <mxCell id="nGoUOX4LtskV6R6v_krh-235" value="b" style="text;html=1;align=center;verticalAlign=middle;whiteSpace=wrap;rounded=0;" parent="1" vertex="1">
          <mxGeometry x="2357.5" y="1320" width="60" height="30" as="geometry" />
        </mxCell>
        <mxCell id="nGoUOX4LtskV6R6v_krh-236" value="a" style="text;html=1;align=center;verticalAlign=middle;whiteSpace=wrap;rounded=0;" parent="1" vertex="1">
          <mxGeometry x="2295" y="1360" width="60" height="30" as="geometry" />
        </mxCell>
        <mxCell id="nGoUOX4LtskV6R6v_krh-237" value="" style="endArrow=classic;html=1;rounded=0;" parent="1" source="nGoUOX4LtskV6R6v_krh-191" target="nGoUOX4LtskV6R6v_krh-213" edge="1">
          <mxGeometry width="50" height="50" relative="1" as="geometry">
            <mxPoint x="2280" y="1340" as="sourcePoint" />
            <mxPoint x="2330" y="1290" as="targetPoint" />
          </mxGeometry>
        </mxCell>
      </root>
    </mxGraphModel>
  </diagram>
</mxfile>
